<svg xmlns="http://www.w3.org/2000/svg" viewBox="0 0 480 320"><defs><style>.cls-1{fill:#ffba01;}.cls-2{fill:#fff5dc;}</style></defs><g id="Layer_3" data-name="Layer 3"><path class="cls-1" d="M99.17,189.13c-4.91.55-10.25,2.39-15.14,2.26l2.12,1.22c-1.41-2.49-1.64-3.78-5-3.55-2.9.19-5.87,1.35-8.74,1l2.38,1.81-.12-.75-1.72,3c7.64-1.67,19.13-6.37,26.53-2.5,5.14,2.67,10.09,9.9,11.11,15.64l4.12-2.4c-5.15-4-7.87-13.09-15.07-13.67-3.16-.25-3.14,4.68,0,4.93,2.72.22,5.92,5.77,7.53,7.69a30.27,30.27,0,0,0,4.06,4.54,2.48,2.48,0,0,0,4.11-2.4c-1.25-7-7.16-15.21-13.37-18.59-9.09-5-21,0-30.33,2a2.53,2.53,0,0,0-1.72,3l.12.75A2.51,2.51,0,0,0,72.41,195c2.2.24,4.48-.36,6.65-.7.65-.1,3,0,3.4-.52s-.93-.91-1.22-.27c-.14.32.53,1.39.66,1.55,1.3,1.7,3.27,1.25,5.12,1,4.06-.64,8.06-1.53,12.15-2,3.11-.35,3.15-5.28,0-4.92Z"/><path class="cls-1" d="M85.28,193.36c4.06-.36,8.12-.54,12.2-.57,3.17,0,3.18-4.94,0-4.92q-6.12,0-12.2.56c-3.14.27-3.17,5.2,0,4.93Z"/><path class="cls-1" d="M110.14,184.71c-.38.52.94-.7,1.06-.83a7.42,7.42,0,0,0,1.56-2.69,9.16,9.16,0,0,0-.08-5.53,8.05,8.05,0,0,0-3.11-4.75c-1.95-1.18-4.14-1-6.28-.65-3.74.53-7.75,1.26-9.17,5.25a7.06,7.06,0,0,0,3.18,8.57l-2.26-3,.23.62a5.06,5.06,0,0,0,6.06,3.44c2.4-.65,4.38-3.55,3.44-6.06-.42-1.13-.83-2.62-2-3.17q-1.32-1.25,0,1.36c.18,1.77.36,2.32.55,1.66-.15-.4.77-1.18,0-.13l-1.77,1.77c-.82.51,0,0,.55-.1s1.14-.29,1.71-.42a9.13,9.13,0,0,1,2.71-.23l-2.49-.67c-.25-.11-2-2.48-.84-.64.09.31.11.39.07.23a1.47,1.47,0,0,1,.55-1.5c-.85.18-1.81,1.85-2.25,2.45-1.57,2.15-.36,5.49,1.77,6.74,2.5,1.46,5.17.38,6.74-1.77Z"/><path class="cls-1" d="M205.27,174.07l-3.73,4.26a7.3,7.3,0,0,0-1.17,1.33c-.31.75-1.11,0,.64-.24l5.56,2.27c.27,2.16.42,2.62.45,1.39l0-.68a7.93,7.93,0,0,0-.91-3.1,5.87,5.87,0,0,0-6.51-2.56c-2.42.58-3.92,2.59-5.69,4.2a46.93,46.93,0,0,1-6.61,5c-5.35,3.37-.41,11.9,5,8.51a65.72,65.72,0,0,0,6.19-4.43c1-.8,2-1.63,2.88-2.5l.92-.88c1.06-1,1.2-1.2.42-.43l-4.8-1.27c-.87-.68-.66-2.74-.72-1.17a5.59,5.59,0,0,0,.94,2.93c1.25,2.08,3.34,2.57,5.57,2.26,3.45-.47,6.54-5.52,8.6-7.88,4.16-4.75-2.78-11.75-7-7Z"/><path class="cls-1" d="M207.76,181.5A66.14,66.14,0,0,0,221.49,189c4.18,1.69,10.49,2.92,12,7.81,1.92,6,11.43,3.45,9.51-2.62-1.84-5.8-6.12-9.45-11.6-11.82-6.57-2.85-12.81-5.2-18.71-9.4-5.17-3.68-10.1,4.86-5,8.51Z"/><path class="cls-1" d="M210.39,176.36c2.73-.68,7.5,3.46,9.7,4.88a98.82,98.82,0,0,1,8.42,5.93c2.38,1.91,4.57,5.18,7.09,6.76l1.05,1.26q.94-1.68.06-.09c-.44,1.78-2.07,3.79-3,5.4-3,5.57,5.47,10.55,8.51,5,2.06-3.78,5.82-8.36,4.21-12.9s-6.72-8.82-10.37-11.86A124.79,124.79,0,0,0,223,171.4c-4.84-3.06-9.3-6-15.2-4.54-6.15,1.53-3.54,11,2.62,9.5Z"/><path class="cls-1" d="M204,168.56c-6.36-1.61-9.82,1.87-14.4,5.76-6.37,5.41-12.77,11.68-14.74,20.1-1.44,6.17,8.06,8.8,9.5,2.62s6.3-10.58,10.91-14.63c1.62-1.42,3.38-2.69,5-4.12,1.29-1.17-.17-.56,1.13-.23,6.15,1.56,8.77-7.94,2.62-9.5Z"/><path class="cls-1" d="M179.54,193a48.32,48.32,0,0,0-1.43,10.22,4.93,4.93,0,1,0,9.85,0,34.83,34.83,0,0,1,1.08-7.6,4.93,4.93,0,1,0-9.5-2.62Z"/><path class="cls-1" d="M182.49,206.69a28.43,28.43,0,0,0,.91,7.23c.79,3.07,5.54,1.77,4.75-1.31a23.2,23.2,0,0,1-.74-5.92c0-3.17-4.91-3.18-4.92,0Z"/><path class="cls-1" d="M232.68,206.27a54.81,54.81,0,0,1-.14,5.73c-.1,1.55-.23,3.24,1.31,4.16a2.52,2.52,0,0,0,3-.38,9.42,9.42,0,0,0,1.6-3.1l1.92-4.31a2.52,2.52,0,0,0-.88-3.37,2.48,2.48,0,0,0-3.37.88l-1.68,3.78-.72,1.61-.48,1.08q-.33.65.12-.06l3-.38-.08,0,1.13,1.47c.12.38,0-.59,0-.72a.62.62,0,0,0,0-.13c0-.47.07-.95.1-1.42.09-1.6.13-3.19.07-4.79-.11-3.16-5-3.18-4.92,0Z"/><path class="cls-1" d="M186.41,136.63a.28.28,0,0,1,.2.12q-.84-.51.15.45L185.49,135l.23.75v-2.62l-.15.63,1.26-2.17c-.58.74-2,1.12-2.92,1.73a8.55,8.55,0,0,0-3.14,3.89c-1.21,3.05-1.74,6.79-.28,9.78,1.17,2.39,4.57,3,6.74,1.76A5,5,0,0,0,189,142l-.28-.56.68,2.49c0-.54.27-1.51.31-2.23,0-.13.3-1.17-.1-.47s.37-.09.68-.22a7.76,7.76,0,0,0,4.93-5.27c1.5-6.54-6.34-9.54-11.43-8.64-2.62.46-4.1,3.67-3.44,6.06.76,2.77,3.43,3.9,6.06,3.44Z"/><path class="cls-1" d="M233.47,136c1.49-.13-.82-.27-1.3-1.32l-.67-2.48a25.3,25.3,0,0,0,.27,4.15c.11.52.3,1,.39,1.55v-.25c0,.87.06.72.25-.47a5,5,0,0,0,1.77,6.74,5,5,0,0,0,6.74-1.76,8.73,8.73,0,0,0,1-5.05,28,28,0,0,0-.53-2.76,9.12,9.12,0,0,1,0-1.52c0-4.39-3.72-7-7.91-6.68a5.05,5.05,0,0,0-4.93,4.92c0,2.49,2.26,5.16,4.93,4.93Z"/><path class="cls-1" d="M80.86,297.75c8.79-1.89,19-5.35,27.31-.34,5.45,3.28,10.41-5.24,5-8.5-10.91-6.57-23.29-3.15-34.9-.66-6.2,1.33-3.58,10.83,2.62,9.5Z"/><path class="cls-1" d="M191.4,297.09c2.08-2.68,4.74-6.21,7.71-7.92l-3.62-2.78c-.83,2.49-2.93,4.44-3.79,7-.77,2.25,1.84,3.58,3.62,2.78,1.61-.72,2.89-2.17,4.56-2.73l-3-3a25.76,25.76,0,0,0-.7,3,2.48,2.48,0,0,0,2.46,2.47c2.57-.12,4-2.61,6.39-3.16l-3-3c-.42,1.25-1.41,2.26-1.88,3.53a2.48,2.48,0,0,0,3,3c3.47-1.16,5.9-4.33,9.21-5.84l-3.62-2.79c-.37,1.06-2.62,3.39-3.72,4.9-1.62,2.24,1.4,4.24,3.37,3.37s4-2.83,6.18-3.46l-2.78-3.62c-.6,1.34-1.71,2.34-2.39,3.66a2.49,2.49,0,0,0,3.37,3.37c3.12-1.42,5.68-4.49,8.91-5.54l-2.78-3.62c-1.08,2.18-3.2,3.78-4.42,5.93a2.49,2.49,0,0,0,3.37,3.37c1.89-1,3.63-2.75,5.66-3.25l-3.11-2.38c-.08,1.33-.55,2.19-.21,3.54a2.43,2.43,0,0,0,1.73,1.72c.73.11,4.89-.36,3.79-1.14l-1.22-2.13c.13,2.82,2.22,3.44,4.49,4.35,2.94,1.19,4.22-3.58,1.31-4.75-1.07-.77-1.36-.64-.88.4a2.45,2.45,0,0,0-.33-1.24,5.35,5.35,0,0,0-1.49-1.23,4.14,4.14,0,0,0-2.81.21c-.38.1-2.57.61-1.56.78l1.73,1.72a15.9,15.9,0,0,1,.37-2.23,2.48,2.48,0,0,0-3.11-2.37c-2.57.63-4.52,2.57-6.85,3.74l3.37,3.37c1.21-2.13,3.33-3.71,4.42-5.93.89-1.8-.6-4.32-2.78-3.61-3.73,1.21-6.53,4.42-10.08,6l3.37,3.37c.67-1.31,1.78-2.3,2.39-3.65.83-1.86-.55-4.26-2.78-3.62-2.71.77-4.81,2.83-7.36,4l3.37,3.37c1.45-2,3.38-3.72,4.21-6.08s-1.85-3.59-3.62-2.78c-2.86,1.31-5.08,4.36-8,5.35l3,3c.47-1.27,1.43-2.2,1.88-3.53.63-1.86-1.3-3.44-3-3a8.69,8.69,0,0,0-2.85,1.35c-.77.47-3.34,1.68-2.23,1.63l2.47,2.46c0-.54.41-1.16.52-1.7.33-1.72-1.12-3.67-3-3-2.15.72-3.7,2.32-5.74,3.23l3.62,2.78c.85-2.49,3-4.43,3.8-7,.7-2.09-1.84-3.81-3.62-2.78-3.43,2-6.34,5.62-8.72,8.68-1.92,2.48,1.54,6,3.49,3.49Z"/><path class="cls-1" d="M211.64,297.93H227c3.17,0,3.18-4.93,0-4.93H211.64c-3.17,0-3.17,4.93,0,4.93Z"/><path class="cls-1" d="M199.11,290.37c3.17,0,3.17-4.93,0-4.93s-3.18,4.93,0,4.93Z"/><path class="cls-1" d="M317.83,294a49.42,49.42,0,0,1,14.51-.87c4.81.44,9.37,2.4,14.21,2.29,6.34-.14,6.36-10,0-9.85-5.24.12-10.64-2.13-16-2.42a60.53,60.53,0,0,0-15.36,1.35c-6.21,1.28-3.58,10.78,2.62,9.5Z"/><path class="cls-1" d="M340.94,186.73c-6.6.75-12.45-.28-18.75-2.17-2.79-.84-8-2.06-9.69-3l-1.18,9c2.91-.68,7.46.73,10.48.92a107.79,107.79,0,0,0,12.71,0c6.3-.37,6.35-10.22,0-9.86a105,105,0,0,1-14.52-.1c-3.74-.3-7.57-1.31-11.29-.43-4.11,1-4.82,7-1.17,9s8.1,2.79,12,4c7.11,2.13,13.92,3.37,21.37,2.53,6.23-.71,6.31-10.57,0-9.86Z"/><path class="cls-1" d="M324.6,185.84c3.87.22,9.35-1.17,12.85.88,1.43.83,2.28,2.39,3.46,3.53a13.06,13.06,0,0,0,4.69,2.81c5.93,2.27,8.49-7.25,2.62-9.5-1.36-.52-2.62-2.92-3.78-3.9a14.81,14.81,0,0,0-5.47-2.9c-4.67-1.39-9.6-.5-14.37-.78-6.34-.37-6.32,9.49,0,9.86Z"/><path class="cls-1" d="M346.92,190.77l2.83,0c.61,0,2.05.45,1.21,0l-2.27-2.95c1.28,3.1,1.85,5.28,4.49,7.65,2.23,2,5.12,4.55,4.47,7.9-1.18,6.2,8.31,8.85,9.51,2.62,1.32-6.9-1.6-12.54-6.62-17.15a6.62,6.62,0,0,1-2-2.75c-.76-1.59-1.11-2.77-2.63-3.83-2.54-1.78-6.07-1.31-9-1.35-6.34-.09-6.34,9.76,0,9.85Z"/><path class="cls-1" d="M341,192.1c-.46,5.37,2.05,12.09,7.1,14.66a5.42,5.42,0,0,0,7.62-3.16,24.36,24.36,0,0,0,.49-3.5c.08-.43.26-.85.34-1.27s.54-.89.18-.3L352.5,201l.36,0-4.75-3.61a24.54,24.54,0,0,0,2.29,5.54,75.33,75.33,0,0,1,4.38,7.27c2.77,5.7,11.27.71,8.51-5-1.77-3.63-4.39-6.67-5.68-10.46a5.18,5.18,0,0,0-4.75-3.62l-.36,0a4.86,4.86,0,0,0-4.26,2.44,12.29,12.29,0,0,0-1.36,3.31,19.54,19.54,0,0,0-.44,2.54c0,.32-.53,2.39-.21,1.57L348.5,198l-.38.21h5c-2.14-1-2.39-4.16-2.22-6.15.54-6.32-9.32-6.28-9.85,0Z"/><path class="cls-1" d="M349.66,209.42c6.34,0,6.35-9.85,0-9.85s-6.35,9.85,0,9.85Z"/><path class="cls-1" d="M355.94,208.4a13.19,13.19,0,0,1-.4,1.76c-.09.29-.19.57-.3.85.2-.48.18-.47-.06.05s-.59,1.05-.95,1.54c.57-.78-.57.56-.7.7a4.93,4.93,0,1,0,7,7,17.32,17.32,0,0,0,4.95-9.25c.44-2.53-.67-5.43-3.44-6.06-2.39-.54-5.59.73-6.06,3.44Z"/><path class="cls-1" d="M353.39,219.36c-.7,2.09-2.62,3.55-3.47,5.61a18.22,18.22,0,0,0-1,7.11c0,3.17,4.94,3.17,4.92,0,0-2.29,0-4.53,1.31-6.49a20.32,20.32,0,0,0,3-4.93c1-3-3.74-4.3-4.76-1.3Z"/><path class="cls-2" d="M446.11,38.43c1.09-1.1.74-.91-1.07.59,1.36-.78,1-.66-1.21.33a10.52,10.52,0,0,1,1.67-.44c-2.49.27-2.94.39-1.33.36-2.48-.42-2.94-.45-1.38-.07-2.16-1-2.56-1.16-1.19-.4q-4.28-2.58-4.62-8.24c0,.46.07.91.08,1.37,0,1.17.13.62.38-1.67a11.08,11.08,0,0,1,7-6.78c2.52-.23,3-.32,1.31-.29q3.64.63,1.28.08,3.17,1.5,1.05.43c-1.31-.85-1-.6.81.72q-1.62-1.68.54,1c-.78-1.36-.7-1,.26,1.14-1.53-3.72-3.18-6.72-6.79-8.83a15.07,15.07,0,0,0-11.39-1.49c-6.86,2.22-13.48,10.52-10.32,18.18,3.53,8.58,9.8,15.73,19.3,17.69C446,53.22,452,52.91,457,50c5.55-3.19,8.52-8.59,9.34-14.75,1.5-11.12-4.65-21.52-15.68-24.56-8.91-2.47-19.1,0-25.44,6.83-5.25,5.68-6,15.35,0,20.9,5.7,5.24,15.3,6.07,20.9,0Z"/><path class="cls-2" d="M392.58,151.6c3.95,7,6.08,16.63,6.69,24.38.86,11,.74,22.06.51,33.05q-.37,17.17-1.84,34.28-.75,8.81-1.8,17.57c-.31,2.58-.48,4.24-.78,6.07-.18,1.05-.36,2.11-.59,3.16,0-.05-1.28,4.28-.52,2.52-3.18,7.32-2.15,15.86,5.31,20.23,6.25,3.66,17,2.05,20.22-5.31,5.36-12.32,6-26.09,7.28-39.35q1.86-19.53,2.28-39.17c.51-24.3,1.1-50.54-11.24-72.35-3.93-6.94-13.4-9.29-20.22-5.3a15,15,0,0,0-5.3,20.22Z"/><path class="cls-2" d="M396.58,138.64c6.34,0,6.35-9.85,0-9.85s-6.35,9.85,0,9.85Z"/><path class="cls-2" d="M431.89,51.81c-.17,7.2-3.27,14.6-5.05,21.54q-2.76,10.8-5.18,21.69-4.92,22.24-8.34,44.79c-.95,6.2,8.54,8.87,9.5,2.62q3.6-23.49,8.77-46.69,2.55-11.34,5.48-22.61c1.83-7,4.51-14.06,4.67-21.34.15-6.34-9.71-6.34-9.85,0Z"/><path class="cls-2" d="M437.21,58.65c-2.1,16.61-6.34,33-9.76,49.41L417,157.82c-1.29,6.18,8.2,8.83,9.51,2.61l10.83-51.71c3.48-16.61,7.57-33.22,9.71-50.07.79-6.27-9.07-6.21-9.86,0Z"/><path class="cls-2" d="M149.89,127.82c-5.8,14.16-7.87,29.76-9.18,44.9-1.39,15.9-1.43,31.88-1.48,47.82,0,6.34,9.84,6.35,9.86,0,.08-29.61-1.13-62.19,10.3-90.1,2.4-5.86-7.13-8.42-9.5-2.62Z"/><path class="cls-2" d="M139.45,224.17c-1.1,12.48.9,24.84,3.13,37.09q3.53,19.44,7.13,38.87c1.14,6.23,10.64,3.59,9.5-2.62q-3.39-18.5-6.79-37c-2.21-12-4.2-24.06-3.12-36.34.56-6.32-9.3-6.28-9.85,0Z"/><path class="cls-2" d="M261.65,127.9c2.59,6.81,5,13.56,5.75,20.85.84,7.85,1.11,15.8,1.62,23.68l3.12,48c.41,6.3,10.27,6.34,9.85,0l-3.24-50c-.51-7.81-.76-15.69-1.69-23.47-.91-7.6-3.19-14.59-5.91-21.72-2.23-5.87-11.76-3.33-9.5,2.62Z"/><path class="cls-2" d="M271.93,223.27a313.92,313.92,0,0,1-7.68,76.08c-1.4,6.17,8.1,8.81,9.5,2.62a324.49,324.49,0,0,0,8-78.7c-.13-6.33-10-6.35-9.85,0Z"/><path class="cls-2" d="M40.25,114c-19.54,29.74-17.77,66.27-15.34,100.22.45,6.29,10.31,6.34,9.86,0-2.31-32.21-4.58-67,14-95.25,3.49-5.31-5-10.25-8.51-5Z"/><path class="cls-2" d="M34.1,134q-4.79,34.41-7.24,69.08c-.44,6.33,9.42,6.3,9.86,0Q39,169.72,43.6,136.59c.87-6.2-8.63-8.89-9.5-2.62Z"/><path class="cls-2" d="M23,203.52c-2.3,21.1,1.41,42.4,3.49,63.42.62,6.25,10.48,6.32,9.85,0-2.08-21-5.79-42.32-3.48-63.42.69-6.3-9.17-6.25-9.86,0Z"/><path class="cls-2" d="M28.87,207.34c-1.18,25.58-2.07,51.67,5.84,76.37,1.92,6,11.44,3.45,9.5-2.62-7.65-23.88-6.62-49-5.48-73.75.29-6.34-9.57-6.33-9.86,0Z"/><path class="cls-2" d="M21.09,259.74a76.24,76.24,0,0,0,17.13,49.92c4,4.95,10.9-2.06,7-7a65.68,65.68,0,0,1-14.24-43c.16-6.35-9.7-6.34-9.86,0Z"/><path class="cls-2" d="M33.33,281c.38,4.74,2.54,9,4.32,13.35q2.79,6.84,5.76,13.61c2.56,5.78,11.06.78,8.51-5-1.65-3.72-3.23-7.48-4.77-11.25-1.31-3.21-3.69-7.24-4-10.73-.5-6.28-10.36-6.33-9.86,0Z"/><path class="cls-2" d="M47.14,120.92q60.18-.36,120.29,3.15c6.33.37,6.31-9.49,0-9.86q-60.08-3.51-120.29-3.14c-6.33,0-6.35,9.89,0,9.85Z"/><path class="cls-2" d="M43.12,127l111.1-.06c6.34,0,6.36-9.86,0-9.86l-111.1.07c-6.34,0-6.35,9.86,0,9.85Z"/><path class="cls-2" d="M147.89,118.91l149.68-.09c6.34,0,6.35-9.86,0-9.86l-149.68.1c-6.34,0-6.35,9.85,0,9.85Z"/><path class="cls-2" d="M169.19,125.23l139.89-.09c6.34,0,6.35-9.86,0-9.85l-139.89.08c-6.34,0-6.35,9.86,0,9.86Z"/><path class="cls-2" d="M299.12,118.48l82.71,0c6.34,0,6.35-9.86,0-9.86l-82.71.06c-6.34,0-6.36,9.85,0,9.85Z"/><path class="cls-2" d="M307.68,126.62l74.57,0c6.34,0,6.35-9.86,0-9.86l-74.57,0c-6.34,0-6.35,9.86,0,9.85Z"/><path class="cls-2" d="M50.27,308.11,309.73,308l73.85-.05c6.34,0,6.35-9.85,0-9.85l-259.47.16-73.84.05c-6.34,0-6.36,9.85,0,9.85Z"/><path class="cls-2" d="M156.5,303.4c6.35,0,6.36-9.85,0-9.85s-6.35,9.85,0,9.85Z"/><path class="cls-2" d="M277.93,304.15c8.67-.82,17.25.06,25.89.76,8.82.71,17.65,1,26.5,1,17.93,0,36.24-.08,54.07-2.09,6.23-.7,6.3-10.57,0-9.86-17.83,2-36.14,2.12-54.07,2.09-8.85,0-17.68-.31-26.5-1-8.64-.7-17.22-1.57-25.89-.75-6.26.59-6.32,10.45,0,9.85Z"/><path class="cls-2" d="M378.73,124.2c-.05,5.9,1.88,11.3,3.1,17,1.41,6.63,1.44,13.47,1.64,20.22l1.17,40.21c.19,6.33,10,6.36,9.85,0q-.58-20.1-1.17-40.21a158.66,158.66,0,0,0-1.19-18.23c-.92-6.35-3.61-12.55-3.54-19s-9.8-6.35-9.86,0Z"/><path class="cls-2" d="M376.32,130c1.26,12.32.89,24.88,4.73,36.79,1.93,6,11.45,3.44,9.5-2.62-3.57-11.08-3.21-22.71-4.38-34.17-.64-6.24-10.5-6.31-9.85,0Z"/><path class="cls-2" d="M384.45,156.74q4.8,56.2,4.07,112.66c-.08,6.34,9.77,6.35,9.85,0q.74-56.4-4.07-112.66c-.54-6.27-10.4-6.33-9.85,0Z"/><path class="cls-2" d="M385.71,209.93a491.31,491.31,0,0,1-7.15,90.37c-1.08,6.2,8.41,8.86,9.5,2.61a504.78,504.78,0,0,0,7.5-93c-.08-6.33-9.93-6.35-9.85,0Z"/><path class="cls-2" d="M387.07,275.62c.22,8,.88,18.31-3.6,25.36-3.4,5.37,5.12,10.32,8.51,5,5.47-8.63,5.21-20.48,4.94-30.33-.17-6.32-10-6.35-9.85,0Z"/></g><g id="Layer_1" data-name="Layer 1"><path d="M444.52,50.44a21.48,21.48,0,0,1-21.61-16c-.59-2.24-4.06-1.29-3.48,1A25.11,25.11,0,0,0,444.52,54c2.31-.08,2.32-3.68,0-3.6Z"/><path d="M423.15,31.2a20,20,0,0,1,6.52-15.46,19.84,19.84,0,0,1,16.4-4.67c2.27.4,3.24-3.07,1-3.47a23.7,23.7,0,0,0-19.61,5.34,23.5,23.5,0,0,0-7.87,18.26c.07,2.31,3.67,2.32,3.6,0Z"/><path d="M449.39,11.66a10.26,10.26,0,0,1,4.92,2.05A33.69,33.69,0,0,1,458.52,17c2.67,2.55,3.84,6.22,4.25,9.82a21.52,21.52,0,0,1-6.52,18.37A19.48,19.48,0,0,1,446.78,50c-2.27.45-1.31,3.92,1,3.47a23.47,23.47,0,0,0,16.85-14,25.69,25.69,0,0,0,1.8-12.38c-.43-4.22-1.64-8.62-4.57-11.81a31.79,31.79,0,0,0-5.69-4.64,13.71,13.71,0,0,0-6.74-2.54c-2.32-.16-2.31,3.44,0,3.6Z"/><path d="M429.53,51.35l-19.66,85.53-5.58,24.3c-.52,2.25,2.95,3.22,3.47,1l19.66-85.53L433,52.31c.51-2.26-3-3.22-3.48-1Z"/><path d="M404.82,162.88A23.14,23.14,0,0,0,422.06,167a1.81,1.81,0,0,0,1.25-2.21,1.84,1.84,0,0,0-2.21-1.26,19.63,19.63,0,0,1-14.46-3.72,1.8,1.8,0,1,0-1.82,3.1Z"/><path d="M443.17,55.71,427.82,141l-4.32,24c-.41,2.26,3.06,3.24,3.47,1L442.32,80.7l4.32-24c.41-2.27-3.06-3.24-3.47-1Z"/><path d="M42.8,125.15a428.78,428.78,0,0,0-3.86,134.93q2.48,19,6.61,37.73c.5,2.27,4,1.31,3.47-.95a426.11,426.11,0,0,1-8.09-133.31q1.83-18.83,5.34-37.44c.42-2.26-3-3.23-3.47-1Z"/><path d="M50.36,128.42l75.86,0h21.47a1.8,1.8,0,0,0,0-3.6l-75.87,0H50.36a1.8,1.8,0,0,0,0,3.6Z"/><path d="M159.24,128.35l79.82,0h22.46a1.8,1.8,0,0,0,0-3.6l-79.83,0H159.24a1.8,1.8,0,0,0,0,3.6Z"/><path d="M273.89,129.11l80.95-.06h23a1.8,1.8,0,0,0,0-3.6l-80.95,0-23,0a1.8,1.8,0,0,0,0,3.6Z"/><path d="M47.16,298.34l75.87,0h21.46a1.8,1.8,0,0,0,0-3.6l-75.86.05H47.16a1.8,1.8,0,0,0,0,3.6Z"/><path d="M157.69,299.1,239.5,299h22.95a1.8,1.8,0,0,0,0-3.6l-81.81.05-22.95,0a1.8,1.8,0,0,0,0,3.6Z"/><path d="M275.64,296.55l79-.05,22.49,0a1.8,1.8,0,0,0,0-3.6l-79,.05-22.49,0a1.8,1.8,0,0,0,0,3.6Z"/><path d="M147,129.67a390.35,390.35,0,0,0-5.48,130.12q2.33,18.33,6.35,36.38c.5,2.26,4,1.3,3.47-1a385.18,385.18,0,0,1-8.77-64.14,390.16,390.16,0,0,1,2-64.48c1.38-12.07,3.36-24.08,5.89-36,.48-2.26-3-3.23-3.47-1Z"/><path d="M156,129.76a399.48,399.48,0,0,0-4.21,131.31q2.46,18.42,6.62,36.55c.52,2.26,4,1.3,3.48-.95a393.47,393.47,0,0,1-9.31-64.52A399.66,399.66,0,0,1,154,167q1.89-18.24,5.5-36.25c.45-2.26-3-3.23-3.47-1Z"/><path d="M261.92,130.56a493.86,493.86,0,0,1,6.93,65.78A498,498,0,0,1,267,262.45q-.89,9.17-2.09,18.3-.61,4.69-1.34,9.37c-.23,1.51-.47,3-.72,4.54a2.8,2.8,0,0,1-.3,1.27c-.05.05-.21.14-.23.19l-.21.12c.51-.47,1.07-.1,1.68,1.09.21-2.3-3.39-2.29-3.6,0s2.42,2.88,4.05,1.83c2.21-1.41,2.17-4.07,2.54-6.41q1.35-8.62,2.41-17.29,2.15-17.68,3-35.5a499.71,499.71,0,0,0-1.53-70.71q-1.86-19.92-5.29-39.64c-.4-2.28-3.87-1.31-3.47.95Z"/><path d="M273,132a465.85,465.85,0,0,1,6.68,62.23A467.91,467.91,0,0,1,278,256.57q-1.64,17.54-4.6,34.89c-.39,2.27,3.08,3.24,3.47,1a471.87,471.87,0,0,0,6.47-63,468.86,468.86,0,0,0-2-63q-1.77-17.74-4.87-35.33c-.4-2.28-3.87-1.32-3.47.95Z"/><path d="M373.73,129.1a474.32,474.32,0,0,1,8.17,63,479.9,479.9,0,0,1-.31,63.57q-1.27,17.85-3.9,35.58a1.85,1.85,0,0,0,1.25,2.21,1.8,1.8,0,0,0,2.22-1.26,480.57,480.57,0,0,0,5.2-64.07,478.22,478.22,0,0,0-3.44-64.2q-2.19-18-5.72-35.82c-.45-2.27-3.92-1.31-3.47.95Z"/><path d="M41,111l133.9-.08,133.21-.08,75.15,0a1.8,1.8,0,0,0,0-3.6l-133.9.08-133.21.09L41,107.4a1.8,1.8,0,0,0,0,3.6Z"/><path d="M38.48,312.14l136-.08L309.71,312l76.3,0a1.8,1.8,0,0,0,0-3.6l-136,.08-135.27.08-76.3.05a1.8,1.8,0,0,0,0,3.6Z"/><path d="M39.22,109c-7.27,6.8-10.44,16.55-12.33,26.05-2.29,11.48-3.71,23.19-4.86,34.83a448.28,448.28,0,0,0-1.23,72.91q1.32,20.4,4.5,40.62a1.82,1.82,0,0,0,2.21,1.26,1.85,1.85,0,0,0,1.26-2.22,444,444,0,0,1-5.29-71.27,438.71,438.71,0,0,1,6.06-70.72C31.3,130.15,33.8,119,41.76,111.58c1.7-1.59-.85-4.13-2.54-2.55Z"/><path d="M25.43,283.25a45.88,45.88,0,0,0,9.6,25,1.81,1.81,0,0,0,2.55,0,1.85,1.85,0,0,0,0-2.54A41.69,41.69,0,0,1,29,283.25c-.16-2.3-3.77-2.31-3.6,0Z"/><path d="M383,110.08c6.8,20.72,10.69,42.26,12.69,64,2,21.84,2.2,43.8,1.77,65.72q-.18,9.13-.48,18.27a134.67,134.67,0,0,1-1.64,19.45c-.4,2.27,3.07,3.24,3.48,1,2-11.17,1.87-22.69,2.14-34,.26-11.09.38-22.18.21-33.28-.34-22.08-1.84-44.2-5.71-66a263.37,263.37,0,0,0-9-36.07c-.72-2.19-4.2-1.25-3.47,1Z"/><path d="M394.08,283.77a13.89,13.89,0,0,1-1.06,6.69c-.84,2.36-1.82,4.69-2.74,7l-2.73,6.93-1.37,3.46-.72,1.85-.37.92c-.34.55-.23.63.32.22l1.75.47-.13-.11.52,1.27-.16.58-2,.83.13,0c2.23.64,3.18-2.84.95-3.48l-.12,0a1.84,1.84,0,0,0-2,.82,2,2,0,0,0,1.37,3.12c1.77.24,2.39-1.44,2.91-2.77l3.83-9.7c1.23-3.13,2.49-6.25,3.69-9.39s2-6.32,1.47-9.7a1.81,1.81,0,0,0-2.21-1.26,1.85,1.85,0,0,0-1.26,2.22Z"/><path d="M392.09,131.69h11a1.8,1.8,0,1,0,0-3.6h-11a1.8,1.8,0,1,0,0,3.6Z"/><path d="M428,169.51a313.47,313.47,0,0,1,2.06,48.33,312.15,312.15,0,0,1-5.44,48.29q-2.59,13.39-6.34,26.54c-.64,2.23,2.83,3.18,3.47,1a316.39,316.39,0,0,0,9.7-47.88A314.47,314.47,0,0,0,433.72,197q-.44-13.77-2.09-27.45a1.86,1.86,0,0,0-1.8-1.8,1.81,1.81,0,0,0-1.8,1.8Z"/><path d="M395.84,294.79a149.78,149.78,0,0,1,21.91-.52c2.32.12,2.31-3.48,0-3.6a149.78,149.78,0,0,0-21.91.52A1.85,1.85,0,0,0,394,293a1.81,1.81,0,0,0,1.8,1.8Z"/><path d="M52.53,217.61a1.8,1.8,0,0,0,0-3.6,1.8,1.8,0,0,0,0,3.6Z"/><path d="M116.9,234.78a1.8,1.8,0,0,0,0-3.6,1.8,1.8,0,0,0,0,3.6Z"/><path d="M76.42,185.74a37.29,37.29,0,0,0-22.68,22.57c-4,11.34-2.19,25.56,5.95,34.7,4.05,4.55,9.78,6.85,15.46,8.62,6.24,1.93,12.86,3.63,19.44,2.81,11.14-1.39,19.29-10.31,23-20.46,4.36-11.93,2.71-26-5.26-36a1.8,1.8,0,0,0-2.54,0,1.84,1.84,0,0,0,0,2.54c6.31,8,7.89,19,5.5,28.71-2.22,9-8.24,18-17.44,20.91-5.7,1.77-11.74.83-17.38-.67-5.24-1.39-10.79-2.95-15.22-6.18s-7.14-8.33-8.62-13.46a33.1,33.1,0,0,1,20.74-40.57c2.16-.77,1.23-4.25-1-3.47Z"/><path d="M97.42,193.47l-19.51,2.35,1.74,2.28c.09-.52,0,0-.06,0s.49-.22.38-.18c.59-.22,1.19-.4,1.77-.65a3.31,3.31,0,0,0,2.13-2.91,1.83,1.83,0,0,0-2.28-1.74,38.92,38.92,0,0,1-16-.52c-2.26-.55-3.22,2.92-1,3.47a43.52,43.52,0,0,0,17.93.52l-2.28-1.73c0-.59.36-.51-.25-.26s-1,.32-1.43.51a3.52,3.52,0,0,0-2.41,2.52c-.17,1,.46,2.43,1.73,2.28l19.51-2.35a1.87,1.87,0,0,0,1.8-1.8,1.81,1.81,0,0,0-1.8-1.8Z"/><path d="M101.31,200a36.11,36.11,0,0,0,13.11,13.21,1.8,1.8,0,0,0,1.82-3.11,32.26,32.26,0,0,1-11.82-11.92c-1.16-2-4.27-.2-3.11,1.82Z"/><path d="M70,203.92a4.35,4.35,0,0,0-2.91-.74,5.29,5.29,0,0,0-1.86.53,2.83,2.83,0,0,0-.47.29,5.59,5.59,0,0,0-.74.63,1.94,1.94,0,0,0-.52,1.28,1.84,1.84,0,0,0,.52,1.27,1.87,1.87,0,0,0,1.28.53,1.83,1.83,0,0,0,1.27-.53,2,2,0,0,1,.37-.35l-.37.28a3,3,0,0,1,.62-.36l-.43.18a3.46,3.46,0,0,1,.78-.21l-.48.06a3.21,3.21,0,0,1,.82,0l-.48-.07a3.2,3.2,0,0,1,.69.19l-.43-.18a2.78,2.78,0,0,1,.53.3,1.8,1.8,0,0,0,1.38.18,1.86,1.86,0,0,0,1.08-.82,1.83,1.83,0,0,0,.18-1.39l-.18-.43a1.84,1.84,0,0,0-.65-.65Z"/><path d="M106.88,215.78h0l-.48-.06a3.64,3.64,0,0,1,.86.23l-.43-.18a3.9,3.9,0,0,1,.76.45l-.37-.28a3.05,3.05,0,0,1,.6.59l-.28-.36a3.25,3.25,0,0,1,.37.59,1.31,1.31,0,0,0,.46.5,1.57,1.57,0,0,0,1.33.36,1.27,1.27,0,0,0,.67-.22,1.78,1.78,0,0,0,.83-1.07l.06-.48a1.79,1.79,0,0,0-.24-.91,5.28,5.28,0,0,0-.75-1.07,5.17,5.17,0,0,0-2.13-1.42,4.78,4.78,0,0,0-1.3-.27,2,2,0,0,0-1.27.52,1.8,1.8,0,0,0,0,2.55l.37.28a1.9,1.9,0,0,0,.9.25Z"/><path d="M73,215.77v0l-.06.48a.19.19,0,0,1,0-.07l-.18.43a.21.21,0,0,1,0-.06l-.28.36,0,0-.37.28.1-.06-.43.19a.27.27,0,0,1,.12,0l-.48.06h.1l-.48-.06.08,0-.43-.18.07,0-.37-.29,0,0-.28-.37v0l-.18-.43v0l-.06-.48a2.44,2.44,0,0,1,0,.54l.06-.48a1.91,1.91,0,0,1-.14.52l.18-.43a1.11,1.11,0,0,1-.07.16l2-.83-.08,0,.43.18-.13-.07.37.28a.49.49,0,0,1-.13-.12l.28.36a.51.51,0,0,1-.09-.16l.18.43a.76.76,0,0,1-.06-.2l.06.48v-.19l-.06.48a.75.75,0,0,1,0-.16l-.18.43.06-.11A1.27,1.27,0,0,0,73,216a1.47,1.47,0,0,0,0-.72,1.34,1.34,0,0,0-.33-.61,1.33,1.33,0,0,0-.5-.47l-.43-.18a2,2,0,0,0-1,0l-.43.18a1.81,1.81,0,0,0-.64.65,2.24,2.24,0,0,0-.26.57.29.29,0,0,0,0,.09s0,0,0,0,0,.34-.07.51a1.81,1.81,0,0,0,0,.4,1.87,1.87,0,0,0,.07.4,2.72,2.72,0,0,0,.63,1.06l.07.06c.13.1.26.21.39.3l0,0a2.14,2.14,0,0,0,.28.12,1.88,1.88,0,0,0,.3.12l.48.07a1.41,1.41,0,0,0,.7-.16.86.86,0,0,0,.39-.23,1.41,1.41,0,0,0,.47-.5l.06-.13c.08-.18.16-.37.23-.55s.06-.19.08-.28a.78.78,0,0,0,0-.14c0-.2.07-.41.08-.61a1.4,1.4,0,0,0,0-.29c0-.13,0-.25,0-.37a1.27,1.27,0,0,0-.23-.7l-.15-.2s-.1-.14-.15-.19l0,0-.37-.29h0l0,0-.44-.18h-.08l-.49-.07h-.09a2.82,2.82,0,0,0-.54.08h0c-.1,0-.34.14-.43.19h0a3,3,0,0,0-.44.32l0,0v0a2.72,2.72,0,0,0-.29.38l0,0v0l-.18.43v0a.08.08,0,0,1,0,0,2,2,0,0,0,0,.26c0,.07,0,.17,0,.26a1.26,1.26,0,0,0,.16.69,1.23,1.23,0,0,0,.37.58,1.4,1.4,0,0,0,.58.38,1.34,1.34,0,0,0,.69.15l.48-.06a1.81,1.81,0,0,0,.8-.47l.28-.36a1.79,1.79,0,0,0,.24-.91Z"/><path d="M101.28,223.41v0l.07.48a.06.06,0,0,1,0-.06l-.07.48a.43.43,0,0,1,0,0l-.18.43a.05.05,0,0,0,0,0l-.28.37,0,0-.37.28,0,0-.43.18.07,0-.48.06h.12l-.47-.06.13,0-.43-.18.13.07-.36-.28.07.07-.28-.36,0,.06-.18-.43a.19.19,0,0,1,0,.07l-.06-.48V224l.06-.48a.53.53,0,0,1,0,.12l.18-.43a.5.5,0,0,1-.08.14l.29-.37a.49.49,0,0,1-.13.12l.37-.28a.76.76,0,0,1-.23.13l.43-.18a2,2,0,0,1-.54.14l.48-.06h0l1.74,1.32a.43.43,0,0,1,0-.11l.06.48a2,2,0,0,1,0-.35l-.06.47a1.64,1.64,0,0,1,.1-.38l-.18.43a1.69,1.69,0,0,1,.19-.32l-.28.36a2,2,0,0,1,.25-.25l-.36.28a1.17,1.17,0,0,1,.28-.17,1.93,1.93,0,0,0,.83-1.08,2.05,2.05,0,0,0-.18-1.38l-.28-.37a1.89,1.89,0,0,0-.8-.46l-.48-.06a1.78,1.78,0,0,0-.9.24,1.71,1.71,0,0,0-.23.13,3.71,3.71,0,0,0-.54.42,5.35,5.35,0,0,0-.43.54,1.35,1.35,0,0,0-.14.22,2.94,2.94,0,0,0-.32.9,3.27,3.27,0,0,0-.08.7s0,.09,0,.13,0,.39.08.59l.19.43a1.23,1.23,0,0,0,.46.5.84.84,0,0,0,.4.23,1.26,1.26,0,0,0,.69.16,7.19,7.19,0,0,0,.81-.13,3.7,3.7,0,0,0,.74-.3l.14-.08a3.73,3.73,0,0,0,.47-.38,2.36,2.36,0,0,0,.35-.48,2.91,2.91,0,0,0,.21-.48l0-.09v0A4.44,4.44,0,0,0,102,224V224c0-.09,0-.4-.07-.49v0a3.32,3.32,0,0,0-.2-.47,2.21,2.21,0,0,0-.76-.79l-.09,0-.47-.2-.06,0h0a4.63,4.63,0,0,0-.52-.07h-.1a2.09,2.09,0,0,0-1,.27,1.76,1.76,0,0,0-.43.33c0,.05-.26.33-.29.38v0a1.73,1.73,0,0,0-.2.46,2.19,2.19,0,0,0,0,1.05,1.43,1.43,0,0,0,.33.62,1.31,1.31,0,0,0,.5.46,1.35,1.35,0,0,0,.67.21,1.26,1.26,0,0,0,.72,0l.43-.18a1.74,1.74,0,0,0,.64-.65l.19-.43a1.91,1.91,0,0,0,0-1Z"/><path d="M78.65,226.84a7.15,7.15,0,0,0,3.13,2.73,7.93,7.93,0,0,0,2.39.65,7,7,0,0,0,2.14-.11,1.78,1.78,0,0,0,1.07-.83,1.8,1.8,0,0,0,.19-1.38,1.84,1.84,0,0,0-2.22-1.26l-.32.05.48-.06a5.79,5.79,0,0,1-1.38,0l.48.06a6.4,6.4,0,0,1-1.41-.38l.43.18a6.08,6.08,0,0,1-1.26-.73l.36.28a6,6,0,0,1-1-1l.29.36c-.1-.13-.19-.26-.28-.4a1.8,1.8,0,0,0-3.11,1.82Z"/><path d="M65.48,232c7.85,7.91,19.15,9.55,29.7,10.89l-.91-3.35c-3.51,1.91-7.8,4-11.83,2.5-3.51-1.28-6.26-4.51-8.25-7.55-1.26-1.93-4.38-.13-3.1,1.82,2.53,3.86,5.94,7.62,10.4,9.2,5,1.77,10.25-.5,14.59-2.87,1.73-.94.72-3.14-.9-3.35-9.57-1.22-20-2.66-27.15-9.84-1.63-1.65-4.18.9-2.55,2.55Z"/><path d="M54.11,211.56a3.22,3.22,0,0,0-3.83-.55,3.89,3.89,0,0,0-2,3.29,6.75,6.75,0,0,0,.52,3.1,8.87,8.87,0,0,0,1.93,3,1.8,1.8,0,0,0,2.55-2.55c-.12-.12-.24-.25-.35-.38s-.24-.29-.05,0,0,0,0-.07a7.08,7.08,0,0,1-.53-.88l-.09-.18c-.16-.34.16.4,0,0l-.15-.44a6.27,6.27,0,0,1-.24-1l.06.47a5,5,0,0,1,0-1.09l-.06.48a3.61,3.61,0,0,1,.12-.57c.09-.33-.2.33,0,.07a1.4,1.4,0,0,1,.1-.16l-.14.17c.06,0,.29-.25,0-.05s0,0,0,0c.3-.19-.28.07-.13,0l.28-.06-.48.06a1.85,1.85,0,0,1,.47,0l-.48-.06.15,0c.27.05-.36-.18-.18-.08s.22.15,0,0-.07,0,0,0a1.81,1.81,0,0,0,2.54,0,1.85,1.85,0,0,0,0-2.55Z"/><path d="M117.2,230.74c.18.06.3.2,0,0,.09.06.19.1.28.15l.27.16c.26.17-.24-.2-.08-.05a5.14,5.14,0,0,1,.41.4l.14.16-.16-.2a2.4,2.4,0,0,0,.18.26l.15.28,0,.09c.08.17.06.13-.06-.14a3.86,3.86,0,0,0,.17.55,1.84,1.84,0,0,0,0,.25c0-.3,0-.36,0-.16v.1a1.61,1.61,0,0,1,0,.31.86.86,0,0,1,0,.16c0,.14,0,.07,0-.22a4.75,4.75,0,0,0-.14.57c-.13.38.1-.19,0,0l-.12.24c0,.09-.12.18-.17.27-.19.32.27-.3,0,0l-.45.46c-.23.22.25-.17.07,0l-.27.18-.23.13-.19.09.24-.09c-.21,0-.4.14-.61.18l-.11,0,.17,0a1.15,1.15,0,0,0-.32,0,1.8,1.8,0,0,0,0,3.6,5.67,5.67,0,0,0,1.67-11.08,1.8,1.8,0,0,0-2.21,1.26,1.84,1.84,0,0,0,1.26,2.21Z"/><path d="M83.2,187c5.09-1.66,10.61-2.13,15.73-.32a16.23,16.23,0,0,1,9.57,8.64,1.86,1.86,0,0,0,2.21,1.26,1.81,1.81,0,0,0,1.26-2.21,20.09,20.09,0,0,0-11.38-10.9c-5.83-2.31-12.48-1.85-18.35.06-2.19.71-1.25,4.19,1,3.47Z"/><path d="M95.23,181.69a45.16,45.16,0,0,1,1.22-5.86c.34-1.21.65-3,1.83-3.74s3.3-.73,4.75-.81a14.08,14.08,0,0,1,5.4.61c2.62.89,4.85,3.22,4.59,6.13a11.83,11.83,0,0,1-1.79,4.7c-.6,1-1.4,2.48-2.75,2.32a1.81,1.81,0,0,0-1.8,1.8,1.85,1.85,0,0,0,1.8,1.8c3.54.42,5.78-3.57,7-6.3,1.47-3.34,1.7-7-.59-10.07a12.28,12.28,0,0,0-8.74-4.52,24.66,24.66,0,0,0-5.82.2,8.27,8.27,0,0,0-4.85,1.79c-1.42,1.32-2,3.33-2.48,5.14a50.94,50.94,0,0,0-1.35,6.81,1.81,1.81,0,0,0,1.8,1.8,1.85,1.85,0,0,0,1.8-1.8Z"/><path d="M96.61,178.73a15.63,15.63,0,0,0,14.45-.83,1.8,1.8,0,1,0-1.82-3.1,11.91,11.91,0,0,1-10.81.82,1.85,1.85,0,0,0-2.46.64,1.82,1.82,0,0,0,.64,2.47Z"/><path d="M76.06,291.8c10.19-9.36,25.19-5.27,36.05.43,2,1.08,3.87-2,1.82-3.11-6.68-3.51-14-6.33-21.6-6.49a26.86,26.86,0,0,0-18.81,6.62c-1.71,1.57.84,4.12,2.54,2.55Z"/><path d="M190.06,294.76a26.33,26.33,0,0,1,11.41-11.11l-2.64-1.08a11.67,11.67,0,0,1,.59,4.39,1.75,1.75,0,0,0,.89,1.55c5.82,2.8,10.86-1.58,14.44-5.78l-3-1.75c-.28,1.79-.5,3.7.51,5.32a5.36,5.36,0,0,0,3.54,2.36c3.59.73,6.42-1.61,8.8-4l-3.08-1.27a7.51,7.51,0,0,0,2.7,5.42c1.8,1.7,3.83,3.18,5.74,4.75s4.34-1.08,2.55-2.55c-1.63-1.33-3.27-2.63-4.87-4-1.11-.94-2.52-2.06-2.52-3.64a1.82,1.82,0,0,0-3.07-1.28c-1.28,1.29-2.83,3-4.8,3.09s-2.3-1.54-2-3.28c.24-1.57-1.71-3.27-3-1.75-2.27,2.67-6,7.17-10.07,5.23L203,287a14.71,14.71,0,0,0-.72-5.35,1.84,1.84,0,0,0-2.65-1.07,29.74,29.74,0,0,0-12.7,12.4c-1.1,2,2,3.86,3.11,1.82Z"/><path d="M314.67,289.44c.13-2.58,4.46-3.71,6.39-4.29a31.68,31.68,0,0,1,19.51.48,27.69,27.69,0,0,1,4.32,1.91c1.25.69,2.61,1.47,2.94,3,.5,2.26,4,1.3,3.47-1-.87-4-5.6-5.83-9-7.1a34.89,34.89,0,0,0-11.87-2.19,34.21,34.21,0,0,0-11.91,1.95c-3.4,1.21-7.26,3.15-7.46,7.24-.11,2.31,3.49,2.31,3.6,0Z"/><path d="M307,131.83l4.06,5.61c1.06,1.47,2,3.3,3.86,3.92s4.1.5,6,.65l6.67.51,6.68.5c1.85.15,4,.59,5.79,0s2.81-2.26,3.87-3.67l4.06-5.35a1.81,1.81,0,0,0-.65-2.46,1.84,1.84,0,0,0-2.46.64l-3.33,4.4c-.78,1-1.7,3-3.12,3.09a34.29,34.29,0,0,1-5.15-.35l-5.69-.43-5.43-.42c-1.84-.14-3.79-.12-5.6-.43-1.38-.24-2.24-2.2-3-3.25l-3.48-4.8c-1.35-1.86-4.47-.07-3.11,1.81Z"/><path d="M180.15,130.47a21.32,21.32,0,0,1-.08,6.23,21.81,21.81,0,0,1-.77,3.09c-.34,1.06-.91,2.09-1.15,3.18a4.37,4.37,0,0,0,.39,3.25,8.82,8.82,0,0,0,2.09,2.09l5.4,4.53a1.84,1.84,0,0,0,2.83-.36c1.15-1.68,1-3.66.88-5.58a3.91,3.91,0,0,1,.34-2.34,8.25,8.25,0,0,1,2.08-1.77,10.78,10.78,0,0,0,4.14-10.66,1.8,1.8,0,0,0-3.48,1,6.94,6.94,0,0,1-.72,4.45c-.88,1.63-2.29,2.45-3.67,3.59a6.31,6.31,0,0,0-2.31,4.85c-.05,1.51.55,3.36-.37,4.69l2.83-.37-4.94-4.13c-.55-.46-1.68-1.09-2-1.75s.38-1.69.61-2.26a23.76,23.76,0,0,0,1.49-11.68,1.87,1.87,0,0,0-1.8-1.8,1.81,1.81,0,0,0-1.8,1.8Z"/><path d="M227.86,129.93a7.27,7.27,0,0,0,1,5,31.92,31.92,0,0,1,2.64,4.37c1.3,3.43.48,7.3-.24,10.76l3.47.95c.61-3.49,4.6-5.28,6.68-7.86,3.22-4,2.7-9.14,1-13.67a1.84,1.84,0,0,0-2.21-1.26,1.82,1.82,0,0,0-1.26,2.22,15.75,15.75,0,0,1,1.23,6.56,7.37,7.37,0,0,1-2.39,4.78c-2.5,2.49-5.88,4.52-6.54,8.28a1.85,1.85,0,0,0,1.26,2.21,1.81,1.81,0,0,0,2.21-1.26c.77-3.72,1.5-7.61.62-11.38a14.37,14.37,0,0,0-2.27-4.81c-.72-1.06-2-2.54-1.77-3.93a1.85,1.85,0,0,0-1.25-2.21,1.81,1.81,0,0,0-2.22,1.25Z"/><path d="M77.05,130.6c1.27,3.55,4.72,5.24,8,6.48a31.6,31.6,0,0,0,10.67,2,32.62,32.62,0,0,0,10.73-1.67,31.89,31.89,0,0,0,5.19-2.27,9.71,9.71,0,0,0,4.17-3.62c1.09-2-2-3.86-3.11-1.82-.69,1.29-2.17,2-3.41,2.62a27.34,27.34,0,0,1-4.18,1.75,29.48,29.48,0,0,1-9,1.41,28.6,28.6,0,0,1-9-1.44c-2.25-.74-5.77-1.89-6.66-4.37-.77-2.17-4.25-1.23-3.47,1Z"/><path d="M186.92,195.76a182.41,182.41,0,0,0,1.26,30.55c.64,5.06,1.47,10.1,2.52,15.1.53,2.49,1.1,5,1.74,7.45.5,2,.89,4.22,2,6a6,6,0,0,0,5.25,2.74c2.52.07,5.07-.09,7.59-.15l7.84-.17a50.2,50.2,0,0,0,7.15-.31,5.68,5.68,0,0,0,4.49-3.43,42.23,42.23,0,0,0,1.79-6.93q1.72-7.56,3.08-15.18a316.32,316.32,0,0,0,4.16-34.59c.15-2.31-3.45-2.3-3.6,0-.62,9.5-1.65,19-3.15,28.38q-1.12,7.05-2.57,14c-.49,2.38-1,4.74-1.55,7.1-.26,1.1-.52,2.2-.79,3.29a9.67,9.67,0,0,1-.83,2.82c-.89,1.47-3.55,1.11-5,1.14l-7.36.16-7.11.16c-1.12,0-2.25.06-3.38.07a4,4,0,0,1-2.44-.41c-1.35-1-1.61-3.72-2-5.21q-.9-3.47-1.66-7c-1-4.59-1.81-9.23-2.44-13.89a180.92,180.92,0,0,1-1.41-31.73c.1-2.31-3.5-2.31-3.6,0Z"/><path d="M206.28,213.48l-2.87,15.41a1.83,1.83,0,0,0,2.65,2,26.81,26.81,0,0,1,6.82-1.91,1.8,1.8,0,0,0,1.26-2.21,1.85,1.85,0,0,0-2.21-1.26,29.46,29.46,0,0,0-7.69,2.27l2.64,2,2.87-15.41a1.84,1.84,0,0,0-1.25-2.21,1.82,1.82,0,0,0-2.22,1.25Z"/><path d="M203,242.07l9.52-3,4.76-1.48,2.2-.69a4.55,4.55,0,0,0,1-.3c.43-.24.32.11.08-.15l-.28-2.18c-1.33,1.91-3.05,3.86-5.34,4.59-1.66.53-3.79,1-4.71-.86-1-2.07-4.15-.25-3.11,1.81,1.58,3.16,5.15,3.51,8.23,2.68,3.51-.94,6-3.51,8-6.41a1.82,1.82,0,0,0-.29-2.18c-1.22-1.37-3-.95-4.55-.47L213,235.17l-11,3.43c-2.21.68-1.26,4.16,1,3.47Z"/><path d="M199.16,207.12a4.29,4.29,0,0,1-.14-.62l.06.48a4,4,0,0,1,0-1.09l-.06.48a3.82,3.82,0,0,1,.26-1l-.18.43a1.42,1.42,0,0,1,.08-.18h-3.11a3,3,0,0,1,.28.49l-.18-.43a2.66,2.66,0,0,1,.18.67l-.06-.48a3.14,3.14,0,0,1,0,.75l.07-.48a2.66,2.66,0,0,1-.18.67l.18-.43a3,3,0,0,1-.16.31,1.82,1.82,0,0,0-.18,1.39,1.81,1.81,0,0,0,.82,1.07,1.83,1.83,0,0,0,1.39.19,2,2,0,0,0,1.08-.83,5.46,5.46,0,0,0,.34-.74c0-.13.09-.26.13-.4a7.72,7.72,0,0,0,.12-.82,1.89,1.89,0,0,0,0-.41,5.7,5.7,0,0,0-.1-.83,2.34,2.34,0,0,0-.09-.38,4.35,4.35,0,0,0-.54-1.13,1.81,1.81,0,0,0-.65-.64,1.76,1.76,0,0,0-1.81,0,1.81,1.81,0,0,0-.65.64,6.45,6.45,0,0,0-.44,1.13,7.37,7.37,0,0,0-.17,1.16,3.67,3.67,0,0,0,0,.74,6.86,6.86,0,0,0,.22,1.2,1.9,1.9,0,0,0,.83,1.08,1.84,1.84,0,0,0,1.38.18,1.8,1.8,0,0,0,1.08-.83,1.82,1.82,0,0,0,.18-1.39Z"/><path d="M220.53,207l.27-1.74-.46.8,0,0-.36.28a.57.57,0,0,1,.13-.08l-.43.18.15,0-.48.07h.16l-.48-.07a.83.83,0,0,1,.21.06l-.43-.18a.84.84,0,0,1,.24.14l-.36-.28a1.53,1.53,0,0,1,.18.18l-.28-.36a1.16,1.16,0,0,1,.13.22l-.18-.43a.86.86,0,0,1,.06.23l-.06-.48a1.7,1.7,0,0,1,0,.39l.07-.47a2.76,2.76,0,0,1-.16.54l.18-.43a5.84,5.84,0,0,1-.35.65,1.35,1.35,0,0,0-.21.67,1.26,1.26,0,0,0,0,.72,1.33,1.33,0,0,0,.32.61,1.44,1.44,0,0,0,.51.47,1.8,1.8,0,0,0,1.38.18,1.91,1.91,0,0,0,1.08-.83,6,6,0,0,0,.3-.56,4.22,4.22,0,0,0,.37-1,3.56,3.56,0,0,0,0-1.49,2.23,2.23,0,0,0-.34-.79,2.76,2.76,0,0,0-.92-.92l-.18-.1A2.72,2.72,0,0,0,220,203a2.42,2.42,0,0,0-1.28,0,4.25,4.25,0,0,0-.49.21,2.48,2.48,0,0,0-.26.19l-.21.16-.28.36-.18.43,0,.18-.24,1.57a1.23,1.23,0,0,0,0,.71,1.32,1.32,0,0,0,.21.67,1.41,1.41,0,0,0,.46.51,1.32,1.32,0,0,0,.62.32,1.8,1.8,0,0,0,1.38-.18l.37-.28a1.89,1.89,0,0,0,.46-.8Z"/><path d="M197.7,193.15a9.65,9.65,0,0,0-2.79,1.32,10.81,10.81,0,0,0-1.34,1.09,10.57,10.57,0,0,0-1.14,1.35,1.8,1.8,0,0,0-.18,1.38,1.87,1.87,0,0,0,.83,1.08,1.82,1.82,0,0,0,1.39.18l.43-.18a1.81,1.81,0,0,0,.64-.65l.12-.16-.28.37a7.9,7.9,0,0,1,1.42-1.41l-.37.28a8.37,8.37,0,0,1,1.78-1l-.43.18a7.08,7.08,0,0,1,.88-.31,1.9,1.9,0,0,0,1.08-.83,1.88,1.88,0,0,0,.18-1.39,1.85,1.85,0,0,0-2.22-1.26Z"/><path d="M218.93,196.22l4.09,1.19a1.81,1.81,0,0,0,2.22-1.25,1.84,1.84,0,0,0-1.26-2.22l-4.1-1.19a1.8,1.8,0,1,0-.95,3.47Z"/><path d="M209.49,182.83a55.08,55.08,0,0,1-9.69,7.08l2.64,1.07a6.3,6.3,0,0,1-.5-3.48c.19-1.16-.81-2.8-2.22-2.21a21,21,0,0,0-9.82,8.25c-1.24,2,1.87,3.77,3.11,1.81a16.91,16.91,0,0,1,7.67-6.59l-2.21-2.21a9.73,9.73,0,0,0,.5,5.39,1.84,1.84,0,0,0,2.65,1.08A59.56,59.56,0,0,0,212,185.38c1.72-1.57-.84-4.11-2.54-2.55Z"/><path d="M188.14,215.66c-2.08-1.74-4.71-.43-5.45,2a14.33,14.33,0,0,0-.18,6.15A17.47,17.47,0,0,0,188,234c1.7,1.57,4.26-1,2.54-2.54a14,14,0,0,1-4.11-6.74,13.73,13.73,0,0,1-.49-3.88A9.9,9.9,0,0,1,186,219a4.34,4.34,0,0,0,.22-.67s0,0,0,0h-.05a.53.53,0,0,1-.57-.21,1.85,1.85,0,0,0,2.55,0,1.82,1.82,0,0,0,0-2.54Z"/><path d="M235,218.7c-.22.32-.45.34-.79.46l-.16,0c.18.05.21.05.1,0S234,219,234,219c-.18,0,.13-.16,0,0,0,0,0,.14,0,.24a2.94,2.94,0,0,1,0,.42c0,.3,0,.6-.08.9a22.44,22.44,0,0,1-.85,3.95,21,21,0,0,1-1.5,3.64c-.15.29-.31.57-.47.86s-.18.32-.29.48l-.09.11a2.54,2.54,0,0,1-.28.29c.12-.1-.08.06-.11.08-.32.23-.1,0,0,0s.72.25.34,0a1.82,1.82,0,0,0-2.46.64,1.85,1.85,0,0,0,.64,2.47c2.19,1.42,4.37-.58,5.41-2.4a25.77,25.77,0,0,0,2.54-6.2,25,25,0,0,0,.62-3.24,8.17,8.17,0,0,0,0-3.23,3.08,3.08,0,0,0-5.49-1.17,1.8,1.8,0,1,0,3.1,1.82Z"/><path d="M185.05,177.65c-2.41,3.13-4.83,6.24-7.22,9.37-2.13,2.77-4.07,5.83-3.47,9.47a22,22,0,0,0,1.8,5l2.36,5.45,4.8,11.12a1.82,1.82,0,0,0,2.47.64,1.84,1.84,0,0,0,.64-2.46l-4.31-10-2.16-5a34.65,34.65,0,0,1-2-4.87c-.8-3.1,1.63-5.83,3.39-8.11l6.77-8.78a1.81,1.81,0,0,0-.65-2.46,1.85,1.85,0,0,0-2.46.64Z"/><path d="M243.44,191.2c1.87.88,1.66,3.1,1.13,4.79a70.2,70.2,0,0,1-3,7.31q-3.18,7.22-6.77,14.23c-1,2.06,2.06,3.89,3.11,1.82q4.24-8.32,7.92-16.91c1.14-2.66,2.67-5.49,2.74-8.45a6.32,6.32,0,0,0-3.31-5.9c-2.08-1-3.91,2.12-1.81,3.11Z"/><path d="M206.8,170.32c1-.89,2.18-2.06,3.6-2.14s3,1,4.17,1.68q4.44,2.41,8.78,5,8.78,5.22,17.13,11.1c1.9,1.33,3.7-1.79,1.82-3.11q-9.31-6.56-19.16-12.29a89.88,89.88,0,0,0-9.68-5.29c-3.62-1.53-6.51.09-9.21,2.52-1.72,1.55.83,4.09,2.55,2.54Z"/><path d="M347.46,178.43a23.51,23.51,0,0,0-6.14-3.4,16.89,16.89,0,0,0-7.38-.54c-4.22.49-9.12,2-13-.55-1.93-1.28-3.74,1.83-1.81,3.11,3.87,2.57,8.56,2,12.89,1.31,2.46-.37,5-.76,7.48-.12a19.28,19.28,0,0,1,6.11,3.3c1.88,1.36,3.68-1.76,1.82-3.11Z"/><path d="M319.09,180a37.7,37.7,0,0,1-17.72-.9,1.82,1.82,0,0,0-1.76,3c2.49,2.65,4.9,5.42,7.53,7.92a23.5,23.5,0,0,0,8.82,5.24c7,2.45,14.37,4.36,21.8,3.69,2.29-.2,2.31-3.8,0-3.6-7,.63-13.84-1.15-20.42-3.41a20.63,20.63,0,0,1-8.12-4.92c-2.44-2.4-4.72-5-7.06-7.47l-1.75,3a41.71,41.71,0,0,0,19.64.9c2.27-.43,1.31-3.9-1-3.47Z"/><path d="M340.38,196.33a12.47,12.47,0,0,0,4,11.33,1.8,1.8,0,1,0,2.54-2.55,10.3,10.3,0,0,1-.89-.86l-.42-.5c.24.28-.08-.12-.15-.22a9.63,9.63,0,0,1-.64-1.06c-.1-.2-.2-.39-.29-.59s0-.12,0,0c0-.12-.09-.23-.13-.34-.14-.39-.26-.79-.36-1.19l-.12-.57c0-.1,0-.19-.05-.29.08.41,0,.07,0,0q-.06-.62-.06-1.23c0-.2,0-.39,0-.58l0-.37c0-.27-.07.44,0,0a1.86,1.86,0,0,0-1.26-2.22,1.82,1.82,0,0,0-2.21,1.26Z"/><path d="M344.15,214.47a9.55,9.55,0,0,1,4.79-3.15,8.26,8.26,0,0,1,2.75-.36h.41c.24,0,.27,0,.1,0,.23.07.24.05,0-.07a.39.39,0,0,1-.23-.19l0,.07c0,.12.06.24.08.36.06.3.1.61.15.92a18,18,0,0,1,.2,3.52,7.9,7.9,0,0,1-.62,2.64,4.42,4.42,0,0,1-1.64,2,3.32,3.32,0,0,1-1.26.49l-.12,0h-.4c-.23,0-.27,0-.12,0-.14,0-.27-.05-.4-.09a1.8,1.8,0,0,0-1,3.47,6.9,6.9,0,0,0,6.55-2,10.18,10.18,0,0,0,2.57-6.55,20.44,20.44,0,0,0-.26-4,5.38,5.38,0,0,0-1.17-3.34,4.61,4.61,0,0,0-3.52-.89,13.09,13.09,0,0,0-9.47,4.55,1.85,1.85,0,0,0,0,2.55,1.82,1.82,0,0,0,2.54,0Z"/><path d="M351.63,183.84c3.34-2.15,6.33,3,7.88,5.16,1.28,1.81,2.58,3.62,3.85,5.44a16.55,16.55,0,0,1,2.73,5.29c2,8.07-4.83,15.2-8.94,21.31-2.58,3.84-4.62,8-5,12.68-.19,2.31,3.41,2.3,3.6,0,.76-9.22,9.23-15.53,12.63-23.71,1.67-4,2.31-8.7.65-12.84a28.82,28.82,0,0,0-3.46-5.83c-1.39-2-2.78-3.93-4.18-5.89s-2.82-3.84-4.95-4.87a6.8,6.8,0,0,0-6.63.15c-1.94,1.25-.14,4.37,1.82,3.11Z"/><path d="M310.32,193.47a22,22,0,0,1,0,13.18c-1.17,3.73-3.71,8-8.18,7.74a1.81,1.81,0,0,0-1.55,2.71,23.12,23.12,0,0,0,14.76,10.69l-.8-3a39.49,39.49,0,0,1-4.73,4.86c-1.48,1.27-3.26,3-5.35,2.78-2.31-.21-2.29,3.39,0,3.6,2.68.23,4.9-1.41,6.88-3a38.73,38.73,0,0,0,5.75-5.7,1.82,1.82,0,0,0-.8-3,19.56,19.56,0,0,1-12.61-9L302.16,218c5.62.33,9.41-4.35,11.22-9.13a25.37,25.37,0,0,0,.41-16.35c-.68-2.2-4.16-1.26-3.47,1Z"/><path d="M303.53,235.84c3,2.77,5.88,5.95,9.27,8.23a10,10,0,0,0,4.86,1.78,13,13,0,0,0,5.86-1.29c4-1.65,7.94-3.34,11.91-5,3.15-1.33,7.18-2.45,8.82-5.77,1-2.07-2.08-3.89-3.11-1.81a5.68,5.68,0,0,1-2.86,2.47c-1.54.75-3.15,1.36-4.73,2L323,240.91a12.4,12.4,0,0,1-4.88,1.37A7.29,7.29,0,0,1,314,240.5c-2.8-2.16-5.3-4.8-7.89-7.2-1.7-1.58-4.25,1-2.55,2.54Z"/><path d="M316.73,211.06h-.09l.48.07-.13,0,.43.18-.11-.07.36.29a.52.52,0,0,1-.1-.11l.28.37a.54.54,0,0,1-.07-.13l.18.43a.35.35,0,0,1,0-.11l.06.47v-.1L316.67,214l.08,0-.48.07h.15l-.48-.07.14,0-.43-.18.13.07-.37-.28,0,0a1.23,1.23,0,0,0,.58.37,1.57,1.57,0,0,0,1.38,0,1.23,1.23,0,0,0,.58-.37l.29-.36a1.85,1.85,0,0,0,.24-.91l-.06-.48a1.81,1.81,0,0,0-.47-.8l0,0h0c-.11-.09-.25-.21-.37-.29l-.07,0,0,0h0l-.44-.18-.07,0a3.94,3.94,0,0,0-.55-.07h-.13l-.49.06-.08,0-.43.18a1.26,1.26,0,0,0-.5.47.86.86,0,0,0-.23.39,1.31,1.31,0,0,0-.16.7v.06a3.65,3.65,0,0,0,.07.52.2.2,0,0,0,0,.11,4.89,4.89,0,0,0,.2.48l0,.05a3.9,3.9,0,0,0,.31.4l0,0,0,0,.2.15.2.16.05,0c.15.08.39.16.48.2a.2.2,0,0,0,.11,0h0l.48.06h.09a1.41,1.41,0,0,0,.7-.15,1.59,1.59,0,0,0,.95-.95,1.41,1.41,0,0,0,.15-.7l-.06-.48a1.85,1.85,0,0,0-.46-.79l-.37-.28a1.8,1.8,0,0,0-.91-.25Z"/><path d="M320.52,206.45l.15.06-.43-.19a6,6,0,0,1,1.24.74l-.36-.28a6.15,6.15,0,0,1,1,1l-.28-.36a5.76,5.76,0,0,1,.73,1.25l-.19-.43a2.5,2.5,0,0,1,.15.38,1.87,1.87,0,0,0,.83,1.08,1.79,1.79,0,0,0,2.46-.65,1.76,1.76,0,0,0,.18-1.38,7.61,7.61,0,0,0-1.72-2.88,7.72,7.72,0,0,0-1.29-1.07,7.52,7.52,0,0,0-1.53-.76,1.74,1.74,0,0,0-1.39.18,1.8,1.8,0,0,0-.64,2.46l.28.36a1.78,1.78,0,0,0,.79.47Z"/><path d="M348.09,230.33A25.39,25.39,0,0,0,347.6,247c.69,2.2,4.17,1.26,3.47-1a22.14,22.14,0,0,1,.5-14.74,1.81,1.81,0,0,0-1.26-2.21,1.85,1.85,0,0,0-2.22,1.25Z"/></g></svg>