<svg xmlns="http://www.w3.org/2000/svg" viewBox="0 0 480 320"><defs><style>.cls-1{fill:#ffba01;}.cls-2{fill:#fff5dc;}</style></defs><g id="Layer_3" data-name="Layer 3"><path class="cls-1" d="M115.77,92.76A4.81,4.81,0,0,1,117,89.92c-1.17,1.09.05.65,1,.69a11.78,11.78,0,0,1,2,.24,9.16,9.16,0,0,0,1.5.46c-.29,0,2.15.71.12-.36-.11-.76-.35-.86-.69-.28-.59.4-.5.52.25.36,1.09.08.44-.47-.29-1.22-3.3-3.43-11.07-2.18-14.36.61a5,5,0,0,0-.78,6.06,11.54,11.54,0,0,0,4.39,3.72,11.5,11.5,0,0,1,3.69,2.49c1.66,2.16,4.28,3.25,6.84,1.8,2.11-1.21,3.44-4.71,1.79-6.84a20.45,20.45,0,0,0-5.14-4.85c-.43-.28-2.79-1.17-2.93-1.37l-.78,6.06c.17-.15-.92.67-.92.68a6.45,6.45,0,0,0,2-.2l1-.1-2.33-1.52c.08,0,1.18,1.55,1.35,1.73a8.69,8.69,0,0,0,8,2.8c5.84-1.29,10.9-8.72,7.7-14.38-2.78-4.93-9.4-6.26-14.62-5.83-6.25.52-9.88,6.06-10,12.09-.17,6.44,9.83,6.44,10,0Z"/><path class="cls-1" d="M110,111.78c.87.14,2.51,2.35,3.35,3.2,1.41,1.44,2.8,2.9,4.12,4.43a38.64,38.64,0,0,1,6.33,10.14c1.07,2.5,4.71,3,6.85,1.79,2.58-1.47,2.84-4.37,1.79-6.84a48.84,48.84,0,0,0-8.79-13.17c-2.74-3.07-6.64-8.53-11-9.19-6.29-1-9,8.68-2.65,9.64Z"/><path class="cls-1" d="M110,103.11q-9.14,0-18.26,0l-7.49.06c-.62,0-3.36-.09-2.58,0l1.19,9.14a18,18,0,0,0,2.64-.71c2.25-.57,4.51-1.09,6.79-1.54,5.23-1,12.85-2.87,17.75,0,5.56,3.26,10.6-5.38,5-8.64-6.86-4-15.48-2.76-23-1.47-4.7.81-10,1.53-14.31,3.71-3.67,1.87-3,8.39,1.19,9.14,3.74.67,7.7.28,11.48.26,6.51,0,13-.08,19.51,0s6.44-10,0-10Z"/><path class="cls-1" d="M191.77,145.22a26,26,0,0,1-11.2-1.87c-2.84-1.13-5.51-2.19-8.62-1.8-6.08.75-11.89,6.9-16.45,10.68-9.26,7.66-21.34,17.14-23.38,29.76-1,6.3,8.61,9,9.64,2.66,1.66-10.25,12-17.89,19.44-24.21,3.18-2.68,9.54-9.76,13.94-8.59,2.83.76,5.3,2.23,8.23,2.8a34.82,34.82,0,0,0,8.4.57c6.41-.29,6.45-10.29,0-10Z"/><path class="cls-1" d="M131.71,186.32c.13,9.17-2.33,24.29,6.86,30.11,3.36,2.13,7.34-.7,7.52-4.32a20,20,0,0,0-.46-3.93c-.38-2.94.18-5.61.62-8.52a149.3,149.3,0,0,0,1.65-19.34c.12-6.44-9.88-6.44-10,0A145.75,145.75,0,0,1,136,200.75c-.6,3.74.26,8.54.11,11.36l7.53-4.31c-1.51-1-1.69-6.15-1.74-8.79-.08-4.23-.11-8.46-.17-12.69-.08-6.43-10.08-6.45-10,0Z"/><path class="cls-1" d="M148.66,189.12c3.91-1.75,8-3.2,12-4.62,2.07-.73,4.55-2,6.74-2.24l-3.53-1.47c-1.76-1.84-.08.24.34.71a8.07,8.07,0,0,0,2,1.82c1.93,1.05,4,.7,5.92,0a81.79,81.79,0,0,0,7.87-4.12c3.84-2,8-3.78,11.38-6.52,4.32-3.51,6.16-8.57,7.64-13.77,1.77-6.2-7.88-8.84-9.64-2.65-1,3.35-1.85,6.81-4.73,9-2.14,1.66-4.86,2.73-7.25,4l-7,3.64c-.69.36-1.42.69-2.08,1.09-1.33.79-1.76.17.38,0l3.54,1.47q1,2.1,0-.19a10.15,10.15,0,0,0-1.3-1.56,5.67,5.67,0,0,0-4.87-1.33,20.92,20.92,0,0,0-4.49,1.23c-6.07,2.06-12.11,4.24-18,6.87s-.78,11.25,5,8.63Z"/><path class="cls-1" d="M168.24,159.36c3.4-.1,6.79-.13,10.19-.06,2.06,0,5.39-.53,7.13.6l-2.3-5.65c.93-3.09,2.37-1.23.33-1.44a15.39,15.39,0,0,0-3.47.6l-11.27,1.94c-5.4.93-11.9,1.05-16.9,3.44s-1.77,8.74,2.52,9.32c4.8.64,10.11-.2,14.93-.37l10.13-.34c1.14,0,2.33,0,3.46-.12.29,0,2,0,1-.11l-1.2-9.14c.88-.44-.9.28-1.18.36l-3.87,1.15L165,163.32l-13.92,4.13c-4,1.19-9,1.58-10.15,6.31a5.09,5.09,0,0,0,3.49,6.15c3.77.92,8-.14,11.78-.59,6.39-.78,12.81-1.6,19.12-2.92s3.63-11-2.66-9.64c-5.44,1.13-10.95,1.89-16.46,2.56-2.5.3-7.28,1.39-9.12.94l3.5,6.16.21-.9L147.3,179,172,171.68c5.19-1.54,11-2.58,15.86-5,3.6-1.8,3.08-8.54-1.2-9.14-10.57-1.49-21.62,2-32.17.58l2.53,9.32c-.83.39,1.08-.13,1.42-.19,1.58-.24,3.16-.54,4.73-.81l12.27-2.11c5.75-1,15.44-.65,17.48-7.41a5.11,5.11,0,0,0-2.3-5.65c-5.68-3.67-16-2.08-22.36-1.9s-6.45,10.17,0,10Z"/><path class="cls-1" d="M198.76,155.87a11.44,11.44,0,0,1,4.15-3.54c1.49-.69,4.55-.14,3-1.68l-1.46-3.53c-.39,3.16-2,6.48-2.57,9.71-.54,3-.91,6.07-1.27,9.11-.32,2.71-.61,5.43-.91,8.14-.14,1.18-.26,2.36-.4,3.55-.16,1.34-.92,1.53,0-.09l6.85-1.79c-.92-.49-2.15-2.45-3-3.54-2-2.55-3.88-4.07-2.81-7.26a48.44,48.44,0,0,1,5-11.09L196,151.34c0-.83-.06.85-.16,1.21a41.58,41.58,0,0,0-.74,4.84,68.13,68.13,0,0,0-.8,11.14c.19,6.42,10.19,6.45,10,0-.17-5.85,1.53-11.42,1.7-17.19.15-5.25-6.68-6.41-9.32-2.52a40.53,40.53,0,0,0-3.14,6.62c-1.54,3.53-4.1,7.71-4.21,11.62-.12,4.16,3,7.5,5.44,10.61,1.85,2.41,3.52,5.26,6.25,6.71a5.08,5.08,0,0,0,6.84-1.79c2-3.63,1.79-8.69,2.25-12.73a133.67,133.67,0,0,1,3.69-19.65c1.43-5.39-1.55-8.81-7.08-8.79a19.55,19.55,0,0,0-15,7.38c-4,5,3,12.1,7.07,7.07Z"/><path class="cls-1" d="M204.9,188.31c6.44,0,6.45-10,0-10s-6.44,10,0,10Z"/><path class="cls-1" d="M173.46,36.41a19.75,19.75,0,0,0-8.05,3.39c-2,1.48-5.16,3.87-3.42,6.69s6,.22,4.32-2.53l-.21-.33.26,1.93c.24-1.05,2.83-2.31,3.7-2.78a15.72,15.72,0,0,1,4.73-1.54c3.16-.57,1.82-5.39-1.33-4.83Z"/><path class="cls-1" d="M150.36,41.43c5.1-.45,10.07,2,15.14,2.46,6.4.59,6.36-9.42,0-10-5.18-.48-9.81-2.93-15.14-2.46-6.36.56-6.42,10.56,0,10Z"/><path class="cls-1" d="M145.71,48.41c4.18.11,9.73,1.22,13.47-1,5.51-3.32.49-12-5-8.64.79-.1.9-.14.34-.12-.4,0-.79,0-1.18,0l-2.53-.06-5.06-.13c-6.44-.17-6.44,9.83,0,10Z"/><path class="cls-1" d="M142.15,55.9c2.53-.75,5-1.11,6.5-3.55l-1.79,1.79c-.37.27-2.2,0-1.43.29a10.17,10.17,0,0,0,1.82.39c2.56.5,5.52-.72,6.15-3.49.56-2.47-.75-5.62-3.49-6.15a24.55,24.55,0,0,0-4-.74,6.69,6.69,0,0,0-6.09,3.13l3-2.3-3.35,1a5,5,0,0,0,2.66,9.65Z"/><path class="cls-1" d="M142.59,53.15c6.44,0,6.45-10,0-10s-6.44,10,0,10Z"/><path class="cls-1" d="M135.39,58.66c1.37,2.63,3.68,4.85,6.82,4.91a6.56,6.56,0,0,0,6.73-6.32,5.05,5.05,0,0,0-5-5,5.11,5.11,0,0,0-5,5v.19l.18-1.33a1.35,1.35,0,0,1-.11.34l.5-1.19a2.94,2.94,0,0,1,.94-1c.43-.29.49-.35.2-.18l1.19-.51a2.69,2.69,0,0,1-.55.17l1.33-.18a2.33,2.33,0,0,1-.59,0l1.33.18a1.58,1.58,0,0,1-.37-.11l1.2.51c-.72-.37.65.71.28.29l-.17-.18c-.26-.29-.13-.12.38.51-.18-.39-.45-.75-.65-1.13a5,5,0,0,0-6.84-1.79,5.12,5.12,0,0,0-1.79,6.84Z"/><path class="cls-1" d="M139.51,61.71a56.3,56.3,0,0,0,1.92,12c1.72,6.2,11.37,3.57,9.64-2.65a43.25,43.25,0,0,1-1.56-9.31,5.11,5.11,0,0,0-5-5,5,5,0,0,0-5,5Z"/><path class="cls-1" d="M201,47.05q-.69,12.68-1.76,25.33c-.54,6.41,9.47,6.37,10,0q1.08-12.66,1.76-25.33c.34-6.43-9.66-6.42-10,0Z"/><path class="cls-1" d="M207,49.94c.9,5.49-1.93,10.37-4.08,15.21-2.59,5.83,6,10.92,8.63,5,3.42-7.69,6.51-14.3,5.09-22.91-1-6.34-10.68-3.65-9.64,2.65Z"/><path class="cls-1" d="M203.94,79.6c6.44,0,6.45-10,0-10s-6.44,10,0,10Z"/><path class="cls-1" d="M100.41,200.28c-5.66,4.46-14,4.77-20.48,7.55-7.59,3.24-14.22,6.68-22.5,7.95-6.34,1-3.65,10.6,2.66,9.64a58.08,58.08,0,0,0,13.22-3.5c4.19-1.71,8.06-4.11,12.31-5.65,7.68-2.78,15.25-3.72,21.86-8.91,5.06-4-2.06-11-7.07-7.08Z"/><path class="cls-1" d="M103.65,209.18l6.15,3.67a5,5,0,1,0,5-8.63l-6.14-3.68a5,5,0,0,0-5,8.64Z"/><path class="cls-1" d="M105.66,206.54A210,210,0,0,1,71.37,216c-6.31,1.19-3.64,10.82,2.66,9.64a209,209,0,0,0,34.29-9.5c6-2.21,3.4-11.88-2.66-9.64Z"/><path class="cls-1" d="M77.88,226.72c6.88-.58,13.86-.88,20.65-2.12,6.33-1.15,3.65-10.79-2.65-9.64-5.91,1.07-12,1.25-18,1.76-6.36.54-6.42,10.55,0,10Z"/><path class="cls-1" d="M85.14,227.82a37.75,37.75,0,0,1,9.47,1.06c6.25,1.51,8.92-8.13,2.66-9.65a49.6,49.6,0,0,0-12.13-1.41c-6.43.06-6.45,10.07,0,10Z"/><path class="cls-1" d="M110.69,231.49c2.12-.17,4.25-.39,6.38-.49,2.44-.11-1.41-.89.13,0,1.13.62-.41,1.77-.08-.72l.69-2.52-.26.35,1.79-1.79-.43.2,2.53-.68a16.71,16.71,0,0,1-7.42-1.26,5.13,5.13,0,0,0-6.84,1.79c-1.28,2.19-.65,5.67,1.79,6.84,4.7,2.26,18,5.82,18.19-3.16.06-3.13-2.48-6.42-5.09-7.94-3.32-1.93-7.77-.86-11.38-.58a5.12,5.12,0,0,0-5,5c0,2.54,2.29,5.2,5,5Z"/><path class="cls-1" d="M100.5,233.25c.44,0,.88-.05,1.33-.05.29,0,.59,0,.88.06-.52-.08-.6-.09-.24,0s.87.18,1.29.31l.63.21c-.51-.23-.5-.22,0,0,2.36,1.13,5.51.73,6.85-1.8,1.17-2.23.72-5.63-1.8-6.84a17.73,17.73,0,0,0-9-1.9c-2.6.19-5.13,2.17-5,5,.11,2.55,2.21,5.2,5,5Z"/><path class="cls-1" d="M318.57,228.42c4-5,7.81-10.29,12.1-15,3.94-4.36,10.45-4.29,16-5.16q18.93-3,38-4.93c6.34-.65,6.41-10.65,0-10q-21.35,2.21-42.56,5.59c-5.94,1-12.13,1.38-16.76,5.65-5.21,4.81-9.36,11.29-13.8,16.81-4,5,3,12.09,7.07,7.08Z"/><path class="cls-1" d="M309.39,224.86c-2.82,17.5,25.81,16.83,36.35,14.26,9-2.19,17.92-4.62,26.88-6.94,7.14-1.85,15.91-2.7,20.2-9.44,3.46-5.45-5.19-10.47-8.63-5.05-1.27,2-4.67,2.37-6.77,2.92L369,222.78l-17.71,4.58c-5.45,1.41-11.11,3.36-16.78,3.53-1.48,0-15.73-2-15.51-3.37,1-6.29-8.62-9-9.64-2.66Z"/><path class="cls-1" d="M326.13,221.18c21.36-5,43-8.8,64.46-13.22,6.41-1.32,3.55-10.56-2.66-9.64-13.44,2-25.88,7.5-38.52,12.24l-19.54,7.29c-3.26,1.21-6.95,2.16-10,3.93-4.5,2.63-2.26,9,2.52,9.32,4,.29,8.82-1.78,12.66-2.74l25.9-6.47,25.55-6.39c4.13-1,9-1.58,12.78-3.61,4.8-2.56,2-8.81-2.52-9.32-8.75-1-19.45,2.26-26.34,7.42A54.63,54.63,0,0,1,352,219.36L332.8,225l6.33,4.82.09-.85-3.67,4.82c4.69-1.84,12.54-1,17.81-.8,8.55.31,16.28-.24,24.2-3.72,13.35-5.87,29.2-10.72,38.6-22.53,4-5-3.06-12.11-7.07-7.07-8.69,10.92-24.21,15.82-36.72,21-8,3.32-16.13,2.19-24.54,2.13-4.65,0-10.54-.39-14.94,1.34a5.33,5.33,0,0,0-3.67,4.82l-.09.85c-.36,3.26,3.48,5.66,6.33,4.82,11.89-3.48,26-5.64,36.19-13.07,4.9-3.58,8.89-6.81,15-8,3.21-.61,6.9-1.39,10.18-1l-2.53-9.32c.74-.39,0,.06-.36.1a17.94,17.94,0,0,0-2.27.57l-8.11,2-25.2,6.29-24.82,6.21-8.27,2.06a20.91,20.91,0,0,0-2.36.6c-.66.25-1.17-.07-.45,0l2.52,9.31c-.7.41,1.37-.61,1.87-.79l6.61-2.46,19.89-7.43c12.24-4.58,24.25-9.83,37.27-11.77l-2.66-9.64c-21.48,4.42-43.09,8.2-64.46,13.21-6.26,1.47-3.61,11.12,2.66,9.65Z"/><path class="cls-1" d="M394.6,225a32.13,32.13,0,0,0,5-2.89c2.14-1.5,3.34-4.44,1.8-6.84-1.37-2.13-4.55-3.4-6.84-1.8a32.65,32.65,0,0,1-5,2.9c-2.39,1.1-3.16,4.72-1.8,6.84A5.14,5.14,0,0,0,394.6,225Z"/><path class="cls-1" d="M377.42,223.42l6.87-2.36c2.47-.85,4.36-3.47,3.49-6.15-.79-2.45-3.5-4.4-6.15-3.49l-6.87,2.36c-2.46.84-4.36,3.47-3.49,6.15.79,2.44,3.5,4.4,6.15,3.49Z"/><path class="cls-1" d="M360.28,204.1a106.06,106.06,0,0,1,28.83-6.83c8.87-.72,18.16,4,25.21,9.23l-2.3-3,.28.91,1.29-4.87a12.42,12.42,0,0,1-4.06,2c-5.95,2.27-3.37,11.94,2.66,9.64,3-1.15,6.14-2.28,8.47-4.61a5,5,0,0,0,1.28-4.86c-1.49-4.84-7.12-6.55-11.24-8.78-5.16-2.8-10.17-5.4-16.13-5.82-12.2-.85-25.67,3.05-36.95,7.3-6,2.25-3.38,11.92,2.66,9.64Z"/><path class="cls-1" d="M386.7,203c5,.66,11.29,4.44,15,7.74,4.79,4.28,11.89-2.77,7.07-7.07-5.95-5.32-14.1-9.62-22.05-10.67-2.7-.36-5,2.55-5,5,0,3,2.33,4.64,5,5Z"/><path class="cls-1" d="M267.63,83.17c-6.27-.7-12.5.41-18.53,2.14-2.26.65-5,1.09-6.53,3.07-1.68,2.18-1,5-.73,7.51.33,3.58.55,7.2,1,10.77.26,2.08.88,4.07,2.85,5.2,4,2.3,10.62-.35,14.06-2.67,3.87-2.6,6.7-6.52,9.43-10.23,2-2.68,4.12-5.7,1.91-9-2.56-3.82-7.57-2.33-11.25-1.33-5,1.36-9.59,3.89-11.1,9.18-1.77,6.19,7.87,8.84,9.65,2.65.45-1.57,3.36-2,4.69-2.33a24.5,24.5,0,0,1,2.67-.6c.34,0,1.76,0,1,0L262.45,95l.31.48-.51-3.85c.26-.69-.72.92-.93,1.22-1,1.36-2,2.7-3.05,4-1.79,2.16-5.45,6.43-8.73,5.9l3,2.3c-.42-.56-.3-4.89-.39-5.81-.17-1.84-1.06-4.76-.82-6.47l-2.3,3c2.26-1.32,6.17-1.76,8.67-2.23a32.82,32.82,0,0,1,9.94-.33c6.39.7,6.34-9.3,0-10Z"/><path class="cls-1" d="M269.19,86.41c-.46,2.16-1.14,4.37-.62,6.57.92,3.88,5.67,4.57,8.36,2.21l.27-.23-3.54,1.46c-1.56-.15-.32.1.18.84a19.85,19.85,0,0,0,2,2c1.41,1.51,2.75,3.09,4.05,4.69a63.13,63.13,0,0,0,4.41,5.6,4.93,4.93,0,0,0,4.86,1.29l.34-.13a5.25,5.25,0,0,0,3.67-4.82,15.41,15.41,0,0,0-3.64-11.43A73.37,73.37,0,0,0,284.17,89a21.31,21.31,0,0,0-2.45-1.89,8.94,8.94,0,0,0-1.22-.73q-1.62-1.12.12.84c-1-2.52-3.3-4.24-6.15-3.49-2.36.62-4.52,3.65-3.49,6.15,2.64,6.4,12.65,8.08,12.18,16.07l3.67-4.82-.33.12,4.86,1.29c.65.64-.15-.11-.41-.41-.59-.7-1.11-1.48-1.67-2.21-1.73-2.25-3.5-4.48-5.4-6.6-3.42-3.82-8.86-9.67-14-5.15l8.36,2.2c.17.74-.43,1.76.14,1a9.4,9.4,0,0,0,.48-2.23c1.34-6.28-8.3-9-9.65-2.66Z"/><path class="cls-1" d="M289.57,113.71c6.44,0,6.45-10,0-10s-6.44,10,0,10Z"/><path class="cls-1" d="M336.05,90.49c1.54-.38,3.71-1.37,5.3-1.06s3.57,2.71,4.8,3.77c2.2,1.89,9.05,6.74,8.87,10-.36,6.43,9.64,6.41,10,0,.42-7.53-8-13.91-13.16-18.2-2.44-2-5.08-4.56-8.22-5.38-3.41-.9-6.94.44-10.25,1.24-6.25,1.52-3.61,11.17,2.66,9.65Z"/><path class="cls-1" d="M334.93,95.09c7.35,1.25,12.81,7.61,19.63,10.41,2.52,1,5.47-1.12,6.15-3.49.82-2.86-1-5.13-3.49-6.15-7-2.89-11.81-9.08-19.63-10.42-6.3-1.07-9,8.57-2.66,9.65Z"/><path class="cls-1" d="M329.14,82.19c-4-.33-7.93-.08-11.28,2.35a34,34,0,0,0-8,9C306.33,99,315,104,318.5,98.62A23.44,23.44,0,0,1,323.25,93c1.71-1.36,3.83-1,5.89-.78,6.42.53,6.38-9.47,0-10Z"/><path class="cls-1" d="M323.8,96.67c6.43,0,6.44-10,0-10s-6.45,10,0,10Z"/><path class="cls-1" d="M355.82,123.41c-1.75,3.2-3.61,6.32-5.62,9.36-1.67,2.53-3.25,4.71-3.22,7.88s1.74,5.88,3,8.72c1.83,4,2.91,7.81,2.45,12.29-.66,6.39,9.34,6.35,10,0,.64-6.17-1.27-11.8-3.81-17.34-.53-1.15-1.64-2.7-1.47-4,.14-1,1.6-2.36,2.18-3.23,1.83-2.79,3.51-5.67,5.12-8.6,3.08-5.65-5.55-10.7-8.64-5.05Z"/><path class="cls-1" d="M358.91,125.93a75.44,75.44,0,0,0-3.42,18.17,19.2,19.2,0,0,0,.67,8c1,2.67,3.1,4.26,3.13,7.27.07,6.43,10.07,6.44,10,0a16.32,16.32,0,0,0-1.14-6.23c-1.14-2.77-2.7-4-2.75-7.18-.09-5.84,1.41-11.8,3.16-17.32,1.95-6.15-7.7-8.78-9.65-2.66Z"/><path class="cls-1" d="M359.84,150.81c1.87,2.82,4.07,5.82,4.12,9.33.1,6.43,10.1,6.45,10,0-.08-5.41-2.57-10-5.48-14.38a5.11,5.11,0,0,0-6.84-1.79,5,5,0,0,0-1.8,6.84Z"/><path class="cls-1" d="M312.49,135.8c1.65,2.59,4.27,5.66,4.78,8.76.56,3.37-1.19,6.95-.87,10.4.58,6.3,5.5,10,10.65,12.88,5.64,3.11,10.69-5.53,5.05-8.64-2-1.08-5-2.34-5.72-4.68-.83-2.56.94-6.29.93-9,0-5.64-3.27-10.23-6.19-14.79-3.45-5.41-12.11-.4-8.63,5Z"/><path class="cls-1" d="M322.5,146.65a33.56,33.56,0,0,1,1.31,5,40.57,40.57,0,0,0,.86,6.31c1.22,4.16,4.48,5.34,8.22,6.64,6.09,2.11,8.7-7.54,2.65-9.64-.63-.22-1.26-.44-1.89-.68q-2.31-1,.67,1c.09-.09-.48-3.38-.51-3.65a44.44,44.44,0,0,0-1.67-7.67c-1.72-6.19-11.37-3.56-9.64,2.66Z"/><path class="cls-1" d="M343.73,140.88a34.11,34.11,0,0,0,.1,4.74,5.35,5.35,0,0,0,1.47,3.53,5.08,5.08,0,0,0,3.53,1.47c2.51-.12,5.25-2.22,5-5a34.11,34.11,0,0,1-.1-4.74,5,5,0,0,0-5-5,5.11,5.11,0,0,0-5,5Z"/><path class="cls-1" d="M324.16,145a59.83,59.83,0,0,0,.18,6c.21,2.6,2.15,5.13,5,5,2.53-.11,5.23-2.21,5-5a59.83,59.83,0,0,1-.18-6,5,5,0,0,0-5-5,5.09,5.09,0,0,0-5,5Z"/><path class="cls-1" d="M360.38,110.35c.62,0,2.24.44,1.28-.43.51.47.68,2.75.86,3.47.54,2.29,1.23,5-.49,7-2.09,2.43,1.43,6,3.54,3.54,3.19-3.7,2.72-8,1.64-12.41-.38-1.6-.57-3.68-1.74-5-1.38-1.51-3.28-1.15-5.09-1.25-3.22-.16-3.21,4.84,0,5Z"/><path class="cls-1" d="M362.12,118.22c-.1.62.09-.22.2-.2a5.14,5.14,0,0,0-.49.47l-1.07,1-2.13,1.93a2.5,2.5,0,1,0,3.54,3.53l2.6-2.35a5.55,5.55,0,0,0,2.17-3,2.56,2.56,0,0,0-1.74-3.07,2.53,2.53,0,0,0-3.08,1.74Z"/><path class="cls-1" d="M362.42,114.45c3.22,0,3.23-5,0-5s-3.22,5,0,5Z"/><path class="cls-1" d="M309.22,100.36c-.06,1.24-1.21,2.68-1.68,3.8a13.69,13.69,0,0,0-1,3.42c-.34,2.47.37,4.81.95,7.18.76,3.13,5.58,1.81,4.82-1.32-.68-2.79-1.27-5-.06-7.66.84-1.86,1.88-3.31,2-5.42.13-3.21-4.87-3.21-5,0Z"/><path class="cls-1" d="M313.5,131.29c3.22,0,3.22-5,0-5s-3.22,5,0,5Z"/><path class="cls-1" d="M403.4,95.33,395,103.17a49,49,0,0,1-4.61,4.1l3.85-.51c1.52.27.1-.26-.58-.54a7.8,7.8,0,0,0-3.1-.7,9.16,9.16,0,0,0-6.19,2.62c-2.28,2-6,6.26-8,7l3.85.51-.55-.31,2.3,3c-.16,2,.26,2,1.26-.13l2.31-3.15,3.46-4.73c2.49-3.41,4.92-6.88,7.49-10.24,4.64-6.08,10.37-2,15.93-1.12l-1.19-9.14c-3,1.85-9.84,3-13.79,5.31-3.73,2.22-8.37,7.64-4.6,11.82,4.26,4.7,14.23-1.43,19.16-1.55L408.4,104l.24.29-1.29-4.86c-.84,3.52.86,6.21,3.89,7.89,2.39,1.33,5.95,3.28,8.74,2.54,7.95-2.1,2-14.35.31-18.89-2.19-6-11.86-3.4-9.64,2.66.89,2.44,1.68,4.9,2.43,7.39a16.93,16.93,0,0,0,.86,2.92c.14.27.19,1.54.17.71l1.46-3.54-.46.39,4.87-1.28A20.6,20.6,0,0,0,417.05,99c-1.46-.28-1.55-1.94-.68,1.22,1.14,4.15.91.21.63-.83-1-3.71-4.72-4.26-8-3.68-4.62.83-9.08,2.61-13.74,3.26l4.87,1.29-.28-.36,1.28,4.86c-.44,1.13-.43.3.28-.1s1.38-1,2.26-1.41c1.85-.84,3.89-1.4,5.8-2.09a36.32,36.32,0,0,0,6.73-2.68c3.34-2,3.28-8.44-1.19-9.14-4.78-.75-8.26-3.12-13.36-2.68-5.6.49-9.44,2.48-12.84,7-4.45,5.92-8.75,12-13.13,17.93-2.57,3.53-6.33,9.05-1.13,12.4,3.4,2.19,6.41.08,9.1-2,1.82-1.38,4.09-2.81,5.54-4.58q.71-.64,1.35-1.35c-2.17-1.32-2.68-1.57-1.54-.73a10.42,10.42,0,0,0,2.56,1c3.52.61,5.72-1.72,8.06-3.9l10.84-10.1c4.72-4.4-2.36-11.46-7.07-7.07Z"/><path class="cls-2" d="M76.45,185.12c-12.2-1.71-24.2-2.93-36.27.35-4.81,1.3-11.08,2.59-12.93,7.68a67.73,67.73,0,0,0-3.63,18.55c-.14,1.93,1.63,4.54,3.67,4.82,6.92,1,13.67,3.58,20.55,4.36,6,.68,11.19-3.74,16.06-6.62a83.23,83.23,0,0,1,17.39-8.2,96.5,96.5,0,0,0,9.48-3.28c3.08-1.34,6.33-4.34,9.8-4,5.54.55,6.91-9,1.32-9.83-12.92-1.78-25.16-4.07-38.18-2.26-5.68.79-11.48,1.34-17.11,2.45-5.91,1.17-9.77,5-15.17,7.1l3.85,9.14c4-2.35,9.06-2.51,13.54-3.11q7.05-1,14.13-1.72c9.17-1,19-2.72,28.19-1.52l-1.33-9.82c-9,2.25-18,4.71-26.8,7.61a75.83,75.83,0,0,0-11.15,4.51c-2.38,1.21-4.46,2.78-7.28,2.59-2.64-.18-5.23-1.47-7.58-2.56l-2.53,9.31L56.19,209c6.38-.49,6.43-10.49,0-10l-21.72,1.64c-4.45.34-7.42,7-2.52,9.32,4.5,2.09,9.26,4.24,14.35,3.91,5.33-.35,9.5-3.72,14.29-5.65,10.2-4.11,21.23-6.74,31.88-9.4,5.93-1.48,3.86-9.14-1.33-9.82-10.4-1.36-21.69.76-32.06,2-9.21,1.07-20.71.93-28.84,5.76-4.69,2.79-1.59,11.29,3.85,9.14,4.47-1.77,8.21-5.19,12.8-6.55,5.09-1.51,10.76-1.77,16-2.51,5.49-.77,10.85-1.54,16.4-1,6.66.69,13.3,1.81,19.94,2.73l1.33-9.82c-6.31-.64-11.24,4.1-16.92,6.06-5.91,2-11.74,3.74-17.34,6.59-2.54,1.3-5,2.73-7.45,4.18s-5.84,4.47-8.64,5.12S44,209.59,41.34,209c-3.77-.9-7.56-1.56-11.4-2.09l3.68,4.82a63.71,63.71,0,0,1,3.58-16.77l-2.3,3c12.61-5.59,25.53-5,38.89-3.15,6.29.88,9-8.76,2.66-9.65Z"/><path class="cls-2" d="M64.53,78.66q-1.44,13.82-1.84,27.7c-.12,4.26,5.6,6.68,8.54,3.53,4.34-4.66,15.83-3,16.77-10.64.23-1.88-.71-3.46-1-5.25a34.41,34.41,0,0,1-.16-6.42c0-4.4.82-9.55-.26-13.83a4.9,4.9,0,0,0-3.49-3.5c-3.89-.61-5,1.74-8.39,2.54s-6.47-.06-9.8,1.85C60.74,77,62.31,84.34,67.38,84c-1,.07-.07,11-.07,12.6,0,3.83-.58,7.47,1.42,10.89s8.46,3.24,9.14-1.19a25.28,25.28,0,0,0,.4-5.06c-.22-6.42-10.22-6.45-10,0l0,2.4,9.14-1.2c-1.16-2-.05-7.37-.11-9.66a90.74,90.74,0,0,0-.66-9.89c-.67-4.95-3.74-9.3-9.22-8.89l2.53,9.32c1.9-1.09,5.27-.28,7.45-.84a22.08,22.08,0,0,0,6.24-3.15l-3.85.51.64.1L76.9,76.4c.94,3.76-.09,9.1-.11,13a34.25,34.25,0,0,0,1.48,10.51l.5-3.85c1.47-.81,1.38-.92-.29-.32q-1.37.35-2.7.72a41.46,41.46,0,0,0-4,1.3,20.2,20.2,0,0,0-7.67,5.06l8.53,3.54q.41-13.89,1.84-27.7c.67-6.39-9.33-6.34-10,0Z"/><path class="cls-2" d="M160.61,134.58c-3.94,1.47-6.43,4-9.39,6.9a67.11,67.11,0,0,1-11.74,9l7.34,3c-.42-1.16-3.45-6.46-2.8-7.42l-4.32,2.48c2.7,0,5.39.91,8.15.8a31.43,31.43,0,0,0,8.6-1.61c6.09-2,3.48-11.65-2.66-9.64a20.87,20.87,0,0,1-9.72,1.08c-2.81-.4-5.56-1.42-7.9.83-4.69,4.5-.69,11.41,1,16.14,1.06,2.95,4.41,4.78,7.34,3a80.58,80.58,0,0,0,10.19-7.32c2.6-2.19,5.34-6.36,8.56-7.56,6-2.22,3.39-11.89-2.66-9.65Z"/><path class="cls-2" d="M99.42,190.83A57.44,57.44,0,0,0,124.76,203c4.52.89,7.46-3.31,5.65-7.34-3.46-7.71,1-17.49,5.21-23.95,2.67-4.11-2.7-9.63-6.84-6.84-4.62,3.12-7.78,7.23-11,11.7-1.38,1.9-8.38,11.37-11.61,8.24l-1,7.86c2.74-1.83,7.74-.32,11.05-1.3,6.16-1.83,3.54-11.48-2.66-9.65-4.63,1.38-9-.61-13.44,2.31a5.08,5.08,0,0,0-1,7.86c5.28,5.1,13,3.46,18.47-.56,6.6-4.88,9.53-13.26,16.29-17.82L127,166.64c-6.49,10-10.3,22.69-5.21,34l5.64-7.34a47.13,47.13,0,0,1-20.93-9.57c-4.95-4-12.07,3-7.07,7.07Z"/><path class="cls-2" d="M134.84,223.79c1.9,4.34,1.84,9.18,3.88,13.42,1.17,2.43,4.65,3.08,6.84,1.79a5.11,5.11,0,0,0,1.8-6.84c-.87-1.8-.81-4.24-1.28-6.18a45.66,45.66,0,0,0-2.61-7.24c-1.08-2.47-4.7-3-6.84-1.79-2.55,1.49-2.88,4.35-1.79,6.84Z"/><path class="cls-2" d="M139,159.14c.06-.23-.1.1-.21.2l-.68.65-1.54,1.47-2.9,2.78c-2.33,2.23,1.21,5.76,3.54,3.54l3.58-3.44c1.21-1.15,2.55-2.2,3-3.87.88-3.1-3.94-4.42-4.82-1.33Z"/><path class="cls-2" d="M127.26,207c1.86,2.25,4,4.46,5.33,7.1,1.24,2.49,1.64,5.46,2.29,8.15.74,3.13,5.57,1.81,4.82-1.33s-1.29-6.45-2.79-9.35-4-5.54-6.12-8.1-5.57,1.07-3.53,3.53Z"/><path class="cls-2" d="M262,187.42c11.82,22.3,9.8,48.74,15.54,72.76,1.5,6.25,11.14,3.6,9.65-2.66-6-25.06-4.2-51.83-16.55-75.15-3-5.68-11.65-.64-8.64,5Z"/><path class="cls-2" d="M267.69,189.49l9.83,13.92c1.56,2.21,4.13,4.81,5.14,7.32s.45,5.94.44,8.39A168.48,168.48,0,0,1,279,255c-1.39,6.27,8.25,8.95,9.65,2.66a181.15,181.15,0,0,0,4.42-40.46c0-2.75.15-5.68-.53-8.37s-2.57-5-4.22-7.38l-12-17c-3.69-5.22-12.36-.23-8.63,5Z"/><path class="cls-2" d="M272.06,202.42a122.14,122.14,0,0,1,3.88,45.22c-.64,6.39,9.36,6.35,10,0a130,130,0,0,0-4.24-47.88c-1.73-6.19-11.38-3.56-9.64,2.66Z"/><path class="cls-2" d="M284.37,269.34c6.44,0,6.45-10,0-10s-6.44,10,0,10Z"/><path class="cls-2" d="M313.8,168.94c-.22,5.15-3.26,9.79-3.65,15-.24,3.26,3.39,5.67,6.33,4.83a53.89,53.89,0,0,1,10.84-2c3.49-.27,7-1.12,7.58-5.21.5-3.43-1.79-5.18-3.56-7.68s-2.64-5.66-5.16-7.85l-7.08,7.07c1.91,1.5,3.81,3,5.68,4.57,1.31,1.09,4.12,2.61,4.54,4.32,1.53,6.25,11.17,3.6,9.64-2.66-1.43-5.85-8.35-9.82-12.78-13.3-4.94-3.89-12,2.78-7.08,7.07,1.49,1.29,2,3.14,3,4.82a21,21,0,0,0,1.76,2.55l.74,1c1.31,1.83,1.52,1,.65-2.42l3-2.3c-4.82,1-9.61,1-14.41,2.39l6.33,4.82c.38-5.19,3.42-9.7,3.65-15,.26-6.44-9.74-6.43-10,0Z"/><path class="cls-2" d="M341,159l4.5-.29-5-5a9.16,9.16,0,0,0,.83,4.49c.53,1.14,1.47,1.93,2.05,3l-.51-3.85c-.54,3.78-2.13,7.61-3.22,11.27-1.85,6.18,7.8,8.82,9.64,2.66,1-3.26,2.12-6.52,2.93-9.81a7.69,7.69,0,0,0,0-4.72,6.74,6.74,0,0,0-1-1.83,3.45,3.45,0,0,0-.71-.81c-.42-.22-.43-.36,0-.41a5,5,0,0,0-5-5L341,149c-6.39.41-6.43,10.41,0,10Z"/><path class="cls-2" d="M338.6,162.45c0,.73-2.71,2.16-3.29,2.59a12.48,12.48,0,0,0-4.94,6.76c-1.66,6.23,8,8.88,9.64,2.66.43-1.59,3.39-2.87,4.63-3.93a10.89,10.89,0,0,0,4-8.08c.2-6.44-9.8-6.43-10,0Z"/><path class="cls-2" d="M336.62,174.16c6.43,0,6.44-10,0-10s-6.45,10,0,10Z"/><path class="cls-2" d="M341.44,170.94c6.43,0,6.44-10,0-10s-6.45,10,0,10Z"/><path class="cls-2" d="M343.25,161.28c-.48,2.86-1.14,5.54.91,7.93a18,18,0,0,0,8.26,4.8c3.76,1,6.14-.72,9.72-1.09s6.65,1,10.2.36c6.33-1.08,3.65-10.72-2.66-9.65-3.19.55-6.37-1.06-9.68-.46-3.52.65-5.74,2.12-8.77-1l1.46,3.53a5.65,5.65,0,0,1,.2-1.73c1.06-6.29-8.58-9-9.64-2.66Z"/><path class="cls-2" d="M338.89,182.07c5.23-1.87,11.61-1.69,17.11-2.54,5.22-.81,10.24-1.67,15-4.13,5.72-3,.66-11.61-5-8.64-9.1,4.74-20.28,2.3-29.69,5.67-6,2.15-3.42,11.81,2.66,9.64Z"/><path class="cls-2" d="M373.73,159.52a35.23,35.23,0,0,1,4.9,4.63c1.41,1.76,1.79,3.81,2.73,5.82l4.31-7.52a23.63,23.63,0,0,0-6.05.46,19.86,19.86,0,0,0-2.73.8c-.59.21-2.37.36-1.14.78l3.49,3.49-.13-.41v2.66c.32-2.07,1.88-4,2.26-6.18.45-2.66-.71-5.38-3.5-6.15-2.4-.66-5.69.82-6.15,3.49-.35,2.07-1.61,3.53-2.15,5.51-.76,2.78.2,5.76,2.92,7,2.19,1,4.49.44,6.63-.36a15.32,15.32,0,0,1,6.55-1.07c4.11.22,5.81-4.33,4.32-7.52-1.13-2.44-1.77-4.66-3.5-6.85a38.83,38.83,0,0,0-5.69-5.63,5.14,5.14,0,0,0-7.07,0c-1.79,1.79-2.07,5.32,0,7.07Z"/><path class="cls-2" d="M436.15,171.12a84.09,84.09,0,0,0-16.25,3.14c-5.15,1.55-4.5,10.41,1.33,9.82-1.37.14-.64-.16.37,1.2.78,1.05,1.73,2,2.58,3l5.82,6.81L441,208c4.19,4.9,11.24-2.2,7.07-7.07l-14.22-16.63c-3.11-3.64-7-10.76-12.61-10.18l1.33,9.82a70.81,70.81,0,0,1,13.59-2.78c6.35-.63,6.41-10.64,0-10Z"/><path class="cls-2" d="M431.44,182.31c3.14,7.11,3.94,15,6.64,22.24,2.22,6,11.89,3.39,9.64-2.66-3-8.12-4.13-16.67-7.64-24.63-2.6-5.87-11.22-.79-8.64,5.05Z"/><path class="cls-2" d="M446.52,212.78c6.44,0,6.45-10,0-10s-6.44,10,0,10Z"/><path class="cls-2" d="M53.24,6.17C42.53,38.86,42.32,73.67,34.17,106.93c-1.53,6.25,8.11,8.92,9.64,2.66C52,76.33,52.17,41.51,62.88,8.83c2-6.13-7.64-8.76-9.64-2.66Z"/><path class="cls-2" d="M32.17,111c-5.41,17-7.58,34.89-10.52,52.42l-9,53.78c-1.06,6.3,8.58,9,9.64,2.66l9-53.78c2.94-17.53,5.11-35.44,10.52-52.42,2-6.15-7.69-8.78-9.64-2.66Z"/><path class="cls-2" d="M60.24,14.07c7.55-.19,14.84,1.82,22.16,3.42l22,4.82L148.32,32c6.27,1.37,9-8.26,2.66-9.64L105.12,12.25l-22.92-5c-7.26-1.59-14.49-3.33-22-3.15-6.43.15-6.45,10.15,0,10Z"/><path class="cls-2" d="M149.52,30.13l72.2,15.7c6.27,1.37,8.95-8.27,2.66-9.64l-72.2-15.7c-6.27-1.37-9,8.27-2.66,9.64Z"/><path class="cls-2" d="M221.65,44a146.41,146.41,0,0,1,18.76,4c6.2,1.78,8.84-7.87,2.66-9.64a145.09,145.09,0,0,0-18.76-4c-2.69-.4-5.34.67-6.15,3.49-.68,2.35.82,5.76,3.49,6.15Z"/><path class="cls-2" d="M235.24,43.79l-14.12,79.85c-1.12,6.3,8.52,9,9.64,2.66l14.13-79.85c1.11-6.29-8.52-9-9.65-2.66Z"/><path class="cls-2" d="M221.11,126q-10.92,48.09-18.32,96.87c-.95,6.29,8.68,9,9.65,2.66q7.4-48.76,18.32-96.87c1.42-6.27-8.22-8.94-9.65-2.66Z"/><path class="cls-2" d="M200.73,223.82l-14.66,65.94c-1.39,6.27,8.25,8.94,9.65,2.65l14.66-65.93c1.39-6.27-8.25-8.95-9.65-2.66Z"/><path class="cls-2" d="M11.58,227.79c-1,9.62-6.13,18-7.08,27.71-.63,6.4,9.38,6.36,10,0,.95-9.62,6.11-18,7.08-27.71.63-6.4-9.37-6.36-10,0Z"/><path class="cls-2" d="M19.19,246.16q42,8,83.81,16.44c7.66,1.56,16.57-2.2,18.45-10.47,1.7-7.48-2.26-16.78-10.48-18.45q-41.85-8.51-83.81-16.45c-7.68-1.45-16.55,2.14-18.45,10.48C7,235.1,10.94,244.6,19.19,246.16Z"/><path class="cls-2" d="M104,261.41c25.83,4.9,50.81,15.82,77.58,14.06,7.82-.51,15.38-6.53,15-15-.34-7.68-6.61-15.55-15-15-12.22.81-21.87-1-33.83-4s-23.68-6.67-35.78-9C104.27,231,95.4,234.62,93.5,243c-1.68,7.39,2.23,16.89,10.48,18.45Z"/><path class="cls-2" d="M22.66,262.5c5.76-.21,10.65,1,17.24,3.26,6.41,2.16,12.7,4.78,19.31,6.29,7.34,1.69,15,2.3,22.47,3.15,9,1,17.93,2,26.87,3.14-3.92-.52,2,.31,3.17.5,1.8.28,3.59.58,5.37.92a46.76,46.76,0,0,1,8.42,2.2c7.32,2.9,16.79-3.16,18.45-10.47,2-8.65-2.64-15.35-10.47-18.45-6.2-2.46-13.26-3.11-19.81-4-10.27-1.41-20.57-2.53-30.87-3.7l-6-.7-3-.37c-1.47-.18-3.58.26.31.05-2.89.16-6.69-1.09-9.44-1.84-14.07-3.87-27-10.53-42-10-7.83.29-15.37,6.69-15,15,.35,7.88,6.6,15.31,15,15Z"/><path class="cls-2" d="M98.5,274.68c8.2.2,16.86,2.74,25.6,4.76l13.29,3.07,7.59,1.75,3.79.88c2.53.66,2.53.58,0-.22l-6.89-9,.26.79c2.56,7.69,10.34,12.71,18.45,10.48,7.51-2.06,13.05-10.73,10.48-18.45-2.85-8.54-9.12-11.35-17.18-13.22l-18-4.16c-12.28-2.84-24.7-6.4-37.37-6.71-7.85-.2-15.36,7-15,15a15.3,15.3,0,0,0,15,15Z"/><path class="cls-2" d="M164.37,287.92c2.61,0-.6-.08-.58-.29,0,0,2.06.48,2.23.53,1.69.47,3.32,1.1,5,1.66a34.68,34.68,0,0,0,12.39,2.06c7.83-.29,15.37-6.69,15-15-.36-7.88-6.6-15.31-15-15-.18,0-2.28,0-2.28,0,.1-.39,3.1.75.63-.1-1.65-.57-3.32-1.08-5-1.65a37.38,37.38,0,0,0-12.39-2.2c-7.85.06-15.37,6.85-15,15s6.59,15.07,15,15Z"/><path class="cls-2" d="M381.08,288.82a158.81,158.81,0,0,1,22.49-6.62c7.41-1.58,15-2.22,22.37-4,6.7-1.6,12.89-4.76,19.59-6.3,3.73-.86-.43.08,2.17-.26a42.87,42.87,0,0,0,6.27-1c6.46-1.83,10.27-6.51,12.47-12.6,2.66-7.39-3-16.75-10.48-18.45-8.44-1.92-15.6,2.56-18.45,10.48l-.34,1L441,244.4a7.2,7.2,0,0,1,4.69-2.52c1.38-.22,1.1-.22-.86,0-2.16.23-4.35.52-6.48.94a61.82,61.82,0,0,0-8.91,2.71,99.24,99.24,0,0,1-17.66,5c-13.26,2.24-26.06,4.67-38.71,9.39-7.59,2.82-12.76,10.15-10.48,18.45,2,7.29,10.83,13.32,18.46,10.48Z"/><path class="cls-2" d="M378.27,290.16l44.66-1.27c6.42-.18,6.45-10.18,0-10l-44.66,1.27c-6.42.18-6.45,10.18,0,10Z"/><path class="cls-2" d="M284.57,290.86l35.31-3.19c6.35-.57,6.41-10.57,0-10l-35.31,3.19c-6.36.57-6.42,10.58,0,10Z"/><path class="cls-2" d="M306.72,286.46l56.7-1.93c6.42-.22,6.44-10.22,0-10l-56.7,1.93c-6.42.22-6.45,10.22,0,10Z"/><path class="cls-2" d="M323.75,281.39l39.18-1.29c6.42-.21,6.45-10.21,0-10l-39.18,1.29c-6.42.21-6.44,10.21,0,10Z"/><path class="cls-2" d="M348,276.84c6.77-.95,13.55-1.76,20.34-2.47,6.33-.67,6.4-10.68,0-10-7.68.8-15.35,1.76-23,2.83-6.35.88-3.65,10.52,2.65,9.64Z"/><path class="cls-2" d="M317.64,289.66c9.92-.54,19.85-.68,29.78-.34q7.21.24,14.4.81c4,.32,7.34.87,10.44-2.11l-4.86,1.28a25.27,25.27,0,0,0,8.65.9c6.38-.44,6.43-10.44,0-10-2.56.18-4.87-.77-7.33-.72a11.3,11.3,0,0,0-2.52.68l-1,.79.46-.49c-5.11.53-11.14-.86-16.31-1.07-10.56-.42-21.14-.31-31.7.27-6.4.35-6.44,10.35,0,10Z"/><path class="cls-2" d="M252.79,196.13a766.45,766.45,0,0,1,23.15,90.74c1.21,6.32,10.85,3.65,9.65-2.65a768.6,768.6,0,0,0-23.16-90.75c-2-6.1-11.62-3.49-9.64,2.66Z"/><path class="cls-2" d="M228.16,81.24c2.14,18.53,7.54,36.26,12.3,54.23S247,172.17,252.4,190c1.85,6.15,11.5,3.53,9.65-2.66-5.2-17.27-6.91-35.31-11.47-52.76C246,117,240.26,99.45,238.16,81.24c-.73-6.32-10.74-6.39-10,0Z"/><path class="cls-2" d="M408.25,34.26l21.05,87.49c1.5,6.26,11.15,3.61,9.64-2.65l-21-87.5c-1.51-6.26-11.15-3.61-9.65,2.66Z"/><path class="cls-2" d="M429.93,127q6.81,26.36,11.45,53.17c1.09,6.33,10.73,3.65,9.64-2.66q-4.63-26.81-11.45-53.17c-1.61-6.22-11.26-3.58-9.64,2.66Z"/><path class="cls-2" d="M443.3,183.51q4.69,27.87,11.36,55.34c1.52,6.25,11.17,3.6,9.65-2.66q-6.68-27.47-11.37-55.34c-1.06-6.33-10.7-3.65-9.64,2.66Z"/><path class="cls-2" d="M234.55,80.52c5.42-3.56,12-3.88,18.29-4.76q10.95-1.56,21.84-3.54,21.3-3.87,42.25-9.38c6.22-1.63,3.58-11.28-2.66-9.65q-21.88,5.73-44.14,9.73-10.9,2-21.86,3.46c-6.61.91-13.07,1.76-18.76,5.51-5.36,3.52-.35,12.19,5,8.63Z"/><path class="cls-2" d="M306.28,62.76c12,.16,23.63-4.23,35.17-7,12.37-3,24.85-5.37,37.41-7.32,6.34-1,3.64-10.62-2.66-9.65q-17.88,2.78-35.5,6.87c-11.23,2.64-22.77,7.24-34.42,7.09-6.43-.09-6.44,9.91,0,10Z"/><path class="cls-2" d="M369.2,48.5c15.65-.67,30.77-4.5,45.64-9.21,6.12-1.93,3.51-11.59-2.65-9.64-14,4.43-28.23,8.22-43,8.85-6.41.27-6.45,10.27,0,10Z"/><path class="cls-2" d="M456.9,243.7l7,26.43,2.3-5.65c-12.45,6.53-27.23,5.57-40.42,9.83l2.66,9.65a115.05,115.05,0,0,1,25.52-7.17c6.34-1,3.65-10.65-2.66-9.64a115.57,115.57,0,0,0-25.52,7.16c-5.78,2.37-3.62,11.67,2.66,9.65,14.14-4.57,29.4-3.81,42.8-10.84a5.07,5.07,0,0,0,2.3-5.65l-7-26.42c-1.64-6.22-11.29-3.58-9.64,2.65Z"/><path class="cls-2" d="M279.51,292.36q3,10.38,5.19,20.93a5.05,5.05,0,0,0,6.16,3.5,406.17,406.17,0,0,1,71.89-17.23c6.35-.92,3.65-10.56-2.66-9.64a406.14,406.14,0,0,0-71.89,17.22l6.15,3.49q-2.25-10.56-5.2-20.93c-1.76-6.18-11.41-3.55-9.64,2.66Z"/><path class="cls-2" d="M360.51,298.19c5.62,0,11.3,0,16.81-1.25,5.67-1.29,10.89-3.5,16.72-4.29,6.35-.85,3.64-10.49-2.66-9.64-5.27.71-10,2.46-15.05,3.86s-10.51,1.35-15.82,1.32c-6.43,0-6.44,10,0,10Z"/><path class="cls-2" d="M290.72,296.33a455.81,455.81,0,0,0,65.16-1.7v-10l-45.61,5.19L299.59,291c-2.8.32-6.07.26-8.62,1.62-5.38,2.86-4.5,9-2.07,13.52a5.12,5.12,0,0,0,5.65,2.3q10.57-2.31,20.94-5.41c6.15-1.84,3.53-11.49-2.66-9.64q-10.36,3.09-20.94,5.41l5.65,2.29c-1.42-2.65-.83.77-1.63.34.61.33,3-.34,3.68-.43l7.77-.88,16.49-1.88,32-3.64c6.29-.72,6.44-10.63,0-10a455.81,455.81,0,0,1-65.16,1.7c-6.44-.29-6.42,9.71,0,10Z"/></g><g id="Layer_1" data-name="Layer 1"><path d="M50.51,2.73l-19.3,99.54-19.3,99.54-10.86,56c-.44,2.26,3,3.23,3.47,1l19.3-99.54,19.3-99.54L54,3.68c.44-2.26-3-3.23-3.47-1Z"/><path d="M7.89,261.14l72.6,14.07,72.61,14.08,40.71,7.89c2.26.44,3.23-3,1-3.47l-72.6-14.08-72.6-14.07-40.72-7.9c-2.26-.43-3.23,3-1,3.48Z"/><path d="M60.56,4.47l72.14,14,71.89,13.93,40.49,7.85c2.26.44,3.23-3,.95-3.47l-72.14-14L102,8.85,61.51,1c-2.26-.44-3.23,3-.95,3.47Z"/><path d="M245.24,41.93,225.78,142.29,206.32,242.65l-10.95,56.49c-.44,2.26,3,3.23,3.47,1L218.3,199.73,237.76,99.37l11-56.48c.44-2.27-3-3.23-3.47-1Z"/><path d="M59.79,14.68,44.55,93.29l-15.24,78.6L20.77,216c-.44,2.27,3,3.24,3.47,1l15.24-78.61,15.24-78.6,8.54-44.08c.44-2.27-3-3.24-3.47-1Z"/><path d="M25.52,218.86,91,231.56l65.48,12.69,36.78,7.14c2.27.44,3.23-3,1-3.47l-65.48-12.7L63.26,222.53l-36.79-7.14c-2.26-.44-3.23,3-.95,3.47Z"/><path d="M233.53,46.19l-15.39,79.39L202.75,205l-8.65,44.6c-.44,2.26,3,3.23,3.47,1l15.4-79.4,15.39-79.4L237,47.15c.43-2.27-3-3.24-3.48-1Z"/><path d="M65.38,17l64.69,12.54,64.69,12.54,36.27,7c2.26.44,3.23-3,.95-3.47L167.29,33.11,102.6,20.57l-36.26-7c-2.27-.44-3.24,3-1,3.47Z"/><path d="M83.48,100.67a45.24,45.24,0,0,0-27.42,27.1c-4.93,13.74-2.87,31,6.91,42.18,4.87,5.57,11.79,8.4,18.68,10.56,7.56,2.36,15.61,4.49,23.6,3.55,13.62-1.59,23.62-12.43,28.14-24.83,4.64-12.73,3.77-27.87-3.36-39.53a42.06,42.06,0,0,0-3-4.18,1.82,1.82,0,0,0-2.55,0,1.85,1.85,0,0,0,0,2.55c7.84,9.87,9.8,23.56,6.8,35.61-2.75,11.06-10.2,22.21-21.52,25.78-7.19,2.27-14.84,1-22-.89-6.46-1.74-13.35-3.69-18.76-7.79s-8.61-10.31-10.41-16.61a41,41,0,0,1,25.75-50c2.17-.76,1.24-4.24-1-3.47Z"/><path d="M109.08,110.17,85.19,113l1.74,2.27c0-.32-.18,0,0-.2-.06,0,.33-.17.42-.21.61-.27,1.27-.42,1.89-.67a3.87,3.87,0,0,0,2.8-3.37,1.82,1.82,0,0,0-2.28-1.74A48,48,0,0,1,70,108.46c-2.25-.54-3.21,2.93-1,3.48a52.63,52.63,0,0,0,21.75.65l-2.28-1.73c0-.1,0-.29.16-.31a5.06,5.06,0,0,0-.53.29c-.58.26-1.2.4-1.79.63-1.32.52-2.64,1.37-2.88,2.89-.15,1,.45,2.43,1.74,2.28l23.89-2.87a1.86,1.86,0,0,0,1.8-1.8,1.81,1.81,0,0,0-1.8-1.8Z"/><path d="M114.19,117.55a43.86,43.86,0,0,0,15.9,16,1.8,1.8,0,0,0,1.82-3.11,40.16,40.16,0,0,1-14.61-14.76c-1.15-2-4.27-.2-3.11,1.82Z"/><path d="M75.33,122.9a5.33,5.33,0,0,0-6.83.8A1.89,1.89,0,0,0,68,125a1.83,1.83,0,0,0,.53,1.27,1.79,1.79,0,0,0,2.54,0,4.47,4.47,0,0,1,.45-.42l-.36.28a3.51,3.51,0,0,1,.75-.44l-.43.18a4,4,0,0,1,1-.26l-.48.07a4.18,4.18,0,0,1,1,0l-.48-.06a3.62,3.62,0,0,1,.84.23l-.43-.18a3.45,3.45,0,0,1,.65.36,1.8,1.8,0,0,0,1.38.19,1.87,1.87,0,0,0,1.08-.83,1.83,1.83,0,0,0,.18-1.39,2,2,0,0,0-.83-1.07Z"/><path d="M120.66,136.69h0l-.48-.06a4.31,4.31,0,0,1,1,.29l-.43-.18a4,4,0,0,1,.93.55l-.36-.29a4.26,4.26,0,0,1,.73.74l-.28-.37a5.41,5.41,0,0,1,.45.72,1.81,1.81,0,0,0,1.07.83,1.87,1.87,0,0,0,1.39-.18,1.83,1.83,0,0,0,.83-1.08l.06-.48a1.78,1.78,0,0,0-.24-.9,6,6,0,0,0-3.28-2.87,5.75,5.75,0,0,0-1.48-.32,1.8,1.8,0,0,0-1.28.52,1.86,1.86,0,0,0-.52,1.28,1.84,1.84,0,0,0,.52,1.27l.37.28a1.8,1.8,0,0,0,.91.25Z"/><path d="M78.73,137.06v0l-.07.47,0-.08-.18.43a.2.2,0,0,1,0-.08l-.28.36.07-.06-.37.28.12-.07-.43.18a.7.7,0,0,1,.14,0l-.48.06h.13l-.48-.06a.19.19,0,0,1,.1,0l-.43-.19.08,0-.37-.28.06.05-.28-.36v0l-.18-.43v0l-.07-.48a2.43,2.43,0,0,1,0,.66l.07-.48a2.34,2.34,0,0,1-.18.64l.18-.43a.88.88,0,0,1-.09.2l2-.83-.11,0,.43.19-.15-.09.36.28-.15-.15.28.36-.12-.2.19.43a.72.72,0,0,1-.07-.25l.06.48a.89.89,0,0,1,0-.23l-.06.48a.59.59,0,0,1,0-.19l-.19.43s0-.1.08-.14a1.27,1.27,0,0,0,.22-.67,1.47,1.47,0,0,0,0-.72,1.4,1.4,0,0,0-.33-.61,1.33,1.33,0,0,0-.5-.47l-.43-.18a2,2,0,0,0-1,0l-.43.18a1.81,1.81,0,0,0-.64.65,2.5,2.5,0,0,0-.28.6l0,.11a5.35,5.35,0,0,0-.07.56,1.6,1.6,0,0,0,0,.44,1.64,1.64,0,0,0,.09.44,2.8,2.8,0,0,0,.67,1.12.27.27,0,0,0,.08.07,3.61,3.61,0,0,0,.44.33,1.23,1.23,0,0,0,.29.13,1.79,1.79,0,0,0,.32.13l.48.06a1.34,1.34,0,0,0,.69-.15.9.9,0,0,0,.4-.23,1.41,1.41,0,0,0,.46-.51,4.75,4.75,0,0,0,.32-.73,3.57,3.57,0,0,0,.1-.35l0-.17c0-.21.06-.42.08-.63a2.16,2.16,0,0,0,0-.36c0-.13,0-.27,0-.4a1.33,1.33,0,0,0-.23-.71l-.15-.19-.15-.2,0,0-.37-.28,0,0,0,0L78,135H78l-.51-.07h-.11a2.53,2.53,0,0,0-1.08.3,2.92,2.92,0,0,0-.46.33l0,0v0a2.79,2.79,0,0,0-.3.38l0,0v0a4.17,4.17,0,0,0-.19.44.11.11,0,0,0,0,.05,2.2,2.2,0,0,0,0,.27c0,.08,0,.18,0,.27a1.35,1.35,0,0,0,.16.69,1.38,1.38,0,0,0,.37.58,1.29,1.29,0,0,0,.58.37,1.3,1.3,0,0,0,.69.16l.48-.07a1.79,1.79,0,0,0,.8-.46l.28-.36a1.82,1.82,0,0,0,.24-.91Z"/><path d="M113.39,146.54v0l.06.48v-.07l-.06.47a.13.13,0,0,1,0-.06l-.18.43,0,0-.29.36,0,0-.37.28.06,0-.43.18.09,0-.48.06H112l-.48-.06a.55.55,0,0,1,.17.05l-.43-.18.15.08-.36-.28.09.09-.29-.36a.22.22,0,0,1,0,.08l-.18-.43a.24.24,0,0,1,0,.08l-.06-.47v.08l.06-.48a.42.42,0,0,1,0,.15l.18-.43a.51.51,0,0,1-.09.16l.28-.36-.15.15.36-.29a1.31,1.31,0,0,1-.28.17l.43-.19a2.5,2.5,0,0,1-.65.17l.48-.06h0l1.74,1.32,0-.13.07.48a1.62,1.62,0,0,1,0-.44l-.07.48a2.23,2.23,0,0,1,.13-.44l-.19.43a2.3,2.3,0,0,1,.25-.43l-.28.37a1.77,1.77,0,0,1,.3-.31l-.36.28a2,2,0,0,1,.35-.21,1.23,1.23,0,0,0,.5-.46,1.29,1.29,0,0,0,.32-.61,1.92,1.92,0,0,0-.18-1.39,1.82,1.82,0,0,0-1.07-.83l-.48-.06a1.71,1.71,0,0,0-.91.25,1.17,1.17,0,0,0-.27.15,4.44,4.44,0,0,0-.59.46,5.09,5.09,0,0,0-.46.58,1.24,1.24,0,0,0-.17.27,4,4,0,0,0-.28.68,1.67,1.67,0,0,0-.08.32,6,6,0,0,0-.08.74c0,.06,0,.11,0,.17s0,.41.08.61l.19.43a1.23,1.23,0,0,0,.46.5.86.86,0,0,0,.4.24,1.34,1.34,0,0,0,.69.15,6.6,6.6,0,0,0,.89-.14,4.05,4.05,0,0,0,.81-.33,2.3,2.3,0,0,0,.66-.5,3.59,3.59,0,0,0,.37-.5,4.4,4.4,0,0,0,.21-.5.36.36,0,0,0,0-.11v0a2.63,2.63,0,0,0,.07-.49v-.06a4.29,4.29,0,0,0-.07-.5v0a2.82,2.82,0,0,0-.19-.48,2.27,2.27,0,0,0-.79-.81l-.12-.07a5.11,5.11,0,0,0-.47-.2l-.07,0-.06,0a4.81,4.81,0,0,0-.53-.07h-.12a2.1,2.1,0,0,0-1,.28,1.79,1.79,0,0,0-.44.34,3.37,3.37,0,0,0-.29.37l0,0a1.93,1.93,0,0,0-.19.47,2.19,2.19,0,0,0,0,1.08,1.29,1.29,0,0,0,.32.61,1.41,1.41,0,0,0,.51.46,1.91,1.91,0,0,0,1.38.18,1.83,1.83,0,0,0,1.08-.82l.18-.43a1.74,1.74,0,0,0,0-1Z"/><path d="M86.42,150.42a8.68,8.68,0,0,0,8.92,3.82A1.81,1.81,0,0,0,96.6,152a1.84,1.84,0,0,0-2.22-1.26l-.24,0c-.21,0,.49-.05.13,0l-.45,0c-.29,0-.59,0-.89,0s.45.08.14,0l-.25,0-.43-.1-.43-.13-.24-.09c-.29-.1.31.14.11.05a7.44,7.44,0,0,1-.79-.42,3,3,0,0,1-.38-.24s-.31-.23-.06,0l0,0a6.25,6.25,0,0,1-.64-.62c-.11-.12-.4-.56-.1-.1l-.28-.41a1.8,1.8,0,1,0-3.11,1.82Z"/><path d="M70.23,156.61c9.49,9.63,23.28,11.61,36.07,13.25l-.91-3.36a19.31,19.31,0,0,1-25.13-6.33C79,158.24,75.87,160,77.15,162a22.68,22.68,0,0,0,30.06,7.63c1.74-.93.7-3.15-.91-3.35-11.8-1.51-24.76-3.3-33.52-12.19a1.8,1.8,0,0,0-2.55,2.54Z"/><path d="M55.75,132.18a3.52,3.52,0,0,0-4.21-.61,4.37,4.37,0,0,0-2.22,3.67,8.07,8.07,0,0,0,.63,3.69,10.48,10.48,0,0,0,2.26,3.5,1.81,1.81,0,0,0,2.55,0,1.84,1.84,0,0,0,0-2.54c-.16-.17-.32-.33-.47-.51s-.06-.15,0,0c0-.09-.17-.22-.22-.31a7.94,7.94,0,0,1-.69-1.2c-.15-.3.09.24,0,0s-.08-.2-.11-.3-.15-.44-.21-.66-.1-.45-.15-.67,0,.28,0,.05,0-.24,0-.37a3.76,3.76,0,0,0,0-.67c0,.13-.07.38,0,.06,0-.1,0-.19.07-.29a1.09,1.09,0,0,1,0-.17c.05-.13,0-.07-.06.16,0,0,.13-.24.14-.26.09-.19-.25.24,0,0l.1-.1c.11-.1,0-.05-.17.12a.57.57,0,0,0,.21-.13c.28-.17,0,.07-.11,0a1.11,1.11,0,0,0,.29-.07l-.24,0h.15c.07,0,.38,0,0,0s0,0,0,0c-.27-.13-.35-.15-.22-.09l.12.07c-.14,0-.32-.29-.09,0a1.81,1.81,0,0,0,2.55,0,1.85,1.85,0,0,0,0-2.54Z"/><path d="M133.38,155l.18.06-.13-.06a2.16,2.16,0,0,0,.34.18c.11.06.21.14.32.21.28.17-.16-.16,0,0s.34.31.5.49.11.13.17.2l-.13-.16s.2.3.21.32.13.22.19.33l.06.12c.08.18.07.15,0-.08a1.94,1.94,0,0,1,.21.67c0,.06.09.26.06.32,0-.27,0-.3,0-.1v.13a2.41,2.41,0,0,1,0,.38,1.21,1.21,0,0,1,0,.19c0,.14,0,.09,0-.16,0,.16-.12.53-.18.7l-.06.18c.09-.21.11-.25,0-.13s-.09.19-.15.29-.14.22-.2.33c-.22.37.24-.27,0,.05s-.36.38-.54.56.18-.11,0,0l-.32.22-.29.16-.23.12.19-.08a3.3,3.3,0,0,0-.37.13l-.38.1-.12,0c-.21,0-.18,0,.09,0-.06.05-.33,0-.4,0a1.8,1.8,0,1,0,0,3.6,6.54,6.54,0,0,0,2-12.78,1.83,1.83,0,0,0-2.22,1.26,1.86,1.86,0,0,0,1.26,2.22Z"/><path d="M78,179.58q0,.33-.06.66l.06-.48a9,9,0,0,1-.61,2.21l.18-.43a8.59,8.59,0,0,1-1.11,1.9l.28-.36,0,.07a2,2,0,0,0-.52,1.27,1.79,1.79,0,0,0,1.8,1.8,1.73,1.73,0,0,0,1.27-.53,12.85,12.85,0,0,0,1-1.42,11.72,11.72,0,0,0,.74-1.61,10.43,10.43,0,0,0,.63-3.08,1.8,1.8,0,0,0-.53-1.27,1.83,1.83,0,0,0-1.27-.53,1.85,1.85,0,0,0-1.8,1.8Z"/><path d="M93.6,182.42,92,189l1.73-1.32a52.2,52.2,0,0,1-14.88-3.88,1.8,1.8,0,1,0-1,3.47,55.23,55.23,0,0,0,15.84,4A1.81,1.81,0,0,0,95.43,190l1.64-6.59c.56-2.25-2.91-3.2-3.47-1Z"/><path d="M77,183.68c-7.88-1.79-15.84-3.42-24-2.73S37.35,184,29.71,186.39c-2.2.69-1.26,4.16,1,3.47,7.31-2.29,14.73-4.65,22.4-5.31s15.42.88,23,2.6c2.26.52,3.22-3,1-3.47Z"/><path d="M91.56,101.4c6.4-2.08,13.39-2.63,19.8-.26A20.23,20.23,0,0,1,123,111.9a1.85,1.85,0,0,0,2.21,1.26,1.81,1.81,0,0,0,1.26-2.21,24,24,0,0,0-13.49-13c-7.13-2.87-15.23-2.35-22.41,0-2.2.72-1.26,4.2,1,3.47Z"/><path d="M106,95.34a54.07,54.07,0,0,1,1.4-6.9c.44-1.61.83-4,2.28-5s4.32-1.08,6.12-1.19a18.11,18.11,0,0,1,6.71.69c3.41,1.12,6.36,4.08,6.09,7.87a14.65,14.65,0,0,1-2.27,6.08c-.81,1.37-1.9,3.23-3.71,3a1.82,1.82,0,0,0-1.8,1.8,1.84,1.84,0,0,0,1.8,1.8c4.28.52,6.93-4.51,8.33-7.79,1.71-4,1.76-8.36-1-11.89-2.55-3.22-6.47-4.75-10.47-5.12a30.44,30.44,0,0,0-7.07.31c-2,.28-4.13.68-5.62,2.25s-2.17,3.93-2.76,6.05a59.8,59.8,0,0,0-1.59,8.08c-.13,1,.92,1.79,1.8,1.8a1.85,1.85,0,0,0,1.8-1.8Z"/><path d="M108.81,92.24a18.5,18.5,0,0,0,16.7-2.57,1.85,1.85,0,0,0,.65-2.46,1.81,1.81,0,0,0-2.46-.65,15.15,15.15,0,0,1-13.93,2.21A1.82,1.82,0,0,0,107.55,90a1.85,1.85,0,0,0,1.26,2.22Z"/><path d="M148.07,54a212.9,212.9,0,0,0,1.43,35.52c.73,5.81,1.67,11.59,2.86,17.32.6,2.9,1.27,5.8,2,8.67.6,2.38,1.05,5,2.3,7.19a6.76,6.76,0,0,0,6.12,3.27c3,.06,6-.11,9-.17l9-.19a50.82,50.82,0,0,0,8.55-.4,6.39,6.39,0,0,0,5-4.32,73.73,73.73,0,0,0,2-8.32q2-8.62,3.5-17.35a367.14,367.14,0,0,0,4.8-39.95c.15-2.31-3.45-2.3-3.6,0Q199.91,72,197.28,88.54q-1.32,8.26-3,16.46-.84,4-1.77,8c-.31,1.34-.63,2.68-1,4a12,12,0,0,1-1.06,3.49c-1.1,1.73-4.08,1.36-5.83,1.39l-8.44.18-8.7.19c-1.37,0-2.75.07-4.13.08a4.39,4.39,0,0,1-2.95-.63c-1.59-1.32-1.89-4.4-2.37-6.25-.68-2.64-1.3-5.3-1.88-8q-1.76-8.11-2.86-16.34A212.09,212.09,0,0,1,151.67,54c.1-2.31-3.5-2.31-3.6,0Z"/><path d="M170.69,74.83l-3.37,18a1.82,1.82,0,0,0,2.64,2A31.29,31.29,0,0,1,178,92.61a1.82,1.82,0,0,0,1.26-2.21,1.86,1.86,0,0,0-2.22-1.26,34.58,34.58,0,0,0-8.91,2.62l2.64,2,3.37-18a1.85,1.85,0,0,0-1.26-2.21,1.81,1.81,0,0,0-2.21,1.25Z"/><path d="M166.4,107.87l11.14-3.47,5.56-1.74,2.57-.8c.38-.12.76-.26,1.15-.35a1.49,1.49,0,0,1,.42-.08c.14,0,.12,0,0,0l-.28-2.18c-1.7,2.44-4,5-7,5.66a5.3,5.3,0,0,1-6-2.46c-1-2.08-4.14-.26-3.11,1.81,1.72,3.47,5.84,4.81,9.48,4.23,4.23-.67,7.4-4.08,9.73-7.42a1.82,1.82,0,0,0-.29-2.18c-1.35-1.52-3.34-1-5-.48l-6.43,2-12.84,4c-2.21.69-1.27,4.17,1,3.48Z"/><path d="M161.78,67.39a4.55,4.55,0,0,1-.17-.73l.07.48a4.46,4.46,0,0,1,0-1.21l-.06.47a4.24,4.24,0,0,1,.31-1.16l-.18.43.09-.22h-3.11a3.74,3.74,0,0,1,.33.58l-.18-.43a3.09,3.09,0,0,1,.22.79l-.07-.48a3.54,3.54,0,0,1,0,.86l.06-.47a3.46,3.46,0,0,1-.21.78l.18-.43c-.06.13-.12.25-.19.37a1.9,1.9,0,0,0-.18,1.38,1.87,1.87,0,0,0,.83,1.08,1.82,1.82,0,0,0,1.39.18,1.92,1.92,0,0,0,1.07-.83,4.3,4.3,0,0,0,.52-1.25,4.84,4.84,0,0,0,.15-1.37,5.07,5.07,0,0,0-.22-1.33,4.45,4.45,0,0,0-.6-1.24,1.75,1.75,0,0,0-1.55-.89,1.79,1.79,0,0,0-1.56.89,7.76,7.76,0,0,0-.48,1.24,7.91,7.91,0,0,0-.19,1.28,5.83,5.83,0,0,0,.26,2.19,1.85,1.85,0,0,0,.83,1.07,1.8,1.8,0,0,0,1.38.18,1.79,1.79,0,0,0,1.26-2.21Z"/><path d="M186.76,67.14l.32-2-.46.8,0,0-.36.28.16-.1-.43.19a.55.55,0,0,1,.17,0l-.48.07h.18l-.47-.07.24.07-.43-.18a1.12,1.12,0,0,1,.28.16l-.36-.28a1,1,0,0,1,.21.21l-.28-.36a1.1,1.1,0,0,1,.15.26l-.18-.43a1.12,1.12,0,0,1,.08.26l-.07-.47a1.77,1.77,0,0,1,0,.46l.06-.48a2.29,2.29,0,0,1-.19.63l.18-.43a7,7,0,0,1-.4.77,1.8,1.8,0,0,0,2,2.65,2,2,0,0,0,1.08-.83c.12-.22.25-.43.35-.66a4.37,4.37,0,0,0,.4-1.06,3.13,3.13,0,0,0-.34-2.43,3.45,3.45,0,0,0-1-1L187,63a3,3,0,0,0-.65-.24,2.65,2.65,0,0,0-1.34,0,2.49,2.49,0,0,0-.77.42l-.21.16-.28.37-.18.43c0,.06,0,.14,0,.2l-.28,1.83a1.36,1.36,0,0,0,0,.72,1.48,1.48,0,0,0,.22.67,1.88,1.88,0,0,0,1.07.83,1.86,1.86,0,0,0,1.39-.18l.37-.29a1.85,1.85,0,0,0,.46-.79Z"/><path d="M160.46,51.27a11.26,11.26,0,0,0-3.19,1.51,12.09,12.09,0,0,0-2.79,2.74,1.8,1.8,0,0,0-.18,1.38,1.86,1.86,0,0,0,.82,1.08,1.83,1.83,0,0,0,1.39.18,2.07,2.07,0,0,0,1.08-.83l.09-.12-.28.36a9.43,9.43,0,0,1,1.7-1.7l-.36.28a9.86,9.86,0,0,1,2.08-1.22l-.43.18a9.67,9.67,0,0,1,1-.36,1.8,1.8,0,1,0-1-3.48Z"/><path d="M185.27,54.29l4.78,1.39a1.8,1.8,0,1,0,1-3.47l-4.79-1.39A1.8,1.8,0,0,0,184,52.07a1.84,1.84,0,0,0,1.26,2.22Z"/><path d="M174.38,39.14A64.1,64.1,0,0,1,163,47.45l2.65,1.08A7.69,7.69,0,0,1,165,44.3c.19-1.17-.8-2.81-2.21-2.22a24.24,24.24,0,0,0-11.31,9.5c-1.24,2,1.87,3.77,3.1,1.81a20.26,20.26,0,0,1,9.16-7.84l-2.21-2.21a11,11,0,0,0,.59,6.14,1.82,1.82,0,0,0,2.64,1.08,68.12,68.12,0,0,0,12.12-8.88c1.72-1.56-.84-4.11-2.54-2.54Z"/><path d="M149,77.49c-2.24-1.88-5.06-.4-5.86,2.16a16.5,16.5,0,0,0-.21,7,20.21,20.21,0,0,0,6.27,11.84c1.71,1.56,4.26-1,2.55-2.54a16.79,16.79,0,0,1-5.47-12.63,12.53,12.53,0,0,1,.2-2.21,7.66,7.66,0,0,0,.28-.85s.09-.12.09-.09,0,0,0,0,0,.06-.41-.16A1.85,1.85,0,0,0,149,80a1.81,1.81,0,0,0,0-2.55Z"/><path d="M203.72,80.72c-.18.26-.38.28-.66.39s.08-.12,0,0A.52.52,0,0,1,203,81c0-.07,0,.22,0,.1a5.2,5.2,0,0,0,.05.85q0,.53-.09,1.05a26.09,26.09,0,0,1-1,4.7,25,25,0,0,1-1.78,4.32,9.37,9.37,0,0,1-1,1.76,3.33,3.33,0,0,1-.52.48c-.47.4-.16,0-.11.07s.71.3.21,0c-1.94-1.27-3.75,1.84-1.82,3.1,2.4,1.57,4.78-.71,5.91-2.69a29.5,29.5,0,0,0,3.67-10.91,9.21,9.21,0,0,0,0-3.66c-.74-2.66-4.17-3.71-5.86-1.29a1.81,1.81,0,0,0,.64,2.46,1.84,1.84,0,0,0,2.46-.64Z"/><path d="M145.86,33q-4.23,5.46-8.45,10.94c-2.41,3.13-4.69,6.63-4,10.77a25.68,25.68,0,0,0,2.18,6l2.72,6.3,5.54,12.82a1.81,1.81,0,0,0,2.46.65,1.83,1.83,0,0,0,.64-2.46l-5-11.7-2.53-5.85A38.46,38.46,0,0,1,137,54.64c-.88-3.61,1.9-6.81,3.95-9.46l8-10.36a1.81,1.81,0,0,0-.65-2.46,1.84,1.84,0,0,0-2.46.65Z"/><path d="M214,48.46c2.31,1.08,2.12,3.83,1.48,5.91a83.73,83.73,0,0,1-3.53,8.56q-3.74,8.48-8,16.73c-1,2.06,2.05,3.88,3.11,1.82q4.86-9.54,9.11-19.39c1.32-3.08,3.05-6.29,3.3-9.68.21-2.78-1.06-5.83-3.69-7.06-2.09-1-3.92,2.13-1.82,3.11Z"/><path d="M144.41,184.76c-1.33,4.14-1.29,8.49-1,12.78.25,4.5.57,9,.91,13.5q1,13.67,2.55,27.31a1.86,1.86,0,0,0,1.8,1.8,1.81,1.81,0,0,0,1.8-1.8Q149,225,147.91,211.53q-.51-6.65-.91-13.3c-.25-4.2-.42-8.45.88-12.51.71-2.21-2.77-3.16-3.47-1Z"/><path d="M187.47,173.48q-11.82,6.5-24,12.26l2.65,1.07a6.83,6.83,0,0,1,1.11-4.67,1.81,1.81,0,0,0-2.46-2.46,73.59,73.59,0,0,1-24.87,8.73,1.8,1.8,0,0,0-1.26,2.21,1.85,1.85,0,0,0,2.22,1.26,76.17,76.17,0,0,0,25.73-9.1l-2.46-2.46a10.67,10.67,0,0,0-1.49,7.45c.19,1.25,1.73,1.51,2.65,1.08q12.18-5.78,24-12.26c2-1.12.22-4.23-1.81-3.11Z"/><path d="M193,175.53a33.82,33.82,0,0,0,10.59,12.69,1.81,1.81,0,0,0,2.46-.64,1.85,1.85,0,0,0-.64-2.47,29.6,29.6,0,0,1-2.74-2.3A31.69,31.69,0,0,1,200,180a29,29,0,0,1-2-2.82,32.1,32.1,0,0,1-1.9-3.45,1.81,1.81,0,0,0-2.46-.65,1.84,1.84,0,0,0-.65,2.46Z"/><path d="M163.63,200.05a8.6,8.6,0,0,0-5.41,4.18,1.8,1.8,0,0,0,.65,2.46,1.8,1.8,0,0,0,1.38.18,1.83,1.83,0,0,0,1.08-.83,7.82,7.82,0,0,1,.61-.93l-.28.36a7.11,7.11,0,0,1,1.2-1.19l-.36.28a7,7,0,0,1,1.52-.89l-.43.18a7.31,7.31,0,0,1,1-.33,1.81,1.81,0,0,0,1.26-2.21,1.85,1.85,0,0,0-2.22-1.26Z"/><path d="M200.49,203.33l2.21.43a1.36,1.36,0,0,0,.72,0,1.64,1.64,0,0,0,1.17-.68,1.33,1.33,0,0,0,.32-.61,1.82,1.82,0,0,0-.18-1.39,1.78,1.78,0,0,0-1.07-.83l-2.22-.43a1.43,1.43,0,0,0-.71,0,1.32,1.32,0,0,0-.67.21,1.44,1.44,0,0,0-.51.47,1.29,1.29,0,0,0-.32.61,1.82,1.82,0,0,0,.18,1.39,1.75,1.75,0,0,0,1.08.82Z"/><path d="M167,221.46l-.12-1.05-3.54.48a1.08,1.08,0,0,1,0,.19l-.06-.48a.88.88,0,0,1,0,.23l.07-.47a.93.93,0,0,1,0,.13l.19-.43-.06.09.28-.37a.08.08,0,0,1,0,0l.37-.28-.06,0,.43-.18-.07,0,.48-.06h-.1l.48.06-.08,0,.43.18-.07,0,.37.28,0,0,.29.36,0,0,.18.43a.06.06,0,0,0,0,0l.07.48v0l-.07.48v0a.69.69,0,0,0,0-.25,1.23,1.23,0,0,0,0-.71,3.9,3.9,0,0,0-.2-.47l.18.43a.11.11,0,0,1,0,0l.06.47v-.06l-.06.48a.19.19,0,0,1,0-.07l-.18.43s0-.05,0-.08l-.28.37.07-.07-.36.28.08-.05-.43.19s.05,0,.08,0l-.48.07a.06.06,0,0,1,.06,0l-.48-.07.06,0L164,222l.05,0-.36-.28,0,0-.28-.36a.08.08,0,0,1,0,0l-.18-.43s0,0,0,.06l-.07-.47a.08.08,0,0,1,0,.07l.07-.48a.32.32,0,0,1,0,.09l.19-.43-.06.09.28-.36-.06.06.36-.28-.06,0,.43-.18-.07,0,.48-.07h-.06l.48.07,0,0,.43.18h0a1.48,1.48,0,0,0-.67-.22,1.36,1.36,0,0,0-.72,0,1.29,1.29,0,0,0-.61.32,1.3,1.3,0,0,0-.46.5l-.19.43a2,2,0,0,0,0,1l.19.43a1.81,1.81,0,0,0,.64.65c.13.05.31.14.44.18h.05l.48.06a1.76,1.76,0,0,0,.56-.07,1.83,1.83,0,0,0,.5-.21l0,0c.1-.07.28-.2.37-.28l0,0a2.27,2.27,0,0,0,.33-.42.2.2,0,0,0,0-.08,2.21,2.21,0,0,0,.21-.5c0-.12.05-.36.06-.49v0a.09.09,0,0,0,0-.05,1.55,1.55,0,0,0-.17-.76,1.62,1.62,0,0,0-.41-.64,1.76,1.76,0,0,0-.43-.33l-.22-.09a1.14,1.14,0,0,0-.23-.1h-.05c.14,0-.35-.07-.51-.07h0l-.49.07a2.65,2.65,0,0,0-.3.11,2.44,2.44,0,0,0-.28.14,2.25,2.25,0,0,0-.43.34h0c-.1.11-.21.26-.3.38a.08.08,0,0,1,0,0v0l-.18.43v.06c0,.1-.06.39-.07.49v0a2.25,2.25,0,0,0,.07.52.06.06,0,0,0,0,0l.09.22a2.14,2.14,0,0,0,.1.22v0l-.18-1.38a1.92,1.92,0,0,0,.19,1.5,2,2,0,0,0,.73.73,2.19,2.19,0,0,0,1,.29h.08a2.09,2.09,0,0,0,.55-.08,2.16,2.16,0,0,0,.49-.22l.37-.28h0a3.72,3.72,0,0,0,.31-.4,2.66,2.66,0,0,0,.24-.52l0-.1a2.61,2.61,0,0,0,.07-.69c0-.24-.06-.48-.11-.72a1.29,1.29,0,0,0-.32-.61,1.44,1.44,0,0,0-.51-.47l-.43-.18a1.42,1.42,0,0,0-.71,0,.9.9,0,0,0-.46.12,1.46,1.46,0,0,0-.58.38l-.28.36a1.79,1.79,0,0,0-.24.91l.12,1.05a1.37,1.37,0,0,0,.15.69,1.4,1.4,0,0,0,.38.58,1.23,1.23,0,0,0,.58.37,1.35,1.35,0,0,0,.69.16l.48-.07a1.76,1.76,0,0,0,.79-.46l.28-.36a1.76,1.76,0,0,0,.25-.91Z"/><path d="M199.78,215.69a.44.44,0,0,1,0-.1l.06.48a1,1,0,0,1,0-.25l-.06.48a.77.77,0,0,1,.07-.26l-.18.43a1,1,0,0,1,.13-.23l-.28.37a.81.81,0,0,1,.16-.16l-.36.28.06,0L196.9,216a.9.9,0,0,1,.12.24l-.18-.43a2,2,0,0,1,.13.49l-.06-.48a2.44,2.44,0,0,1,0,.54l.06-.48a.51.51,0,0,1,0,.17l1.74-1.32h-.14l.48.07-.13,0,.43.18-.14-.08.36.28-.11-.11.28.36a.57.57,0,0,1-.08-.13l.18.43a.88.88,0,0,1-.05-.15l.07.47a.33.33,0,0,1,0-.14,1.92,1.92,0,0,0-.53-1.27,1.32,1.32,0,0,0-.58-.37,1.35,1.35,0,0,0-.69-.16l-.48.07a1.76,1.76,0,0,0-.79.46l-.28.37a1.7,1.7,0,0,0-.25.9,2.33,2.33,0,0,0,.06.62.74.74,0,0,0,0,.14,2.4,2.4,0,0,0,.6,1,2.5,2.5,0,0,0,1,.6l.13,0a2.79,2.79,0,0,0,.62.07l.48-.07a1.29,1.29,0,0,0,.61-.32.89.89,0,0,0,.32-.32,1.43,1.43,0,0,0,.33-.62,3.58,3.58,0,0,0,0-1.68,2.34,2.34,0,0,0-.09-.38,5.18,5.18,0,0,0-.34-.76,1.93,1.93,0,0,0-1.08-.83l-.48-.06a1.78,1.78,0,0,0-.9.24,2.53,2.53,0,0,0-.59.49,4.67,4.67,0,0,0-.37.48c-.09.17-.17.38-.24.55a3,3,0,0,0-.13.77.43.43,0,0,0,0,.16,4.2,4.2,0,0,0,.08.62,1.43,1.43,0,0,0,.33.62,1.31,1.31,0,0,0,.5.46,1.35,1.35,0,0,0,.67.21,1.26,1.26,0,0,0,.72,0l.43-.18a1.74,1.74,0,0,0,.64-.65l.19-.43a1.91,1.91,0,0,0,0-.95Z"/><path d="M179.3,220.22a49.7,49.7,0,0,1-1.15,24.37c-.68,2.22,2.8,3.17,3.47,1a53.59,53.59,0,0,0,1.15-26.29c-.47-2.27-3.94-1.31-3.47,1Z"/><path d="M121.28,211a14.7,14.7,0,0,0-5.39-1.1,9.73,9.73,0,0,0-4.86,1.77c-1.66,1-3.31,2.08-5,3.12a32,32,0,0,0-4.1,2.81c-2.3,2-3.83,6.22-.75,8.33s7.21.12,9.73-1.82c1.14-.88,2.39-2.1,3.89-2.24a8.06,8.06,0,0,1,2.66.43,16,16,0,0,0,3.15.55c2.31.14,2.3-3.46,0-3.6a39.67,39.67,0,0,1-4-.84,7.44,7.44,0,0,0-4.32.47c-2.33,1-4,3.23-6.43,4a5.24,5.24,0,0,1-1.8.26,2.12,2.12,0,0,1-.79-.13c-.18-.09-.09,0-.17-.2-.32-.92.57-1.9,1.17-2.47a20.09,20.09,0,0,1,3.1-2.14l4-2.52c1.23-.77,2.56-1.88,4-2.14,1.64-.28,3.37.4,4.9.93,2.19.76,3.13-2.72,1-3.47Z"/><path d="M119.52,208.16a50.58,50.58,0,0,0-10.64-10.63,12.93,12.93,0,0,0-3-1.87,4.59,4.59,0,0,0-3.72.42,54.14,54.14,0,0,0-6.19,4A18.3,18.3,0,0,1,89.39,203c-2.6.53-5.27.67-7.87,1.18a49.81,49.81,0,0,0-13.83,5.23,129.29,129.29,0,0,0-14.35,9.41c-1.85,1.35-.06,4.48,1.82,3.11,7.51-5.45,15.34-11,24.4-13.58,4.56-1.27,9.54-1,14-2.8a30.2,30.2,0,0,0,6-3.5c.86-.61,1.73-1.22,2.62-1.78s1.93-1.5,2.82-1a29.49,29.49,0,0,1,6,4.73,45.75,45.75,0,0,1,5.42,6,1.85,1.85,0,0,0,2.46.65,1.83,1.83,0,0,0,.65-2.47Z"/><path d="M121.67,223.44l1.92,6.11.93,3a4.53,4.53,0,0,1,.29,1.17c0-.15,0-.13,0,.07l.06-.13c-.11.18-.11.19,0,0a.64.64,0,0,1,.25-.15,1.84,1.84,0,0,0-1.26,2.21,1.83,1.83,0,0,0,2.22,1.26,3.38,3.38,0,0,0,2.33-3.08,11.14,11.14,0,0,0-.9-4l-2.35-7.49a1.8,1.8,0,0,0-3.47.95Z"/><path d="M98.15,203.79a18.4,18.4,0,0,1,2.87,1.68l.3.22c.34.24-.2-.17.1.07l.68.57c.41.36.8.73,1.18,1.12s.73.8,1.07,1.22c0,0,.33.44.09.1l.22.3c.16.22.31.44.46.67a17.56,17.56,0,0,1,1.61,3,1.8,1.8,0,0,0,2.46.64,1.85,1.85,0,0,0,.65-2.46A20.36,20.36,0,0,0,100,200.68a1.84,1.84,0,0,0-2.46.65,1.81,1.81,0,0,0,.64,2.46Z"/><path d="M112.71,223.21c.09.22.19.43.28.64,0,0,.22.52.09.22.16.37.31.75.46,1.13.29.73.57,1.46.82,2.21.53,1.51,1,3,1.4,4.59a1.82,1.82,0,0,0,2.21,1.26,1.85,1.85,0,0,0,1.26-2.22,62,62,0,0,0-3.41-9.64,1.8,1.8,0,0,0-2.46-.65,1.85,1.85,0,0,0-.65,2.46Z"/><path d="M117.2,204c3.35.42,6.51,2.58,9,4.75s4.59,4.7,5.31,7.88c.39,1.76-.11,3.37-.11,5.12a10,10,0,0,0,1.64,5A25.33,25.33,0,0,1,136.45,237c.21,2.29,3.82,2.31,3.6,0a28.22,28.22,0,0,0-3.6-11.55,13,13,0,0,1-1.26-2.5,7.3,7.3,0,0,1,0-3.12,12.24,12.24,0,0,0-.65-5.56,20.6,20.6,0,0,0-6.57-8.68c-3.17-2.57-6.68-4.66-10.79-5.17a1.82,1.82,0,0,0-1.8,1.8,1.85,1.85,0,0,0,1.8,1.8Z"/><path d="M193.08,142.92,180,139.68c-3.94-1-8.29-2.72-12.15-.6a37.28,37.28,0,0,0-4.85,3.56c-1.65,1.3-3.28,2.61-4.9,4q-4.95,4.08-9.69,8.4c-3.09,2.82-6.13,5.69-9,8.68a40.09,40.09,0,0,0-7,8.93,26.74,26.74,0,0,0-2.79,11.69,106.94,106.94,0,0,0,0,12.91c.62,8.38,3.63,17.11,11.13,21.71,2,1.22,3.79-1.89,1.82-3.1-5.81-3.57-8.48-10.43-9.2-16.94a84.47,84.47,0,0,1-.21-12c.13-3.78.2-7.65,1.77-11.17a30.43,30.43,0,0,1,5.87-8.27c2.59-2.78,5.36-5.4,8.14-8q8.61-8,17.94-15.25c1.55-1.19,3.12-2.6,5.18-2.56a30.47,30.47,0,0,1,6.31,1.35l13.79,3.42c2.25.56,3.21-2.91,1-3.47Z"/><path d="M198.34,146.06a11,11,0,0,1,13.38-.07,1.87,1.87,0,0,0,2.55,0,1.82,1.82,0,0,0,0-2.55,14.7,14.7,0,0,0-18.48.07,1.82,1.82,0,0,0,0,2.55,1.85,1.85,0,0,0,2.55,0Z"/><path d="M167.75,124.9l-2.22,11.46a1.83,1.83,0,0,0,1.26,2.21,1.81,1.81,0,0,0,2.21-1.25l2.22-11.46a1.8,1.8,0,0,0-3.47-1Z"/><path d="M180.81,124.22a141.43,141.43,0,0,0-2.95,14.26,1.87,1.87,0,0,0,1.26,2.21,1.82,1.82,0,0,0,2.22-1.26,138.49,138.49,0,0,1,2.94-14.25c.58-2.24-2.89-3.2-3.47-1Z"/><path d="M96.41,192.23a29.75,29.75,0,0,1,5.74,2.51,32.2,32.2,0,0,1,5.14,3.59,1.86,1.86,0,0,0,2.55,0,1.82,1.82,0,0,0,0-2.55,36.18,36.18,0,0,0-12.48-7A1.82,1.82,0,0,0,95.15,190a1.84,1.84,0,0,0,1.26,2.22Z"/><path d="M165.08,133.75c-2.37-.74-5.05-1.43-7.5-.56a16.59,16.59,0,0,0-3,1.75,13.19,13.19,0,0,1-2.43.66,3.07,3.07,0,0,0-2.29,2.86c0,1.34,1,2.56,1.6,3.66l4.29,7.33a1.8,1.8,0,0,0,3.11-1.82l-3.62-6.18-.94-1.6-.4-.69a3.75,3.75,0,0,0-.42-.73c-.12-.11,0,0,0,.17a.85.85,0,0,1-.31.47q.25-.13,0,0l.22-.06.56-.13a7.37,7.37,0,0,0,2.5-.83,14.32,14.32,0,0,1,2.35-1.46c1.66-.55,3.62.09,5.38.63a1.8,1.8,0,1,0,1-3.47Z"/><path d="M138.12,141.61a40.86,40.86,0,0,0,8.27-.41,1.84,1.84,0,0,0,1.08-.83,1.8,1.8,0,0,0-2-2.65l-.46.07-.21,0-.91.1c-.64.06-1.27.1-1.91.13-1.28.05-2.56,0-3.83,0a1.79,1.79,0,0,0-1.8,1.8,1.84,1.84,0,0,0,1.8,1.8Z"/><path d="M64.87,73.4c5,1.84,10.52,2.88,15.68,1.21a15.48,15.48,0,0,0,3.39-1.54,7.64,7.64,0,0,0,2.83-2.49,2.44,2.44,0,0,0-4-2.73,1.8,1.8,0,0,0,.64,2.46,1.85,1.85,0,0,0,2.46-.64l.11-.14-.65.64.15-.07-.91.25c-.27-1.46-.67-1.88-1.19-1.26a4.12,4.12,0,0,1-.4.33c-.26.2-.54.37-.81.54a11,11,0,0,1-1.91,1,14.37,14.37,0,0,1-4.33.91,25.18,25.18,0,0,1-10.06-1.91,1.8,1.8,0,0,0-1,3.48Z"/><path d="M83.28,71.08c-.43,4.71.21,9.52.53,14.23l1,14.42c.16,2.3,3.76,2.31,3.6,0l-1-14.42c-.32-4.71-1-9.52-.53-14.23.21-2.31-3.4-2.29-3.6,0Z"/><path d="M62.49,73.14c-1.36,6.15-1.21,12.43-.71,18.67.52,6.43,1.14,12.86,1.72,19.28.2,2.29,3.8,2.31,3.6,0-.56-6.26-1.16-12.53-1.68-18.8-.5-6.06-.78-12.21.54-18.19.5-2.26-3-3.22-3.47-1Z"/><path d="M82.57,69.3c-.63-3.48,1.47-6.82,3.14-9.71a58.18,58.18,0,0,0,5-10.56c.57-1.7.73-3.58-.47-5.05A3.38,3.38,0,0,0,86,43.06c-1.45.79-2.27,2.44-3.13,3.77L79.49,52c-1.26,2,1.86,3.76,3.11,1.81l2.69-4.15,1.28-2c.18-.29.65-1.31,1.06-1.42-.29.08,0,.31-.1.77a10.39,10.39,0,0,1-.7,2.15q-.87,2.28-2,4.46C82.26,58.92,78,64,79.09,70.26c.41,2.27,3.88,1.31,3.48-1Z"/><path d="M81.8,52.44a65.83,65.83,0,0,0,.71-11.9,50.23,50.23,0,0,0-1.54-12,4.49,4.49,0,0,0-2.84-3.26c-1.72-.43-3,.83-3.46,2.37a41.59,41.59,0,0,0-1.32,12l3.53-.48a26.85,26.85,0,0,0-6-13.09C69.79,24.78,68,26,67.83,27.4a38.55,38.55,0,0,0,.91,14.11L72,40.12a76.88,76.88,0,0,1-6.11-9.34,1.81,1.81,0,0,0-3.11,0c-1.21,2.62-.92,5.28,0,8s2.17,5.12,2.05,7.89l3.35-.91a14.73,14.73,0,0,0-6.55-5.25,1.81,1.81,0,0,0-2.28,1.73,53.49,53.49,0,0,0,8.72,28.72c1.26,1.93,4.38.13,3.11-1.81A49.93,49.93,0,0,1,63,42.2l-2.28,1.74a10.24,10.24,0,0,1,4.4,3.6,1.82,1.82,0,0,0,3.36-.91c.11-2.61-.8-5-1.68-7.45-.74-2-1.81-4.49-.84-6.59H62.81a77,77,0,0,0,6.11,9.35c1.18,1.54,3.83.73,3.29-1.39a35.51,35.51,0,0,1-.78-13.15l-3.07,1.28a23.33,23.33,0,0,1,5,11.5c.31,2,3.57,1.51,3.54-.48a44,44,0,0,1,.7-8.8,9.09,9.09,0,0,0,.49-2.26c.12-.3,0-.3-.51,0-.51-.05-.67,0-.48.2,0,.11.24.39.3.55a20.73,20.73,0,0,1,.83,4.29,60.13,60.13,0,0,1,0,17.82,1.87,1.87,0,0,0,1.26,2.22,1.81,1.81,0,0,0,2.21-1.26Z"/><path d="M233.76,112q5.36,22.23,10.7,44.48,4.53,18.84,9,37.69L262,229.42l8.91,37.16L281.32,310l1.44,6c.55,2.25,4,1.3,3.48-1q-5.36-22.23-10.7-44.48-4.53-18.84-9.05-37.69L258,197.58l-8.91-37.16L238.68,117l-1.44-6c-.55-2.25-4-1.3-3.48,1Z"/><path d="M244,71.24q33.82-8.16,67.55-16.71c21.67-5.46,43.33-11,65-16.36q19.32-4.81,38.68-9.48c2.25-.54,1.3-4-1-3.47q-33.82,8.14-67.55,16.71c-21.67,5.46-43.33,11-65,16.36q-19.32,4.8-38.68,9.47c-2.25.55-1.3,4,1,3.48Z"/><path d="M415.92,30.4q5.83,24.21,11.5,48.48,5.5,23.57,10.92,47.16,5.34,23.19,10.65,46.37,5.4,23.53,10.87,47,5.63,24.13,11.39,48.23c.5,2.1,1,4.2,1.51,6.3s4,1.3,3.48-1q-5.83-24.22-11.5-48.48-5.5-23.56-10.92-47.16-5.34-23.19-10.65-46.38-5.4-23.52-10.87-47-5.62-24.14-11.39-48.23c-.51-2.1-1-4.2-1.52-6.3-.54-2.25-4-1.3-3.47,1Z"/><path d="M237.89,89.54l18.74,77.85,18.75,77.84,10.51,43.65c.54,2.26,4,1.3,3.47-.95l-18.74-77.85-18.75-77.84L241.36,88.58c-.55-2.25-4-1.29-3.47,1Z"/><path d="M289.57,282.31l64.84-15.62,64.85-15.61,36.43-8.78c2.25-.54,1.29-4-1-3.47l-64.85,15.62L325,270.06l-36.43,8.78c-2.25.54-1.3,4,1,3.47Z"/><path d="M407,39.13,426,117.75l18.93,78.63,10.64,44.16c.54,2.26,4,1.3,3.47-.95L440.08,161,421.15,82.34,410.51,38.17c-.54-2.25-4-1.3-3.47,1Z"/><path d="M242.09,82.11l64.06-15.43,64.06-15.43,35.92-8.65c2.25-.54,1.3-4-1-3.47L341.11,54.56,277,70l-35.91,8.65c-2.25.54-1.3,4,1,3.47Z"/><path d="M368.06,233.06a99.53,99.53,0,0,1-26.1,5.48,101,101,0,0,1-13.25.07,39.94,39.94,0,0,1-10.12-1.71,15,15,0,0,1-7.25-4.59,8.69,8.69,0,0,1-1-8.71c1.38-3.42,4.15-6.2,6.82-8.66a102.5,102.5,0,0,1,9.75-8.16c7.24-5.14,15.69-7.33,24.21-9.34,9.15-2.15,18.38-4.14,27.66-5.65,8.54-1.38,17.5-2,25.82.79a27.7,27.7,0,0,1,9.35,5.18,21.49,21.49,0,0,1,3.68,4c1.17,1.69,1.37,3-.1,4.6A67.92,67.92,0,0,1,408.4,214a118.07,118.07,0,0,1-32.21,17c-1.95.66-3.92,1.27-5.89,1.83-2.23.64-1.28,4.11.95,3.48a121.39,121.39,0,0,0,46.29-25.1c1.54-1.34,3.26-2.71,4.16-4.59a6.28,6.28,0,0,0-.51-6.06,25.37,25.37,0,0,0-8.57-8.26c-7.62-4.68-16.78-5.8-25.55-5.16-10.07.72-20.1,3-29.94,5.2-9.27,2-19,3.87-27.47,8.43A62.91,62.91,0,0,0,318.48,209a58.92,58.92,0,0,0-9,9.05c-2.39,3.23-3.92,7.08-3.29,11.14a12.66,12.66,0,0,0,5.28,8.14c6.19,4.59,14.76,5,22.14,5.07a103.08,103.08,0,0,0,28.55-3.68q3.48-1,6.88-2.16c2.17-.77,1.23-4.25-1-3.48Z"/><path d="M314.08,221.6a7.41,7.41,0,0,0,.13,7.81c1.5,2.47,4.15,3.92,6.82,4.81,6.37,2.14,13.4,2.08,20,1.27a162.42,162.42,0,0,0,38.08-9.91,183.56,183.56,0,0,0,20.28-9.27c2.05-1.09.23-4.2-1.82-3.11a175.35,175.35,0,0,1-33.21,13.57,176.36,176.36,0,0,1-17.27,4.15c-6.09,1.13-12.32,1.89-18.51,1.23a22.53,22.53,0,0,1-9-2.5c-2.09-1.25-3.89-3.88-2.36-6.24,1.27-1.95-1.85-3.75-3.1-1.81Z"/><path d="M321.2,219c9.59-8.72,22.09-13.12,34.42-16.37,13.54-3.58,28.12-7.11,42.09-3.92a38.88,38.88,0,0,1,10.34,3.88,4.63,4.63,0,0,0,.74.42c.37.38.52.29.45-.26a4.17,4.17,0,0,1-.36.37,21.51,21.51,0,0,1-2.5,1.58L401,208c-2,1.23-.16,4.35,1.81,3.11l5.22-3.27c1.49-.93,3.43-1.8,4.36-3.36,2.2-3.71-3.62-5.8-6.13-6.87a51.82,51.82,0,0,0-21.82-3.78c-8.34.24-16.57,2-24.65,3.95a154,154,0,0,0-20.61,6.26,67.11,67.11,0,0,0-20.49,12.32c-1.71,1.56.84,4.1,2.55,2.55Z"/><path d="M310.05,107.26c2.2,11.35,4.92,23.92,14.49,31.51a37.22,37.22,0,0,0,7.88,4.61c2.59,1.18,5.68,3.15,8.35,1.19a22.65,22.65,0,0,0,2.88-2.83c1.08-1.13,2.16-2.27,3.2-3.43a74.88,74.88,0,0,0,5.61-7c3.84-5.49,6.55-11.91,6.59-18.7,0-2.31-3.58-2.32-3.6,0-.06,11-7.78,19.69-15,27.19-.57.6-1.48,2-2.37,2a5.33,5.33,0,0,1-1.83-.7l-2.26-1a35.29,35.29,0,0,1-7-4,29.78,29.78,0,0,1-8.56-11.55c-2.59-5.8-3.76-12.15-5-18.34-.44-2.27-3.91-1.31-3.47,1Z"/><path d="M324.23,112.62l-.25-.16a1.32,1.32,0,0,0-.67-.21,1.47,1.47,0,0,0-.72,0,1.44,1.44,0,0,0-.61.32,1.41,1.41,0,0,0-.46.51l-.18.43a1.74,1.74,0,0,0,0,1l.18.43a1.78,1.78,0,0,0,.64.64l.25.15a1.27,1.27,0,0,0,.67.22,1.47,1.47,0,0,0,.72,0,1.34,1.34,0,0,0,.61-.33,1.33,1.33,0,0,0,.47-.5l.18-.43a2,2,0,0,0,0-1l-.18-.43a1.81,1.81,0,0,0-.65-.64Z"/><path d="M341.78,110.67l.33.5a1.38,1.38,0,0,0,.46.5,1.29,1.29,0,0,0,.61.32,1.26,1.26,0,0,0,.72,0,1.35,1.35,0,0,0,.67-.21l.36-.28a1.83,1.83,0,0,0,.47-.79l.06-.48a1.71,1.71,0,0,0-.25-.91l-.32-.5a1.93,1.93,0,0,0-1.08-.83,1.43,1.43,0,0,0-.71,0,1.32,1.32,0,0,0-.67.21l-.37.28a1.79,1.79,0,0,0-.46.8l-.07.48a2,2,0,0,0,.25.91l.33.5,3.1-1.82-.33-.5a1.23,1.23,0,0,0-.46-.5,1.4,1.4,0,0,0-.61-.33,1.47,1.47,0,0,0-.72,0,1.35,1.35,0,0,0-.67.21l-.36.29a1.78,1.78,0,0,0-.47.79l-.06.48a1.73,1.73,0,0,0,.25.91Z"/><path d="M329.62,114.58a29.14,29.14,0,0,1-.06,5.2c0,.23-.05.46-.08.69,0-.29-.05.29-.05.3-.07.42-.14.84-.23,1.25-.18.87-.4,1.73-.66,2.57a1.82,1.82,0,0,0,1.74,2.28,33.6,33.6,0,0,0,5.56-.65A1.82,1.82,0,0,0,337.1,124a1.85,1.85,0,0,0-2.22-1.26c-.77.15-1.55.28-2.15.35-.82.09-1.63.15-2.45.17l1.73,2.28a29.72,29.72,0,0,0,1.21-11,1.84,1.84,0,0,0-1.8-1.8,1.82,1.82,0,0,0-1.8,1.8Z"/><path d="M330.26,134.78a59.74,59.74,0,0,0,12.07-4.4l-2.64-2a17,17,0,0,1-.72,2.87,9.34,9.34,0,0,1-.48,1.13,6.61,6.61,0,0,1-.34.64c-.06.09-.12.19-.19.28.09-.12.1-.13,0,0s-.07.09,0,0c-.18.1-.19.12,0,.05-.22,0-.24.06-.06,0h-.12a2.66,2.66,0,0,1-.81-.38,9,9,0,0,0-2.65-1.32,1.8,1.8,0,0,0-1,3.47l.36.1c-.22-.07.08,0,.16.07s.43.25.64.38a10,10,0,0,0,1.39.8,4,4,0,0,0,4.21-.31,7.37,7.37,0,0,0,2-3.23,15.54,15.54,0,0,0,1-3.56,1.81,1.81,0,0,0-2.65-2,55.46,55.46,0,0,1-11.21,4,1.8,1.8,0,0,0,1,3.47Z"/><path d="M311.78,115.17c.45-.22.11-.06,0,0l.19,0-.22,0a5.8,5.8,0,0,0-1,.19,2.73,2.73,0,0,0-1.8,2.09,9.06,9.06,0,0,0,.17,4.36,7.52,7.52,0,0,0,2.16,3.4,7.16,7.16,0,0,0,3.92,1.7,1.81,1.81,0,0,0,1.8-1.8,1.84,1.84,0,0,0-1.8-1.8c.52.06.09,0,0,0l-.3-.08-.3-.09c-.39-.13.34.18,0,0a5.79,5.79,0,0,1-.54-.31c-.05,0-.36-.22-.13-.07s-.06-.06-.11-.1-.33-.32-.49-.49-.05-.14,0,0a1.69,1.69,0,0,0-.21-.31c-.12-.19-.22-.39-.33-.59-.22-.4.11.35,0-.08,0-.11-.08-.22-.11-.33s-.13-.45-.18-.68l0-.21,0,.21a1.93,1.93,0,0,1,0-.42c0-.24,0-.47,0-.71l0-.42c0-.35,0,.22,0,0l.06-.33c0-.15,0-.16,0,0a.71.71,0,0,1-.18.28c-.05,0-.36.31-.44.26l.31-.08c-.06.07-.43.06-.08,0l.65-.09a3.49,3.49,0,0,0,.95-.35,1.81,1.81,0,0,0,.65-2.46,1.84,1.84,0,0,0-2.46-.65Z"/><path d="M358.58,112.78c.34-.2-.36.09,0,0l-.24,0c.2,0,.16,0-.12,0a1.92,1.92,0,0,1,.3.08l-.14-.06.11.06c.13.09.14.1,0,0s-.11-.09,0,0l.13.14-.08-.1c.12,0,.29.48.33.6-.14-.44,0,0,0,.08s.09.27.13.4l.18.66c.07.26.13.53.19.8l.06.33,0,.21c0-.23,0-.28,0-.14a6.11,6.11,0,0,1,0,.74c0,.06,0,.43,0,.15s0,.11,0,.2,0,.28-.09.3c.1-.21.11-.25.06-.13l-.1.17-.06.11c-.12.16-.1.14,0-.06,0,.06-.19.19-.23.23s.29-.18,0,0l-.33.19c-.31.18.33-.09,0,0l-.31.1a12.79,12.79,0,0,1-1.49.33,1.8,1.8,0,0,0-1.25,2.21,1.83,1.83,0,0,0,2.21,1.26,6.77,6.77,0,0,0,4-1.78,5.59,5.59,0,0,0,1.12-4.78,10.21,10.21,0,0,0-1.31-4,3.74,3.74,0,0,0-4.93-1.45,1.8,1.8,0,0,0,1.82,3.11Z"/><path d="M332.22,94a91.27,91.27,0,0,0,12.8,7.61c4.08,2.07,8.17,4.22,11.35,7.57,1.6,1.68,4.14-.86,2.55-2.54-3.3-3.47-7.5-5.8-11.72-8A95.06,95.06,0,0,1,334,90.94a1.8,1.8,0,1,0-1.82,3.1Z"/><path d="M329.09,90.72a19,19,0,0,0-5,2.15l-5.27,2.89c-1.65.91-3.47,1.68-4.62,3.23s-2.08,3.21-3.11,4.8c-1.25,2,1.86,3.77,3.11,1.82.93-1.45,1.84-2.92,2.79-4.35a3.79,3.79,0,0,1,1.45-1.18l2.49-1.37,4.69-2.57a16.39,16.39,0,0,1,4.46-2c2.27-.5,1.31-4-1-3.47Z"/><path d="M335.18,82.09a20.36,20.36,0,0,0,4.63-1.85c1.6-.68,2.81-.28,4.32.43a35.39,35.39,0,0,1,7.8,5,38.18,38.18,0,0,1,10.81,14.92,36.55,36.55,0,0,1,2.45,10.24c.19,2.3,3.79,2.32,3.6,0a41.15,41.15,0,0,0-22.68-33.2c-2-.94-3.9-1.73-6.12-1.24-2,.45-3.69,1.87-5.76,2.22A1.81,1.81,0,0,0,333,80.83a1.84,1.84,0,0,0,2.21,1.26Z"/><path d="M365.78,118.61c1.48,7.38-2.26,14.68-1.47,22.09.43,4,2.26,7,4.57,10.21,1.65,2.29,4.39,6.35,2.11,9.12-1.45,1.78,1.08,4.34,2.55,2.55,2.57-3.14,2.11-7.31.26-10.71-1.95-3.6-5.05-6.33-5.79-10.52-.68-3.83.23-7.82.87-11.6.67-4,1.18-8,.37-12.1-.46-2.27-3.93-1.31-3.47,1Z"/><path d="M352.94,140.11a64.57,64.57,0,0,0,.92,6.47,7.8,7.8,0,0,0,3.15,5,7.31,7.31,0,0,1,2.78,3.32,5.08,5.08,0,0,1-.09,4.08c-1.05,2.06,2.06,3.88,3.11,1.81a9.27,9.27,0,0,0-1.55-10.29c-1.16-1.32-3.12-2-3.66-3.78a34.57,34.57,0,0,1-1.06-6.63,1.85,1.85,0,0,0-1.8-1.8,1.81,1.81,0,0,0-1.8,1.8Z"/><path d="M346.78,145.62a10.18,10.18,0,0,0,3.65,7,4.23,4.23,0,0,1,1.71,2.33,8.43,8.43,0,0,1-.54,3.57,1.8,1.8,0,1,0,3.48,1,13.75,13.75,0,0,0,.69-4.21,6.59,6.59,0,0,0-1.75-4.19c-.75-.83-1.82-1.57-2.44-2.38a6.75,6.75,0,0,1-.79-1.37,6.54,6.54,0,0,1-.41-1.72,1.85,1.85,0,0,0-1.8-1.8,1.81,1.81,0,0,0-1.8,1.8Z"/><path d="M332.78,144.38l1.89,7.83a1.81,1.81,0,0,0,2.21,1.26,1.84,1.84,0,0,0,1.26-2.22l-1.89-7.82a1.81,1.81,0,0,0-2.21-1.26,1.84,1.84,0,0,0-1.26,2.21Z"/><path d="M340.81,141.6q.54,2.07,1,4.17c.17.72.33,1.46.49,2.19l.21,1c0,.2.09.4.13.6s0,.49,0,.22c0-.43,0-1.15.82-1.12a1.48,1.48,0,0,0-.45.11L342,149l-2.1.48-1,.22c-.35.07-.5.09-.67.11a7.55,7.55,0,0,1-1,0,5.3,5.3,0,0,1-.57,0c.3,0-.25-.07-.27-.08a1.8,1.8,0,1,0-1,3.48,11.68,11.68,0,0,0,5.32-.25l2.59-.58c1-.23,2.06-.39,2.63-1.38a3.81,3.81,0,0,0,.09-2.82c-.17-.83-.35-1.67-.53-2.5q-.57-2.53-1.23-5.06a1.8,1.8,0,0,0-3.47,1Z"/><path d="M329.71,79.1c-3.91-.35-8.21-.08-11.52,2.27s-5.4,6.35-7.09,9.9A48.22,48.22,0,0,0,306.54,116c.2,2.29,3.8,2.31,3.6,0a44.66,44.66,0,0,1,3.71-22.11c1.43-3.14,3.2-6.91,5.9-9.16s6.61-2.29,10-2c2.31.2,2.3-3.4,0-3.6Z"/><path d="M310.06,129.06a89.55,89.55,0,0,1,3.31,13.81c.71,4.56.59,9.19,1.28,13.74a13.22,13.22,0,0,0,6.28,9.54,21.88,21.88,0,0,0,5.17,2.28c1.32.41,3.36.53,4,1.92,1,2.09,4.1.26,3.1-1.82a6.25,6.25,0,0,0-4.14-3,31.28,31.28,0,0,1-5.06-1.77,10.24,10.24,0,0,1-5.95-8.51c-.26-2.24-.25-4.51-.44-6.76s-.46-4.4-.8-6.59a89.55,89.55,0,0,0-3.31-13.81c-.71-2.2-4.19-1.26-3.47,1Z"/><path d="M320.46,146.88l.8,6.46c.27,2.11.13,4.65,2.25,5.82,1.53.86,3.24,1.41,4.79,2.23,1.18.62,2.48,1.42,2.9,2.69.73,2.19,4.21,1.25,3.47-1-1.14-3.44-4.47-4.86-7.53-6.23l-1.24-.56c-.19-.09-.39-.17-.58-.27s-.23-.23-.16-.1,0-.31,0-.36c0-.27-.07-.54-.1-.81l-.19-1.45-.8-6.46a1.87,1.87,0,0,0-1.8-1.8,1.81,1.81,0,0,0-1.8,1.8Z"/><path d="M328.21,147.4l1,4.36a14.39,14.39,0,0,0,.53,2,4.48,4.48,0,0,0,1.56,2c.95.71,1.87,1.18,2.67,1.91a11.74,11.74,0,0,1,2.24,2.68,1.85,1.85,0,0,0,2.47.65,1.83,1.83,0,0,0,.64-2.47,16.48,16.48,0,0,0-5.37-5.33,4.76,4.76,0,0,1-.67-.43c.06.05-.14-.16-.15-.19a10.73,10.73,0,0,1-.45-1.74l-1-4.36a1.8,1.8,0,1,0-3.47,1Z"/><path d="M380.48,124A55.13,55.13,0,0,0,393,155.36c6.86,8.3,17.55,16,28.88,13.31a17.11,17.11,0,0,0,12.24-10.17c.84-2.16-2.64-3.09-3.47-.95-1.55,4-5.39,6.54-9.39,7.56a19.11,19.11,0,0,1-13.33-1.9c-9-4.59-15.86-13.47-19.82-22.62a50.49,50.49,0,0,1-4-16.57c-.16-2.3-3.76-2.31-3.6,0Z"/><path d="M405.29,134.05a13.37,13.37,0,0,1-3.15,13.33,1.81,1.81,0,0,0,1.75,3l6.83-1.6c2.26-.53,1.3-4-1-3.47l-6.84,1.6,1.75,3a17,17,0,0,0,4.08-16.84,1.85,1.85,0,0,0-2.22-1.26,1.82,1.82,0,0,0-1.25,2.22Z"/><path d="M410.42,156.61a41.65,41.65,0,0,0,8.25-4.34c1.25-.86,2.44-1.81,3.62-2.77a4.39,4.39,0,0,1,3.15-1.37l-1.74-2.27a30.39,30.39,0,0,1-2.87,7.77,2.43,2.43,0,0,1-.9,1.1,1.3,1.3,0,0,1-.91.06,7.27,7.27,0,0,1-2.92-1.74,1.86,1.86,0,0,0-2.55,0,1.82,1.82,0,0,0,0,2.55c2.52,2.16,6.66,4.43,9.41,1.25a17.18,17.18,0,0,0,2.57-4.84,33.41,33.41,0,0,0,1.64-5.2,1.83,1.83,0,0,0-1.73-2.28c-3.2-.36-5.58,2.48-7.93,4.17a37.61,37.61,0,0,1-8.05,4.44,1.86,1.86,0,0,0-1.26,2.21,1.82,1.82,0,0,0,2.22,1.26Z"/><path d="M393.67,135.54v0l-.18-.43a.2.2,0,0,1,0,.11l-.06-.48v.12l.06-.48a.42.42,0,0,1,0,.15l.18-.43a.37.37,0,0,1-.07.12l.28-.36a.38.38,0,0,1-.11.11l.37-.28-.12.06.43-.18-.1,0,.48-.06h-.12l.48.06-.11,0,.43.18-.09-.05.36.28-.09-.1.28.37a.83.83,0,0,1-.07-.13l.18.43a.83.83,0,0,1,0-.15l.06.48v-.15l-.06.48a.27.27,0,0,1,0-.12l-.18.43a.41.41,0,0,1,.05-.09l-.28.37,0,0a1.46,1.46,0,0,0,.38-.58,1.41,1.41,0,0,0,.15-.7,1.92,1.92,0,0,0-.53-1.27l-.36-.28a1.91,1.91,0,0,0-.91-.25l-.48.07a1.76,1.76,0,0,0-.79.46,2.25,2.25,0,0,0-.56,1,3.56,3.56,0,0,0-.08.57v.11a3.9,3.9,0,0,0,.08.57,4.93,4.93,0,0,0,.22.53l.06.09a2.25,2.25,0,0,0,.35.44,2.22,2.22,0,0,0,1,.56,2.8,2.8,0,0,0,.58.08h.06l.26,0c.07,0,.18,0,.27,0a2.39,2.39,0,0,0,.52-.22,2.29,2.29,0,0,0,.46-.34l.08-.07a3.73,3.73,0,0,0,.35-.46,2.83,2.83,0,0,0,.23-.54l0-.06a3.33,3.33,0,0,0,.07-.54v-.06a3.33,3.33,0,0,0-.07-.54s0,0,0-.06a4.25,4.25,0,0,0-.21-.49,1.38,1.38,0,0,0-.46-.5,1.69,1.69,0,0,0-1.33-.36,1.33,1.33,0,0,0-.67.22l-.37.28a1.85,1.85,0,0,0-.46.79l-.06.48a1.79,1.79,0,0,0,.24.91Z"/><path d="M419.13,122.64h0l.37.29s0,0,0,0l.28.36,0,0,.18.43s0,0,0,0l.07.48a0,0,0,0,1,0,0l-.07.48a.14.14,0,0,1,0-.06l-.18.43,0-.08-.28.37a.3.3,0,0,1,.08-.08l-.36.28a.21.21,0,0,1,.1-.06l-.43.18a.19.19,0,0,1,.1,0l-.48.06h.08l-.47-.06.06,0-.43-.18.08,0-.37-.28.09.09-.28-.36a.64.64,0,0,1,.08.14l-.18-.43a2.33,2.33,0,0,1,.07.25l-.07-.47a2.3,2.3,0,0,1,0,.37l3.53-.48-.19-.89a1.93,1.93,0,0,0-.83-1.08A1.32,1.32,0,0,0,419,122a1.26,1.26,0,0,0-.72,0l-.43.18a1.81,1.81,0,0,0-.64.65l-.18.43a1.71,1.71,0,0,0,0,1l.19.9a1.38,1.38,0,0,0,.32.61,1.44,1.44,0,0,0,.51.47l.43.18a1.47,1.47,0,0,0,.72,0,.89.89,0,0,0,.45-.12,1.4,1.4,0,0,0,.58-.38l.28-.36a1.8,1.8,0,0,0,.25-.91,2.09,2.09,0,0,0,0-.25,4.31,4.31,0,0,0-.09-.71l0-.11a4.09,4.09,0,0,0-.23-.52,3.25,3.25,0,0,0-.33-.46l-.08-.08-.38-.29h0l0,0a1.62,1.62,0,0,0-.75-.23,1.65,1.65,0,0,0-.32,0,2.72,2.72,0,0,0-.55.09,3.22,3.22,0,0,0-.51.21l0,0,0,0-.38.29-.05.06a2,2,0,0,0-.33.43v0l-.09.22a2.14,2.14,0,0,0-.1.22s0,0,0,0a2.11,2.11,0,0,0,0,1,1.51,1.51,0,0,0,.21.49,2,2,0,0,0,.7.7,1.92,1.92,0,0,0,1.39.18,1.29,1.29,0,0,0,.61-.32,1.23,1.23,0,0,0,.46-.5l.19-.43a2,2,0,0,0,0-1l-.19-.43a1.81,1.81,0,0,0-.64-.65Z"/><path d="M406.11,104.85c-2.64,2.32-5.26,4.68-7.94,7a28.11,28.11,0,0,1-8,5.2l2.28,1.74a3.75,3.75,0,0,1,.46-1.89c.94-1.76-1.36-3.69-2.83-2.18a49.79,49.79,0,0,1-13,9.65c-2.06,1.06-.24,4.16,1.82,3.11a52.83,52.83,0,0,0,13.76-10.22L389.8,115a7.76,7.76,0,0,0-.95,3.71,1.82,1.82,0,0,0,2.28,1.74c6.82-2.64,12.13-8.35,17.52-13.1,1.75-1.53-.81-4.07-2.54-2.54Z"/><path d="M407.87,87c-2.82-2.16-6.41-2.32-9.79-1.79s-7.41,1.34-9.51,4c-2.6,3.36-5,7-7.42,10.42-2.19,3.09-4.37,6.19-6.26,9.48a43.14,43.14,0,0,0-4.9,12c-.51,2.26,3,3.22,3.47,1,2-8.74,7.53-16,12.62-23.19l4.27-6a7.51,7.51,0,0,1,2-2.37,12.3,12.3,0,0,1,2.79-1c3.57-1,7.69-1.92,10.88.53a1.8,1.8,0,0,0,2.46-.65,1.84,1.84,0,0,0-.64-2.46Z"/><path d="M411.31,91.12a15.07,15.07,0,0,1,2.12-.45l-.48.06a14.43,14.43,0,0,1,3.15-.06,1.79,1.79,0,0,0,1.8-1.8,1.84,1.84,0,0,0-.52-1.28,2.06,2.06,0,0,0-1.28-.52,15.74,15.74,0,0,0-5.75.58,1.8,1.8,0,1,0,1,3.47Z"/><path d="M426.8,167.62l1.16,4.8a1.81,1.81,0,0,0,2.21,1.26,1.84,1.84,0,0,0,1.26-2.21l-1.16-4.81a1.8,1.8,0,1,0-3.47,1Z"/><path d="M429.16,173.22a18,18,0,0,0,6.62-.15,1.81,1.81,0,0,0,1.26-2.22,1.84,1.84,0,0,0-2.21-1.26q-.58.14-1.17.21l.48-.06a15.41,15.41,0,0,1-4.07,0l.47.07-.42-.06a1.92,1.92,0,0,0-1.39.18,1.85,1.85,0,0,0-.83,1.07,1.83,1.83,0,0,0,.19,1.39,1.71,1.71,0,0,0,1.07.83Z"/><path d="M296,195.63l82.26-19.81,23.23-5.59c2.25-.54,1.3-4-1-3.47l-82.26,19.81-23.23,5.59c-2.25.55-1.3,4,1,3.47Z"/><path d="M406.44,175.19a546,546,0,0,1,42.4,42.17c1.56,1.73,4.1-.83,2.55-2.54A544.34,544.34,0,0,0,409,172.65c-1.72-1.54-4.28,1-2.54,2.54Z"/><path d="M294.92,197.6q-5.6,30.77-9.07,61.84-1,8.82-1.8,17.64c-.21,2.3,3.39,2.29,3.6,0q2.85-30.78,7.78-61.3,1.4-8.62,3-17.22c.41-2.26-3.06-3.24-3.47-1Z"/><path d="M315,162.6c-6.38,7-6.81,16.93-6.86,26,0,2.32,3.58,2.32,3.6,0,.05-8,.15-17.16,5.81-23.41,1.55-1.71-1-4.27-2.55-2.54Z"/><path d="M375.07,152.9a34.65,34.65,0,0,1,14.52,16,1.8,1.8,0,0,0,2.46.64,1.83,1.83,0,0,0,.65-2.46,37.92,37.92,0,0,0-15.81-17.34c-2-1.14-3.84,2-1.82,3.11Z"/><path d="M427.56,169.89a24.23,24.23,0,0,0-7.78,1.93A9.72,9.72,0,0,0,415,177a1.8,1.8,0,0,0,1.25,2.21,1.86,1.86,0,0,0,2.22-1.26c-.07.17-.06.13,0,0s.09-.19.14-.29A5.6,5.6,0,0,1,419,177s.21-.29.09-.14.1-.1.12-.13.32-.35.5-.52a6.4,6.4,0,0,1,.49-.42c-.14.11-.1.06,0,0l.33-.23a11,11,0,0,1,1.21-.68l.29-.14c-.19.09,0,0,.08,0l.74-.26c.53-.17,1.06-.31,1.6-.43s1.09-.21,1.64-.3l.88-.13.39-.06c.36,0-.43.06.2,0a1.85,1.85,0,0,0,1.8-1.8c0-.87-.8-1.94-1.8-1.8Z"/><path d="M282.64,108.93c6.42,9.45,12.62,19.89,12.69,31.66a26.52,26.52,0,0,1-4.42,15.25,27.83,27.83,0,0,1-11.28,9.42,33.93,33.93,0,0,1-18.95,2.55,1.86,1.86,0,0,0-2.21,1.26,1.81,1.81,0,0,0,1.26,2.21c11.86,1.68,24.51-1.65,32.39-11.11,8-9.65,8.24-22.8,4-34.16-2.53-6.78-6.33-12.94-10.38-18.9-1.29-1.91-4.41-.11-3.11,1.82Z"/><path d="M272.84,132.51a11.41,11.41,0,0,0,5.54,9.61V139l-.37.22c-.15.08-.36.2-.08.06a3.13,3.13,0,0,1-.89.26l-.21,0,.12,0c-.14,0-.28,0-.43,0l-.42,0,.12,0-.28-.06A1.8,1.8,0,1,0,275,143a6.79,6.79,0,0,0,5.2-.87,1.82,1.82,0,0,0,0-3.11l-.5-.31-.21-.15-.08-.06-.13-.11-.19-.17c-.15-.13-.29-.27-.43-.41s-.27-.28-.4-.43l-.17-.2c-.19-.23.05,0,0,.05s-.6-.89-.65-1-.17-.31-.25-.47l-.15-.29,0-.09c.1.23,0,0,0-.09s-.08-.2-.11-.3-.11-.34-.16-.5a3.4,3.4,0,0,1-.25-1.16c0,.1,0,.34,0,.09a2.28,2.28,0,0,1,0-.26q0-.33,0-.66a1.8,1.8,0,0,0-3.6,0Z"/><path d="M267.5,152.93a23.29,23.29,0,0,0,10.5,1.7,1.8,1.8,0,1,0,0-3.6,21.87,21.87,0,0,1-2.56,0c-.43,0-.85,0-1.28-.1a5,5,0,0,1-.54-.06l-.34,0a22.07,22.07,0,0,1-4.83-1.4,1.8,1.8,0,0,0-2.21,1.26,1.84,1.84,0,0,0,1.26,2.21Z"/><path d="M274.61,117.54l2.08,8.67,1.07,4.44c.3,1.25.46,2.72,1.71,3.4s2.86.48,4.11.54c1.42.07,2.84.09,4.27.06a61.4,61.4,0,0,0,9-.9,1.82,1.82,0,0,0,1.26-2.22,1.85,1.85,0,0,0-2.22-1.26,54.2,54.2,0,0,1-7.62.77c-1.23,0-2.46,0-3.69,0-.65,0-1.3-.05-1.94-.1l-1-.07-.39,0c-.53-.08-.51-.05.05.08l.46.79a23.66,23.66,0,0,1-.9-3.55l-.93-3.86-1.85-7.71c-.54-2.25-4-1.3-3.47,1Z"/><path d="M278.12,117.24a32.6,32.6,0,0,1,8.12-.81,30.33,30.33,0,0,1,3.92.33c.7.11,1.39.24,2.08.39l.86.21.52.13c.39.11.45.12.2.05l-.46-.79a5.37,5.37,0,0,1,.14,1.56c0,.68.08,1.37.13,2,.09,1.3.21,2.6.35,3.9q.42,4,1.13,8.06a1.81,1.81,0,0,0,2.21,1.26,1.85,1.85,0,0,0,1.26-2.22q-.79-4.55-1.2-9.14c-.14-1.55-.24-3.1-.32-4.66s-.44-2.92-2.14-3.45a34.83,34.83,0,0,0-17.76-.34c-2.26.52-1.3,4,1,3.47Z"/><path d="M249.22,120.78c3.6-1,7.3-2.11,11.09-2a12.91,12.91,0,0,1,2.7.37,6.86,6.86,0,0,1,2.08.74,8.09,8.09,0,0,1,.66,2.31c.28,1,.56,2.1.81,3.16a33,33,0,0,1,.9,5.92,16.1,16.1,0,0,1-.07,3.23c.46-.57.42-.73-.12-.49l-.79.2-1.58.4q-6.15,1.51-12.33,2.83c-2.27.48-1.31,3.95,1,3.47q5.79-1.23,11.54-2.63l2.78-.7a4.71,4.71,0,0,0,2.4-1.08c1.19-1.25.9-3.85.81-5.43a52.43,52.43,0,0,0-2.33-11.61,4.68,4.68,0,0,0-3.38-3.36,16,16,0,0,0-5-.93c-4.09-.16-8.15,1-12,2.09-2.22.65-1.28,4.12.95,3.47Z"/><path d="M269.24,126.52a20.22,20.22,0,0,1,3.34-1l.83-.14-.16,0,.26,0,.38,0q.9-.09,1.8-.09a1.8,1.8,0,1,0,0-3.6,21.55,21.55,0,0,0-7.41,1.36,2,2,0,0,0-1.08.83,1.84,1.84,0,0,0-.18,1.38,1.82,1.82,0,0,0,2.22,1.26Z"/><path d="M260.23,127.88v0l-.36.28h0l-.43.18h0l-.48.06h0l-.48-.06h0l-.43-.18h0l-.37-.29,0,0-.29-.37,0,0-.18-.43a.43.43,0,0,1,0,.05l-.06-.48v.07l.06-.48a.06.06,0,0,1,0,0l.18-.43v0l.28-.37h0l.37-.28h0l.43-.18h0L259,125h0l.48.07h0l.43.18h0l.36.28h0a1.46,1.46,0,0,0-.58-.38,1.41,1.41,0,0,0-.7-.15,1.39,1.39,0,0,0-.69.15,1.46,1.46,0,0,0-.58.38l-.28.36a1.91,1.91,0,0,0-.25.91l.07.48a1.76,1.76,0,0,0,.46.79,1.83,1.83,0,0,0,.84.49h0l.48.06h0l.48-.06a1.16,1.16,0,0,0,.44-.19,1.53,1.53,0,0,0,.38-.29l.28-.37h0l.18-.43h0v0a4,4,0,0,0,.07-.5v0c0-.13,0-.34-.07-.5v0a2.25,2.25,0,0,0-.19-.45h0c-.09-.13-.19-.25-.29-.37h0a2.57,2.57,0,0,0-.37-.28,1.16,1.16,0,0,0-.44-.19,1.88,1.88,0,0,0-1,0h0l-.22.09-.21.09h0a3.47,3.47,0,0,0-.38.29h0a1.29,1.29,0,0,0-.37.58,1.38,1.38,0,0,0-.16.69,1.41,1.41,0,0,0,.16.7,1.34,1.34,0,0,0,.37.58l.36.28a1.85,1.85,0,0,0,.91.24l.48-.06a1.89,1.89,0,0,0,.8-.46Z"/><path d="M282.73,124.88l.27-.07a1.29,1.29,0,0,0,.61-.32,1.3,1.3,0,0,0,.46-.5,1.92,1.92,0,0,0,.18-1.39l-.18-.43a1.81,1.81,0,0,0-.64-.65l-.43-.18a2,2,0,0,0-1,0l-.26.06a1.43,1.43,0,0,0-.62.33,1.31,1.31,0,0,0-.46.5,1.35,1.35,0,0,0-.21.67,1.26,1.26,0,0,0,0,.72l.18.43a1.81,1.81,0,0,0,.65.64l.43.19a1.91,1.91,0,0,0,1,0Z"/><path d="M274,97.7a3.87,3.87,0,0,0-3.28-2.48,2.86,2.86,0,0,0-1.94.72c-.68.61-.68,1.29-.9,2.09-.33,1.24-1.62,2.07-2.42,3-1.06,1.25-1.89,2.66-2.85,4a18.34,18.34,0,0,1-15.14,7.41c-2.32,0-2.32,3.55,0,3.6a22.11,22.11,0,0,0,15.25-5.77c2.16-2,3.44-4.49,5.29-6.7a30.66,30.66,0,0,0,2.67-3,5.13,5.13,0,0,0,.7-1.73c0-.19.05-.38.08-.56.1-.46-.25-.31-1.05.43,0,.18.4.64.48.81,1,2.07,4.16.25,3.11-1.82Z"/><path d="M276,99.13A6.37,6.37,0,0,0,278,104a14.16,14.16,0,0,0,4,2.64,1.8,1.8,0,0,0,1.82-3.1,21.36,21.36,0,0,1-2.67-1.55l.16.13-.16-.13-.3-.26a6.38,6.38,0,0,1-.51-.53l-.1-.11.1.13a3.53,3.53,0,0,0-.21-.32,5.7,5.7,0,0,1-.37-.69l.18.43a4.61,4.61,0,0,1-.31-1.1l.06.48a4.11,4.11,0,0,1,0-.86,1.8,1.8,0,0,0-.53-1.27,1.79,1.79,0,0,0-2.54,0,2,2,0,0,0-.53,1.27Z"/><path d="M275.46,86c2.7-1.52,5.65.26,7.62,2.14A28.77,28.77,0,0,1,288.35,95a31.3,31.3,0,0,1,3.95,16.88c-.12,2.31,3.48,2.31,3.6,0a34.71,34.71,0,0,0-5.27-20.09c-3.36-5.33-10-12.84-17-8.9-2,1.14-.21,4.26,1.81,3.11Z"/><path d="M268.75,81.91c-5.36-1.67-11-.52-16.36.59-4.48.94-9.2,2.32-12.24,6-1.48,1.77,1.06,4.33,2.54,2.55,2.67-3.19,6.76-4.22,10.65-5,4.73-1,9.72-2.07,14.45-.6,2.22.69,3.17-2.79,1-3.47Z"/><path d="M263.13,181.39c14.05,1,21.64,15.08,27.28,26.16,1,2.07,4.16.25,3.11-1.81-3.41-6.69-6.94-13.49-12.24-18.91-4.85-5-11.14-8.55-18.15-9-2.31-.17-2.3,3.43,0,3.6Z"/><path d="M285.9,319l4.93-1.12,13.49-3.07,19.87-4.51,24.36-5.53,26.56-6,26.81-6.08,25.11-5.7,21.13-4.8,15.2-3.45c2.4-.55,4.85-1,7.23-1.64l.31-.07c1.88-.43,1.08-3.32-.8-2.9l-4.93,1.12-13.49,3.07-19.87,4.51-24.36,5.53-26.56,6-26.81,6.08L329,306.09l-21.13,4.8-15.2,3.45c-2.4.55-4.85,1-7.23,1.64l-.31.07c-1.88.43-1.08,3.32.8,2.9Z"/></g></svg>