<svg width="194" height="48" viewBox="0 0 194 48" fill="none" xmlns="http://www.w3.org/2000/svg">
<rect width="48" height="48" rx="10" fill="#FFBB01"/>
<path d="M77.296 32V14.48H81.232V32H77.296ZM65.968 32V14.48H69.904V32H65.968ZM69.208 24.92V21.464H77.992V24.92H69.208ZM90.9713 32.456C89.8513 32.456 88.8593 32.264 87.9953 31.88C87.1473 31.496 86.4353 30.984 85.8593 30.344C85.2993 29.688 84.8673 28.96 84.5633 28.16C84.2753 27.344 84.1313 26.512 84.1313 25.664V25.184C84.1313 24.304 84.2753 23.464 84.5633 22.664C84.8673 21.848 85.2993 21.12 85.8593 20.48C86.4193 19.84 87.1153 19.336 87.9473 18.968C88.7953 18.584 89.7553 18.392 90.8273 18.392C92.2353 18.392 93.4193 18.712 94.3793 19.352C95.3553 19.976 96.0993 20.8 96.6113 21.824C97.1233 22.832 97.3793 23.936 97.3793 25.136V26.432H85.7393V24.248H95.0513L93.8033 25.256C93.8033 24.472 93.6913 23.8 93.4673 23.24C93.2433 22.68 92.9073 22.256 92.4593 21.968C92.0273 21.664 91.4833 21.512 90.8273 21.512C90.1553 21.512 89.5873 21.664 89.1233 21.968C88.6593 22.272 88.3073 22.72 88.0673 23.312C87.8273 23.888 87.7073 24.6 87.7073 25.448C87.7073 26.232 87.8193 26.92 88.0433 27.512C88.2673 28.088 88.6193 28.536 89.0993 28.856C89.5793 29.176 90.2033 29.336 90.9713 29.336C91.6753 29.336 92.2513 29.2 92.6993 28.928C93.1473 28.656 93.4513 28.32 93.6113 27.92H97.1393C96.9473 28.8 96.5713 29.584 96.0113 30.272C95.4513 30.96 94.7473 31.496 93.8993 31.88C93.0513 32.264 92.0753 32.456 90.9713 32.456ZM99.6393 37.208V33.944H102.375C102.791 33.944 103.143 33.888 103.431 33.776C103.719 33.68 103.951 33.512 104.127 33.272C104.303 33.032 104.447 32.704 104.559 32.288L107.799 18.848H111.447L107.775 33.056C107.519 34.08 107.159 34.896 106.695 35.504C106.247 36.112 105.639 36.544 104.871 36.8C104.119 37.072 103.159 37.208 101.991 37.208H99.6393ZM103.767 31.712V28.712H106.551V31.712H103.767ZM102.183 31.712L98.1513 18.848H102.015L105.831 31.712H102.183ZM122.182 26.984V23.576H125.326C125.934 23.576 126.454 23.456 126.886 23.216C127.334 22.976 127.678 22.64 127.918 22.208C128.158 21.76 128.278 21.248 128.278 20.672C128.278 20.064 128.158 19.544 127.918 19.112C127.678 18.664 127.334 18.328 126.886 18.104C126.454 17.864 125.934 17.744 125.326 17.744H122.182V14.336H125.134C126.622 14.336 127.894 14.584 128.95 15.08C130.022 15.576 130.838 16.28 131.398 17.192C131.974 18.104 132.262 19.2 132.262 20.48V20.864C132.262 22.112 131.974 23.2 131.398 24.128C130.838 25.04 130.022 25.744 128.95 26.24C127.894 26.736 126.622 26.984 125.134 26.984H122.182ZM118.726 32V14.336H122.662V32H118.726ZM135.259 32V18.848H139.099V32H135.259ZM133.507 21.68V18.848H139.099V21.68H133.507ZM136.747 17.552C136.027 17.552 135.491 17.368 135.139 17C134.803 16.616 134.635 16.136 134.635 15.56C134.635 14.968 134.803 14.488 135.139 14.12C135.491 13.736 136.027 13.544 136.747 13.544C137.467 13.544 137.995 13.736 138.331 14.12C138.683 14.488 138.859 14.968 138.859 15.56C138.859 16.136 138.683 16.616 138.331 17C137.995 17.368 137.467 17.552 136.747 17.552ZM141.786 32V29.312L147.954 21.92V22.304L147.378 21.584L147.81 21.8H141.81V18.848H152.154V21.536L145.986 28.928V28.568L146.562 29.288L146.13 29.048H152.346V32H141.786ZM153.833 32V29.312L160.001 21.92V22.304L159.425 21.584L159.857 21.8H153.857V18.848H164.201V21.536L158.033 28.928V28.568L158.609 29.288L158.177 29.048H164.393V32H153.833ZM174.688 32V28.112H174.04V23.888C174.04 23.216 173.88 22.712 173.56 22.376C173.24 22.04 172.728 21.872 172.024 21.872C171.672 21.872 171.208 21.88 170.632 21.896C170.056 21.912 169.464 21.936 168.856 21.968C168.248 22 167.696 22.032 167.2 22.064V18.824C167.568 18.792 168 18.76 168.496 18.728C168.992 18.696 169.504 18.672 170.032 18.656C170.56 18.64 171.056 18.632 171.52 18.632C172.864 18.632 173.992 18.824 174.904 19.208C175.832 19.592 176.536 20.176 177.016 20.96C177.496 21.728 177.736 22.72 177.736 23.936V32H174.688ZM170.488 32.336C169.544 32.336 168.712 32.168 167.992 31.832C167.288 31.496 166.736 31.016 166.336 30.392C165.936 29.752 165.736 28.992 165.736 28.112C165.736 27.152 165.984 26.368 166.48 25.76C166.976 25.136 167.672 24.68 168.568 24.392C169.464 24.088 170.496 23.936 171.664 23.936H174.472V26.072H171.64C170.968 26.072 170.448 26.24 170.08 26.576C169.728 26.896 169.552 27.336 169.552 27.896C169.552 28.424 169.728 28.856 170.08 29.192C170.448 29.512 170.968 29.672 171.64 29.672C172.072 29.672 172.456 29.6 172.792 29.456C173.144 29.296 173.432 29.032 173.656 28.664C173.88 28.296 174.008 27.784 174.04 27.128L174.952 28.088C174.872 29 174.648 29.768 174.28 30.392C173.928 31.016 173.432 31.496 172.792 31.832C172.168 32.168 171.4 32.336 170.488 32.336Z" fill="#0F0F0E"/>
<mask id="path-3-inside-1_528_58" fill="white">
<path fill-rule="evenodd" clip-rule="evenodd" d="M28.3059 10.0614C29.3293 10.4744 29.6587 11.709 29.1119 12.6676L24.1839 21.3071C23.4233 22.6404 24.3862 24.298 25.9211 24.298L35.5978 24.298C36.7175 24.298 37.6325 25.2222 37.4621 26.3288C36.3566 33.5071 30.222 39 22.8198 39C14.635 39 8 32.2843 8 24C8 15.7157 14.635 9 22.8198 9C24.7579 9 26.6091 9.37657 28.3059 10.0614Z"/>
</mask>
<path d="M35.5978 24.298L35.5978 26.298L35.5978 24.298ZM29.1119 12.6676L27.3747 11.6767L29.1119 12.6676ZM28.3059 10.0614L27.5574 11.916L28.3059 10.0614ZM24.1839 21.3071L25.9211 22.298L24.1839 21.3071ZM25.9211 24.298L25.9211 22.298L25.9211 24.298ZM25.9211 22.298L30.8492 13.6586L27.3747 11.6767L22.4466 20.3161L25.9211 22.298ZM35.5978 22.298L25.9211 22.298L25.9211 26.298L35.5978 26.298L35.5978 22.298ZM35.4854 26.0244C34.5251 32.26 29.2021 37 22.8198 37V41C31.2418 41 38.1881 34.7542 39.4388 26.6332L35.4854 26.0244ZM22.8198 37C15.7623 37 10 31.2026 10 24H6C6 33.366 13.5078 41 22.8198 41V37ZM10 24C10 16.7974 15.7623 11 22.8198 11V7C13.5078 7 6 14.634 6 24H10ZM22.8198 11C24.4967 11 26.0941 11.3255 27.5574 11.916L29.0544 8.20671C27.1241 7.42768 25.0191 7 22.8198 7V11ZM35.5978 26.298C35.6066 26.298 35.5879 26.3016 35.5569 26.2687C35.5395 26.2502 35.5158 26.217 35.4994 26.1669C35.4819 26.1134 35.4797 26.0612 35.4854 26.0244L39.4388 26.6332C39.8237 24.1334 37.7523 22.298 35.5978 22.298L35.5978 26.298ZM30.8492 13.6586C31.8999 11.8165 31.3741 9.14287 29.0544 8.20671L27.5574 11.916C27.5216 11.9015 27.4771 11.8725 27.4395 11.8297C27.4041 11.7896 27.3871 11.7517 27.3798 11.7269C27.3667 11.6825 27.3794 11.6684 27.3747 11.6767L30.8492 13.6586ZM22.4466 20.3161C20.9256 22.9828 22.8512 26.298 25.9211 26.298L25.9211 22.298L25.9211 22.298L22.4466 20.3161Z" fill="#0F0F0E" mask="url(#path-3-inside-1_528_58)"/>
<mask id="path-5-inside-2_528_58" fill="white">
<path fill-rule="evenodd" clip-rule="evenodd" d="M34.1289 10.3711C33.2525 9.70043 32.0218 10.0433 31.4738 11.0013L26.558 19.5945C25.7952 20.9278 26.7579 22.5876 28.294 22.5876L39.6999 22.5876C39.8649 22.5876 39.9999 22.4555 39.9999 22.2905V22.2905C39.9999 17.4242 37.696 13.1009 34.1289 10.3711Z"/>
</mask>
<path d="M39.6999 22.5876L39.6999 20.5876L39.6999 22.5876ZM28.294 20.5876L33.2098 11.9944L29.7378 10.0082L24.8219 18.6014L28.294 20.5876ZM39.6999 20.5876L28.294 20.5876L28.294 24.5876L39.6999 24.5876L39.6999 20.5876ZM32.9135 11.9594C36.0038 14.3244 37.9999 18.069 37.9999 22.2905H41.9999C41.9999 16.7794 39.3881 11.8774 35.3444 8.78287L32.9135 11.9594ZM39.6999 24.5876C40.9442 24.5876 41.9999 23.5852 41.9999 22.2905H37.9999C37.9999 21.3259 38.7856 20.5876 39.6999 20.5876L39.6999 24.5876ZM33.2098 11.9944C33.2144 11.9863 33.2086 12.0044 33.164 12.0156C33.1391 12.0218 33.0982 12.0264 33.0462 12.0164C32.9908 12.0058 32.9438 11.9826 32.9135 11.9594L35.3444 8.78287C33.3607 7.26476 30.7917 8.16582 29.7378 10.0082L33.2098 11.9944ZM24.8219 18.6014C23.2965 21.268 25.2218 24.5876 28.294 24.5876L28.294 20.5876L28.294 20.5876L24.8219 18.6014Z" fill="#0F0F0E" mask="url(#path-5-inside-2_528_58)"/>
<ellipse rx="1.02161" ry="0.771396" transform="matrix(0.880242 0.474525 -0.465673 0.884957 20.5186 14.2924)" fill="#0F0F0E"/>
</svg>
